PaytoneOne.ufo
<glyph name="exclam" format="1">
  <advance width="553"/>
  <unicode hex="0021"/>
  <outline>
    <contour>
      <point x="386" y="552" type="line"/>
      <point x="177" y="552" type="line"/>
      <point x="102" y="1082" type="line"/>
      <point x="102" y="1356" type="line"/>
      <point x="459" y="1356" type="line"/>
      <point x="459" y="1082" type="line"/>
    </contour>
    <contour>
      <point x="291" y="31" type="curve" smooth="yes"/>
      <point x="188" y="31"/>
      <point x="94" y="90"/>
      <point x="94" y="197" type="curve" smooth="yes"/>
      <point x="94" y="299"/>
      <point x="178" y="366"/>
      <point x="288" y="366" type="curve" smooth="yes"/>
      <point x="395" y="366"/>
      <point x="480" y="296"/>
      <point x="480" y="197" type="curve" smooth="yes"/>
      <point x="480" y="86"/>
      <point x="391" y="31"/>
    </contour>
  </outline>
</glyph>
<glyph name="quotedbl" format="1">
  <advance width="717"/>
  <unicode hex="0022"/>
  <outline>
    <contour>
      <point x="615" y="1065" type="line"/>
      <point x="479" y="1065" type="line"/>
      <point x="443" y="1495" type="line"/>
      <point x="664" y="1495" type="line"/>
    </contour>
    <contour>
      <point x="242" y="1065" type="line"/>
      <point x="106" y="1065" type="line"/>
      <point x="72" y="1495" type="line"/>
      <point x="291" y="1495" type="line"/>
    </contour>
  </outline>
</glyph>
<glyph name="numbersign" format="1">
  <advance width="928"/>
  <unicode hex="0023"/>
  <outline>
    <contour>
      <point x="221" y="56" type="line"/>
      <point x="109" y="56" type="line"/>
      <point x="226" y="538" type="line"/>
      <point x="73" y="538" type="line"/>
      <point x="80" y="598" type="line"/>
      <point x="239" y="598" type="line"/>
      <point x="290" y="801" type="line"/>
      <point x="109" y="801" type="line"/>
      <point x="117" y="865" type="line"/>
      <point x="304" y="865" type="line"/>
      <point x="401" y="1320" type="line"/>
      <point x="498" y="1320" type="line"/>
      <point x="401" y="865" type="line"/>
      <point x="613" y="865" type="line"/>
      <point x="719" y="1320" type="line"/>
      <point x="834" y="1320" type="line"/>
      <point x="723" y="865" type="line"/>
      <point x="867" y="865" type="line"/>
      <point x="859" y="801" type="line"/>
      <point x="704" y="801" type="line"/>
      <point x="656" y="598" type="line"/>
      <point x="831" y="598" type="line"/>
      <point x="823" y="538" type="line"/>
      <point x="639" y="538" type="line"/>
      <point x="538" y="56" type="line"/>
      <point x="445" y="56" type="line"/>
      <point x="545" y="538" type="line"/>
      <point x="332" y="538" type="line"/>
    </contour>
    <contour>
      <point x="387" y="801" type="line"/>
      <point x="344" y="598" type="line"/>
      <point x="557" y="598" type="line"/>
      <point x="599" y="801" type="line"/>
    </contour>
  </outline>
</glyph>
<glyph name="dollar" format="1">
  <advance width="1018"/>
  <unicode hex="0024"/>
  <outline>
    <contour>
      <point x="585" y="807" type="line" smooth="yes"/>
      <point x="776" y="734"/>
      <point x="970" y="644"/>
      <point x="970" y="387" type="curve" smooth="yes"/>
      <point x="970" y="174"/>
      <point x="784" y="50"/>
      <point x="589" y="37" type="curve" smooth="yes"/>
      <point x="576" y="36" type="line"/>
      <point x="576" y="-122" type="line"/>
      <point x="454" y="-122" type="line"/>
      <point x="454" y="25" type="line"/>
      <point x="442" y="26" type="line" smooth="yes"/>
      <point x="315" y="39"/>
      <point x="198" y="72"/>
      <point x="109" y="124" type="curve"/>
      <point x="187" y="313" type="line"/>
      <point x="275" y="284"/>
      <point x="350" y="262"/>
      <point x="440" y="258" type="curve" smooth="yes"/>
      <point x="454" y="257" type="line"/>
      <point x="454" y="569" type="line"/>
      <point x="444" y="571" type="line" smooth="yes"/>
      <point x="243" y="625"/>
      <point x="87" y="711"/>
      <point x="82" y="965" type="curve"/>
      <point x="82" y="1216"/>
      <point x="229" y="1319"/>
      <point x="442" y="1349" type="curve" smooth="yes"/>
      <point x="454" y="1350" type="line"/>
      <point x="454" y="1512" type="line"/>
      <point x="576" y="1512" type="line"/>
      <point x="576" y="1355" type="line"/>
      <point x="588" y="1354" type="line" smooth="yes"/>
      <point x="689" y="1344"/>
      <point x="785" y="1313"/>
      <point x="885" y="1255" type="curve"/>
      <point x="806" y="1077" type="line"/>
      <point x="733" y="1101"/>
      <point x="669" y="1125"/>
      <point x="592" y="1138" type="curve" smooth="yes"/>
      <point x="576" y="1140" type="line"/>
      <point x="576" y="810" type="line"/>
    </contour>
    <contour>
      <point x="454" y="843" type="line"/>
      <point x="454" y="1133" type="line"/>
      <point x="416" y="1111" type="line" smooth="yes"/>
      <point x="379" y="1090"/>
      <point x="334" y="1059"/>
      <point x="334" y="986" type="curve" smooth="yes"/>
      <point x="334" y="911"/>
      <point x="373" y="880"/>
      <point x="418" y="859" type="curve" smooth="yes"/>
    </contour>
    <contour>
      <point x="576" y="521" type="line"/>
      <point x="576" y="264" type="line"/>
      <point x="612" y="279" type="line" smooth="yes"/>
      <point x="651" y="296"/>
      <point x="706" y="320"/>
      <point x="706" y="398" type="curve" smooth="yes"/>
      <point x="706" y="476"/>
      <point x="634" y="502"/>
      <point x="593" y="515" type="curve" smooth="yes"/>
    </contour>
  </outline>
</glyph>
<glyph name="percent" format="1">
  <advance width="1664"/>
  <unicode hex="0025"/>
  <outline>
    <contour>
      <point x="728" y="56" type="line"/>
      <point x="659" y="56" type="line"/>
      <point x="952" y="1320" type="line"/>
      <point x="1024" y="1320" type="line"/>
    </contour>
    <contour>
      <point x="981" y="381" type="curve" smooth="yes"/>
      <point x="981" y="591"/>
      <point x="1101" y="738"/>
      <point x="1293" y="738" type="curve" smooth="yes"/>
      <point x="1491" y="738"/>
      <point x="1616" y="588"/>
      <point x="1616" y="381" type="curve" smooth="yes"/>
      <point x="1616" y="171"/>
      <point x="1492" y="26"/>
      <point x="1293" y="26" type="curve" smooth="yes"/>
      <point x="1096" y="26"/>
      <point x="981" y="168"/>
    </contour>
    <contour>
      <point x="1430" y="381" type="curve" smooth="yes"/>
      <point x="1430" y="465"/>
      <point x="1401" y="596"/>
      <point x="1293" y="596" type="curve" smooth="yes"/>
      <point x="1183" y="596"/>
      <point x="1158" y="467"/>
      <point x="1158" y="381" type="curve" smooth="yes"/>
      <point x="1158" y="295"/>
      <point x="1183" y="164"/>
      <point x="1293" y="164" type="curve" smooth="yes"/>
      <point x="1403" y="164"/>
      <point x="1430" y="297"/>
    </contour>
    <contour>
      <point x="82" y="1001" type="curve" smooth="yes"/>
      <point x="82" y="1213"/>
      <point x="207" y="1356"/>
      <point x="408" y="1356" type="curve" smooth="yes"/>
      <point x="600" y="1356"/>
      <point x="717" y="1207"/>
      <point x="717" y="1001" type="curve" smooth="yes"/>
      <point x="717" y="789"/>
      <point x="598" y="646"/>
      <point x="403" y="646" type="curve" smooth="yes"/>
      <point x="201" y="646"/>
      <point x="82" y="790"/>
    </contour>
    <contour>
      <point x="540" y="1001" type="curve" smooth="yes"/>
      <point x="540" y="1087"/>
      <point x="511" y="1216"/>
      <point x="403" y="1216" type="curve" smooth="yes"/>
      <point x="291" y="1216"/>
      <point x="268" y="1086"/>
      <point x="268" y="1001" type="curve" smooth="yes"/>
      <point x="268" y="917"/>
      <point x="294" y="782"/>
      <point x="403" y="782" type="curve" smooth="yes"/>
      <point x="514" y="782"/>
      <point x="540" y="915"/>
    </contour>
  </outline>
</glyph>
<glyph name="ampersand" format="1">
  <advance width="1230"/>
  <unicode hex="0026"/>
  <outline>
    <contour>
      <point x="367" y="748" type="line"/>
      <point x="355" y="762" type="line" smooth="yes"/>
      <point x="270" y="861"/>
      <point x="217" y="956"/>
      <point x="217" y="1041" type="curve" smooth="yes"/>
      <point x="217" y="1241"/>
      <point x="408" y="1356"/>
      <point x="611" y="1356" type="curve" smooth="yes"/>
      <point x="810" y="1356"/>
      <point x="955" y="1249"/>
      <point x="955" y="1045" type="curve" smooth="yes"/>
      <point x="955" y="867"/>
      <point x="842" y="769"/>
      <point x="718" y="711" type="curve" smooth="yes"/>
      <point x="702" y="703" type="line"/>
      <point x="713" y="689" type="line" smooth="yes"/>
      <point x="757" y="631"/>
      <point x="808" y="558"/>
      <point x="857" y="500" type="curve" smooth="yes"/>
      <point x="867" y="488" type="line"/>
      <point x="1016" y="657" type="line"/>
      <point x="1157" y="507" type="line"/>
      <point x="1110" y="421"/>
      <point x="1059" y="360"/>
      <point x="997" y="307" type="curve" smooth="yes"/>
      <point x="986" y="297" type="line"/>
      <point x="1196" y="56" type="line"/>
      <point x="885" y="56" type="line"/>
      <point x="797" y="167" type="line"/>
      <point x="787" y="158" type="line" smooth="yes"/>
      <point x="711" y="91"/>
      <point x="609" y="26"/>
      <point x="485" y="26" type="curve" smooth="yes"/>
      <point x="248" y="26"/>
      <point x="80" y="153"/>
      <point x="80" y="396" type="curve" smooth="yes"/>
      <point x="80" y="599"/>
      <point x="205" y="668"/>
      <point x="351" y="739" type="curve" smooth="yes"/>
    </contour>
    <contour>
      <point x="470" y="572" type="line"/>
      <point x="459" y="566" type="line" smooth="yes"/>
      <point x="403" y="532"/>
      <point x="367" y="483"/>
      <point x="367" y="410" type="curve" smooth="yes"/>
      <point x="367" y="325"/>
      <point x="418" y="258"/>
      <point x="501" y="258" type="curve" smooth="yes"/>
      <point x="562" y="258"/>
      <point x="605" y="281"/>
      <point x="639" y="318" type="curve" smooth="yes"/>
      <point x="647" y="327" type="line"/>
    </contour>
    <contour>
      <point x="603" y="864" type="line"/>
      <point x="611" y="868" type="line" smooth="yes"/>
      <point x="672" y="897"/>
      <point x="725" y="936"/>
      <point x="725" y="1038" type="curve" smooth="yes"/>
      <point x="725" y="1109"/>
      <point x="679" y="1157"/>
      <point x="613" y="1157" type="curve" smooth="yes"/>
      <point x="540" y="1157"/>
      <point x="492" y="1114"/>
      <point x="492" y="1038" type="curve" smooth="yes"/>
      <point x="492" y="952"/>
      <point x="556" y="905"/>
      <point x="597" y="870" type="curve" smooth="yes"/>
    </contour>
  </outline>
</glyph>
<glyph name="quotesingle" format="1">
  <advance width="339"/>
  <unicode hex="0027"/>
  <outline>
    <contour>
      <point x="236" y="1065" type="line"/>
      <point x="100" y="1065" type="line"/>
      <point x="65" y="1495" type="line"/>
      <point x="285" y="1495" type="line"/>
    </contour>
  </outline>
</glyph>
<glyph name="parenleft" format="1">
  <advance width="720"/>
  <unicode hex="0028"/>
  <outline>
    <contour>
      <point x="676" y="1333" type="line"/>
      <point x="432" y="1270"/>
      <point x="393" y="952"/>
      <point x="393" y="668" type="curve" smooth="yes"/>
      <point x="393" y="377"/>
      <point x="428" y="50"/>
      <point x="676" y="-15" type="curve"/>
      <point x="676" y="-209" type="line"/>
      <point x="294" y="-154"/>
      <point x="54" y="169"/>
      <point x="54" y="668" type="curve" smooth="yes"/>
      <point x="54" y="1169"/>
      <point x="298" y="1469"/>
      <point x="676" y="1527" type="curve"/>
    </contour>
  </outline>
</glyph>
<glyph name="parenright" format="1">
  <advance width="720"/>
  <unicode hex="0029"/>
  <outline>
    <contour>
      <point x="59" y="1333" type="curve"/>
      <point x="59" y="1527" type="line"/>
      <point x="438" y="1467"/>
      <point x="681" y="1164"/>
      <point x="681" y="668" type="curve" smooth="yes"/>
      <point x="681" y="166"/>
      <point x="439" y="-153"/>
      <point x="59" y="-209" type="curve"/>
      <point x="59" y="-15" type="line"/>
      <point x="306" y="48"/>
      <point x="342" y="381"/>
      <point x="342" y="668" type="curve" smooth="yes"/>
      <point x="342" y="950"/>
      <point x="303" y="1273"/>
    </contour>
  </outline>
</glyph>
<glyph name="asterisk" format="1">
  <advance width="956"/>
  <unicode hex="002A"/>
  <outline>
    <contour>
      <point x="310" y="536" type="line"/>
      <point x="163" y="655" type="line"/>
      <point x="384" y="896" type="line"/>
      <point x="82" y="1033" type="line"/>
      <point x="159" y="1187" type="line"/>
      <point x="426" y="1015" type="line"/>
      <point x="407" y="1361" type="line"/>
      <point x="556" y="1361" type="line"/>
      <point x="533" y="1016" type="line"/>
      <point x="793" y="1191" type="line"/>
      <point x="876" y="1033" type="line"/>
      <point x="571" y="897" type="line"/>
      <point x="791" y="654" type="line"/>
      <point x="642" y="535" type="line"/>
      <point x="475" y="831" type="line"/>
    </contour>
  </outline>
</glyph>
<glyph name="plus" format="1">
  <advance width="981"/>
  <unicode hex="002B"/>
  <outline>
    <contour>
      <point x="512" y="49" type="line"/>
      <point x="464" y="49" type="line"/>
      <point x="464" y="489" type="line"/>
      <point x="66" y="489" type="line"/>
      <point x="66" y="541" type="line"/>
      <point x="448" y="541" type="line"/>
      <point x="448" y="977" type="line"/>
      <point x="500" y="977" type="line"/>
      <point x="500" y="541" type="line"/>
      <point x="936" y="541" type="line"/>
      <point x="907" y="489" type="line"/>
      <point x="512" y="489" type="line"/>
    </contour>
  </outline>
</glyph>
<glyph name="comma" format="1">
  <advance width="533"/>
  <unicode hex="002C"/>
  <outline>
    <contour>
      <point x="223" y="-295" type="curve" smooth="yes"/>
      <point x="189" y="-299"/>
      <point x="146" y="-301"/>
      <point x="101" y="-302" type="curve"/>
      <point x="101" y="-130" type="line"/>
      <point x="121" y="-131"/>
      <point x="138" y="-132"/>
      <point x="158" y="-132" type="curve" smooth="yes"/>
      <point x="252" y="-132"/>
      <point x="284" y="-90"/>
      <point x="284" y="1" type="curve" smooth="yes"/>
      <point x="284" y="30" type="line"/>
      <point x="101" y="30" type="line"/>
      <point x="101" y="339" type="line"/>
      <point x="446" y="339" type="line"/>
      <point x="443" y="168" type="line" smooth="yes"/>
      <point x="438" y="-104"/>
      <point x="439" y="-269"/>
    </contour>
  </outline>
</glyph>
<glyph name="hyphen" format="1">
  <advance width="666"/>
  <unicode hex="002D"/>
  <outline>
    <contour>
      <point x="575" y="442" type="line"/>
      <point x="105" y="442" type="line"/>
      <point x="105" y="616" type="line"/>
      <point x="575" y="616" type="line"/>
    </contour>
  </outline>
</glyph>
<glyph name="period" format="1">
  <advance width="503"/>
  <unicode hex="002E"/>
  <outline>
    <contour>
      <point x="258" y="345" type="curve" smooth="yes"/>
      <point x="363" y="345"/>
      <point x="450" y="273"/>
      <point x="450" y="176" type="curve" smooth="yes"/>
      <point x="450" y="75"/>
      <point x="366" y="5"/>
      <point x="258" y="5" type="curve" smooth="yes"/>
      <point x="148" y="5"/>
      <point x="66" y="74"/>
      <point x="66" y="176" type="curve" smooth="yes"/>
      <point x="66" y="275"/>
      <point x="152" y="345"/>
    </contour>
  </outline>
</glyph>
<glyph name="slash" format="1">
  <advance width="585"/>
  <unicode hex="002F"/>
  <outline>
    <contour>
      <point x="69" y="43" type="line"/>
      <point x="378" y="1365" type="line"/>
      <point x="515" y="1365" type="line"/>
      <point x="202" y="43" type="line"/>
    </contour>
  </outline>
</glyph>
<glyph name="zero" format="1">
  <advance width="1274"/>
  <unicode hex="0030"/>
  <outline>
    <contour>
      <point x="91" y="692" type="curve" smooth="yes"/>
      <point x="91" y="1003"/>
      <point x="241" y="1210"/>
      <point x="446" y="1298" type="curve" smooth="yes"/>
      <point x="511" y="1327"/>
      <point x="579" y="1342"/>
      <point x="650" y="1342" type="curve" smooth="yes"/>
      <point x="967" y="1342"/>
      <point x="1209" y="1053"/>
      <point x="1209" y="692" type="curve" smooth="yes"/>
      <point x="1209" y="329"/>
      <point x="971" y="40"/>
      <point x="650" y="40" type="curve" smooth="yes"/>
      <point x="308" y="40"/>
      <point x="91" y="316"/>
    </contour>
    <contour>
      <point x="650" y="309" type="curve" smooth="yes"/>
      <point x="820" y="309"/>
      <point x="870" y="533"/>
      <point x="870" y="692" type="curve" smooth="yes"/>
      <point x="870" y="852"/>
      <point x="823" y="1073"/>
      <point x="650" y="1073" type="curve" smooth="yes"/>
      <point x="473" y="1073"/>
      <point x="428" y="852"/>
      <point x="428" y="692" type="curve" smooth="yes"/>
      <point x="428" y="532"/>
      <point x="476" y="309"/>
    </contour>
  </outline>
</glyph>
<glyph name="one" format="1">
  <advance width="790"/>
  <unicode hex="0031"/>
  <outline>
    <contour>
      <point x="266" y="1002" type="line"/>
      <point x="101" y="990" type="line"/>
      <point x="101" y="1187" type="line"/>
      <point x="242" y="1194"/>
      <point x="359" y="1251"/>
      <point x="432" y="1315" type="curve"/>
      <point x="574" y="1315" type="line"/>
      <point x="574" y="289" type="line"/>
      <point x="739" y="289" type="line"/>
      <point x="739" y="56" type="line"/>
      <point x="101" y="56" type="line"/>
      <point x="101" y="289" type="line"/>
      <point x="266" y="289" type="line"/>
    </contour>
  </outline>
</glyph>
<glyph name="two" format="1">
  <advance width="920"/>
  <unicode hex="0032"/>
  <outline>
    <contour>
      <point x="87" y="292" type="line"/>
      <point x="246" y="442"/>
      <point x="395" y="602"/>
      <point x="480" y="797" type="curve" smooth="yes"/>
      <point x="500" y="843"/>
      <point x="510" y="883"/>
      <point x="510" y="920" type="curve" smooth="yes"/>
      <point x="510" y="1020"/>
      <point x="450" y="1058"/>
      <point x="386" y="1058" type="curve" smooth="yes"/>
      <point x="312" y="1058"/>
      <point x="209" y="1017"/>
      <point x="152" y="993" type="curve"/>
      <point x="72" y="1230" type="line"/>
      <point x="204" y="1283"/>
      <point x="328" y="1328"/>
      <point x="474" y="1328" type="curve" smooth="yes"/>
      <point x="692" y="1328"/>
      <point x="838" y="1166"/>
      <point x="838" y="922" type="curve" smooth="yes"/>
      <point x="838" y="713"/>
      <point x="696" y="575"/>
      <point x="572" y="472" type="curve"/>
      <point x="519" y="423"/>
      <point x="464" y="381"/>
      <point x="405" y="338" type="curve" smooth="yes"/>
      <point x="332" y="285" type="line"/>
      <point x="797" y="285" type="line"/>
      <point x="797" y="56" type="line"/>
      <point x="87" y="56" type="line"/>
    </contour>
  </outline>
</glyph>
<glyph name="three" format="1">
  <advance width="931"/>
  <unicode hex="0033"/>
  <outline>
    <contour>
      <point x="231" y="613" type="curve"/>
      <point x="231" y="799" type="line"/>
      <point x="359" y="801"/>
      <point x="537" y="819"/>
      <point x="537" y="962" type="curve" smooth="yes"/>
      <point x="537" y="1058"/>
      <point x="474" y="1081"/>
      <point x="405" y="1081" type="curve" smooth="yes"/>
      <point x="338" y="1081"/>
      <point x="244" y="1064"/>
      <point x="130" y="1031" type="curve"/>
      <point x="76" y="1236" type="line"/>
      <point x="217" y="1299"/>
      <point x="345" y="1329"/>
      <point x="459" y="1329" type="curve" smooth="yes"/>
      <point x="625" y="1329"/>
      <point x="803" y="1228"/>
      <point x="803" y="1056" type="curve" smooth="yes"/>
      <point x="803" y="932"/>
      <point x="748" y="836"/>
      <point x="630" y="760" type="curve"/>
      <point x="591" y="731" type="line"/>
      <point x="634" y="709" type="line"/>
      <point x="766" y="653"/>
      <point x="862" y="553"/>
      <point x="862" y="379" type="curve" smooth="yes"/>
      <point x="862" y="149"/>
      <point x="659" y="35"/>
      <point x="441" y="35" type="curve" smooth="yes"/>
      <point x="345" y="35"/>
      <point x="219" y="57"/>
      <point x="76" y="102" type="curve"/>
      <point x="130" y="332" type="line"/>
      <point x="227" y="296"/>
      <point x="313" y="279"/>
      <point x="387" y="279" type="curve" smooth="yes"/>
      <point x="470" y="279"/>
      <point x="547" y="307"/>
      <point x="547" y="420" type="curve" smooth="yes"/>
      <point x="547" y="599"/>
      <point x="365" y="612"/>
    </contour>
  </outline>
</glyph>
<glyph name="four" format="1">
  <advance width="1155"/>
  <unicode hex="0034"/>
  <outline>
    <contour>
      <point x="575" y="56" type="line"/>
      <point x="575" y="376" type="line"/>
      <point x="58" y="376" type="line"/>
      <point x="58" y="613" type="line"/>
      <point x="543" y="1315" type="line"/>
      <point x="906" y="1315" type="line"/>
      <point x="906" y="591" type="line"/>
      <point x="1094" y="591" type="line"/>
      <point x="1094" y="374" type="line"/>
      <point x="906" y="374" type="line"/>
      <point x="906" y="56" type="line"/>
    </contour>
    <contour>
      <point x="575" y="591" type="line"/>
      <point x="575" y="1107" type="line"/>
      <point x="265" y="591" type="line"/>
    </contour>
  </outline>
</glyph>
<glyph name="five" format="1">
  <advance width="957"/>
  <unicode hex="0035"/>
  <outline>
    <contour>
      <point x="369" y="830" type="line" smooth="yes"/>
      <point x="428" y="850"/>
      <point x="478" y="875"/>
      <point x="545" y="875" type="curve" smooth="yes"/>
      <point x="741" y="875"/>
      <point x="902" y="715"/>
      <point x="902" y="461" type="curve" smooth="yes"/>
      <point x="902" y="202"/>
      <point x="688" y="30"/>
      <point x="438" y="30" type="curve" smooth="yes"/>
      <point x="353" y="30"/>
      <point x="238" y="55"/>
      <point x="113" y="104" type="curve"/>
      <point x="133" y="325" type="line"/>
      <point x="242" y="290"/>
      <point x="344" y="274"/>
      <point x="433" y="274" type="curve" smooth="yes"/>
      <point x="529" y="274"/>
      <point x="587" y="356"/>
      <point x="587" y="462" type="curve" smooth="yes"/>
      <point x="587" y="554"/>
      <point x="541" y="636"/>
      <point x="453" y="636" type="curve" smooth="yes"/>
      <point x="404" y="636"/>
      <point x="348" y="609"/>
      <point x="277" y="561" type="curve"/>
      <point x="105" y="636" type="line"/>
      <point x="152" y="1314" type="line"/>
      <point x="794" y="1314" type="line"/>
      <point x="772" y="1090" type="line"/>
      <point x="359" y="1090" type="line"/>
      <point x="331" y="817" type="line"/>
    </contour>
  </outline>
</glyph>
<glyph name="six" format="1">
  <advance width="1139"/>
  <unicode hex="0036"/>
  <outline>
    <contour>
      <point x="632" y="1334" type="curve" smooth="yes"/>
      <point x="788" y="1334"/>
      <point x="899" y="1282"/>
      <point x="1013" y="1218" type="curve"/>
      <point x="938" y="1012" type="line"/>
      <point x="857" y="1046"/>
      <point x="769" y="1086"/>
      <point x="672" y="1086" type="curve" smooth="yes"/>
      <point x="470" y="1086"/>
      <point x="433" y="887"/>
      <point x="411" y="717" type="curve" smooth="yes"/>
      <point x="401" y="634" type="line"/>
      <point x="456" y="692" type="line" smooth="yes"/>
      <point x="523" y="763"/>
      <point x="586" y="821"/>
      <point x="699" y="823" type="curve"/>
      <point x="929" y="823"/>
      <point x="1079" y="695"/>
      <point x="1079" y="453" type="curve" smooth="yes"/>
      <point x="1079" y="216"/>
      <point x="844" y="42"/>
      <point x="617" y="42" type="curve" smooth="yes"/>
      <point x="289" y="42"/>
      <point x="91" y="280"/>
      <point x="91" y="649" type="curve" smooth="yes"/>
      <point x="91" y="1030"/>
      <point x="303" y="1334"/>
    </contour>
    <contour>
      <point x="416" y="577" type="line"/>
      <point x="417" y="566" type="line" smooth="yes"/>
      <point x="431" y="454"/>
      <point x="446" y="267"/>
      <point x="597" y="267" type="curve" smooth="yes"/>
      <point x="698" y="267"/>
      <point x="781" y="336"/>
      <point x="781" y="453" type="curve" smooth="yes"/>
      <point x="781" y="560"/>
      <point x="706" y="624"/>
      <point x="614" y="624" type="curve" smooth="yes"/>
      <point x="537" y="624"/>
      <point x="478" y="606"/>
      <point x="425" y="581" type="curve" smooth="yes"/>
    </contour>
  </outline>
</glyph>
<glyph name="seven" format="1">
  <advance width="818"/>
  <unicode hex="0037"/>
  <outline>
    <contour>
      <point x="406" y="32" type="line"/>
      <point x="120" y="160" type="line"/>
      <point x="466" y="1086" type="line"/>
      <point x="69" y="1086" type="line"/>
      <point x="69" y="1314" type="line"/>
      <point x="777" y="1314" type="line"/>
      <point x="777" y="1024" type="line"/>
    </contour>
  </outline>
</glyph>
<glyph name="eight" format="1">
  <advance width="1140"/>
  <unicode hex="0038"/>
  <outline>
    <contour>
      <point x="834" y="768" type="line"/>
      <point x="967" y="701"/>
      <point x="1080" y="608"/>
      <point x="1080" y="417" type="curve" smooth="yes"/>
      <point x="1080" y="140"/>
      <point x="851" y="30"/>
      <point x="583" y="30" type="curve" smooth="yes"/>
      <point x="322" y="30"/>
      <point x="82" y="134"/>
      <point x="82" y="396" type="curve" smooth="yes"/>
      <point x="82" y="558"/>
      <point x="181" y="620"/>
      <point x="306" y="670" type="curve" smooth="yes"/>
      <point x="307" y="670" type="line"/>
      <point x="348" y="696" type="line"/>
      <point x="319" y="722" type="line"/>
      <point x="227" y="799"/>
      <point x="180" y="891"/>
      <point x="180" y="1018" type="curve" smooth="yes"/>
      <point x="180" y="1229"/>
      <point x="369" y="1332"/>
      <point x="581" y="1332" type="curve" smooth="yes"/>
      <point x="783" y="1332"/>
      <point x="980" y="1250"/>
      <point x="980" y="1056" type="curve" smooth="yes"/>
      <point x="980" y="927"/>
      <point x="920" y="863"/>
      <point x="834" y="819" type="curve"/>
      <point x="787" y="793" type="line"/>
    </contour>
    <contour>
      <point x="483" y="611" type="line"/>
      <point x="477" y="605" type="line" smooth="yes"/>
      <point x="436" y="560"/>
      <point x="407" y="504"/>
      <point x="407" y="417" type="curve" smooth="yes"/>
      <point x="407" y="304"/>
      <point x="489" y="245"/>
      <point x="584" y="245" type="curve" smooth="yes"/>
      <point x="656" y="245"/>
      <point x="762" y="270"/>
      <point x="762" y="377" type="curve" smooth="yes"/>
      <point x="762" y="502"/>
      <point x="636" y="545"/>
      <point x="574" y="571" type="curve"/>
      <point x="548" y="583"/>
      <point x="520" y="598"/>
      <point x="492" y="608" type="curve" smooth="yes"/>
    </contour>
    <contour>
      <point x="666" y="831" type="line"/>
      <point x="672" y="838" type="line" smooth="yes"/>
      <point x="712" y="883"/>
      <point x="740" y="935"/>
      <point x="740" y="1006" type="curve" smooth="yes"/>
      <point x="740" y="1111"/>
      <point x="678" y="1176"/>
      <point x="583" y="1176" type="curve" smooth="yes"/>
      <point x="509" y="1176"/>
      <point x="420" y="1150"/>
      <point x="420" y="1045" type="curve" smooth="yes"/>
      <point x="420" y="904"/>
      <point x="582" y="862"/>
      <point x="658" y="834" type="curve" smooth="yes"/>
    </contour>
  </outline>
</glyph>
<glyph name="nine" format="1">
  <advance width="1118"/>
  <unicode hex="0039"/>
  <outline>
    <contour>
      <point x="743" y="722" type="line"/>
      <point x="698" y="677" type="line" smooth="yes"/>
      <point x="631" y="612"/>
      <point x="586" y="561"/>
      <point x="472" y="561" type="curve" smooth="yes"/>
      <point x="240" y="561"/>
      <point x="82" y="685"/>
      <point x="82" y="927" type="curve" smooth="yes"/>
      <point x="82" y="1186"/>
      <point x="308" y="1331"/>
      <point x="554" y="1331" type="curve" smooth="yes"/>
      <point x="877" y="1331"/>
      <point x="1051" y="1053"/>
      <point x="1051" y="691" type="curve" smooth="yes"/>
      <point x="1051" y="324"/>
      <point x="839" y="49"/>
      <point x="522" y="49" type="curve" smooth="yes"/>
      <point x="372" y="49"/>
      <point x="262" y="102"/>
      <point x="150" y="164" type="curve"/>
      <point x="220" y="360" type="line"/>
      <point x="299" y="326"/>
      <point x="380" y="289"/>
      <point x="481" y="289" type="curve" smooth="yes"/>
      <point x="654" y="289"/>
      <point x="741" y="432"/>
      <point x="743" y="656" type="curve" smooth="yes"/>
    </contour>
    <contour>
      <point x="736" y="776" type="line"/>
      <point x="735" y="787" type="line" smooth="yes"/>
      <point x="723" y="923"/>
      <point x="703" y="1116"/>
      <point x="554" y="1116" type="curve" smooth="yes"/>
      <point x="451" y="1116"/>
      <point x="369" y="1047"/>
      <point x="369" y="927" type="curve" smooth="yes"/>
      <point x="369" y="806"/>
      <point x="443" y="730"/>
      <point x="552" y="730" type="curve" smooth="yes"/>
      <point x="623" y="730"/>
      <point x="676" y="752"/>
      <point x="726" y="772" type="curve" smooth="yes"/>
    </contour>
  </outline>
</glyph>
<glyph name="colon" format="1">
  <advance width="562"/>
  <unicode hex="003A"/>
  <outline>
    <contour>
      <point x="291" y="54" type="curve" smooth="yes"/>
      <point x="188" y="54"/>
      <point x="95" y="112"/>
      <point x="95" y="218" type="curve" smooth="yes"/>
      <point x="95" y="318"/>
      <point x="181" y="389"/>
      <point x="289" y="389" type="curve" smooth="yes"/>
      <point x="394" y="389"/>
      <point x="479" y="316"/>
      <point x="479" y="218" type="curve" smooth="yes"/>
      <point x="479" y="108"/>
      <point x="390" y="54"/>
    </contour>
    <contour>
      <point x="289" y="979" type="curve" smooth="yes"/>
      <point x="394" y="979"/>
      <point x="479" y="906"/>
      <point x="479" y="808" type="curve" smooth="yes"/>
      <point x="479" y="708"/>
      <point x="396" y="639"/>
      <point x="289" y="639" type="curve" smooth="yes"/>
      <point x="179" y="639"/>
      <point x="95" y="707"/>
      <point x="95" y="808" type="curve" smooth="yes"/>
      <point x="95" y="908"/>
      <point x="181" y="979"/>
    </contour>
  </outline>
</glyph>
<glyph name="semicolon" format="1">
  <advance width="541"/>
  <unicode hex="003B"/>
  <outline>
    <contour>
      <point x="339" y="-255" type="curve" smooth="yes"/>
      <point x="285" y="-282"/>
      <point x="205" y="-289"/>
      <point x="111" y="-290" type="curve"/>
      <point x="111" y="-118" type="line"/>
      <point x="131" y="-119"/>
      <point x="148" y="-119"/>
      <point x="167" y="-119" type="curve" smooth="yes"/>
      <point x="261" y="-119"/>
      <point x="295" y="-79"/>
      <point x="295" y="14" type="curve" smooth="yes"/>
      <point x="295" y="42" type="line"/>
      <point x="111" y="42" type="line"/>
      <point x="111" y="352" type="line"/>
      <point x="456" y="352" type="line"/>
      <point x="454" y="259" type="line"/>
      <point x="451" y="30"/>
      <point x="463" y="-192"/>
    </contour>
    <contour>
      <point x="280" y="972" type="curve" smooth="yes"/>
      <point x="385" y="972"/>
      <point x="470" y="899"/>
      <point x="470" y="801" type="curve" smooth="yes"/>
      <point x="470" y="701"/>
      <point x="387" y="632"/>
      <point x="280" y="632" type="curve" smooth="yes"/>
      <point x="170" y="632"/>
      <point x="86" y="699"/>
      <point x="86" y="801" type="curve" smooth="yes"/>
      <point x="86" y="901"/>
      <point x="173" y="972"/>
    </contour>
  </outline>
</glyph>
<glyph name="less" format="1">
  <advance width="800"/>
  <unicode hex="003C"/>
  <outline>
    <contour>
      <point x="68" y="479" type="line"/>
      <point x="68" y="780" type="line"/>
      <point x="702" y="1171" type="line"/>
      <point x="702" y="942" type="line"/>
      <point x="140" y="619" type="line"/>
      <point x="702" y="312" type="line"/>
      <point x="702" y="63" type="line"/>
    </contour>
  </outline>
</glyph>
<glyph name="equal" format="1">
  <advance width="762"/>
  <unicode hex="003D"/>
  <outline>
    <contour>
      <point x="660" y="355" type="line"/>
      <point x="118" y="355" type="line"/>
      <point x="118" y="416" type="line"/>
      <point x="660" y="416" type="line"/>
    </contour>
    <contour>
      <point x="660" y="620" type="line"/>
      <point x="118" y="620" type="line"/>
      <point x="118" y="683" type="line"/>
      <point x="660" y="683" type="line"/>
    </contour>
  </outline>
</glyph>
<glyph name="greater" format="1">
  <advance width="802"/>
  <unicode hex="003E"/>
  <outline>
    <contour>
      <point x="116" y="63" type="line"/>
      <point x="116" y="312" type="line"/>
      <point x="678" y="619" type="line"/>
      <point x="116" y="942" type="line"/>
      <point x="116" y="1171" type="line"/>
      <point x="750" y="780" type="line"/>
      <point x="750" y="479" type="line"/>
    </contour>
  </outline>
</glyph>
<glyph name="question" format="1">
  <advance width="897"/>
  <unicode hex="003F"/>
  <outline>
    <contour>
      <point x="115" y="1067" type="curve"/>
      <point x="94" y="1305" type="line"/>
      <point x="226" y="1357"/>
      <point x="342" y="1382"/>
      <point x="437" y="1382" type="curve" smooth="yes"/>
      <point x="648" y="1382"/>
      <point x="848" y="1270"/>
      <point x="848" y="1044" type="curve" smooth="yes"/>
      <point x="848" y="817"/>
      <point x="649" y="785"/>
      <point x="501" y="688" type="curve" smooth="yes"/>
      <point x="459" y="659"/>
      <point x="441" y="624"/>
      <point x="440" y="556" type="curve"/>
      <point x="240" y="556" type="line"/>
      <point x="223" y="609" type="line"/>
      <point x="218" y="629"/>
      <point x="213" y="660"/>
      <point x="213" y="681" type="curve"/>
      <point x="215" y="859"/>
      <point x="360" y="856"/>
      <point x="469" y="956" type="curve" smooth="yes"/>
      <point x="484" y="970"/>
      <point x="497" y="989"/>
      <point x="497" y="1013" type="curve" smooth="yes"/>
      <point x="497" y="1087"/>
      <point x="425" y="1105"/>
      <point x="342" y="1105" type="curve" smooth="yes"/>
      <point x="258" y="1105"/>
      <point x="179" y="1092"/>
    </contour>
    <contour>
      <point x="348" y="366" type="curve" smooth="yes"/>
      <point x="435" y="366"/>
      <point x="508" y="295"/>
      <point x="508" y="197" type="curve" smooth="yes"/>
      <point x="508" y="95"/>
      <point x="437" y="26"/>
      <point x="348" y="26" type="curve" smooth="yes"/>
      <point x="242" y="26"/>
      <point x="159" y="94"/>
      <point x="159" y="197" type="curve" smooth="yes"/>
      <point x="159" y="296"/>
      <point x="246" y="366"/>
    </contour>
  </outline>
</glyph>
<glyph name="at" format="1">
  <advance width="1616"/>
  <unicode hex="0040"/>
  <outline>
    <contour>
      <point x="1139" y="615" type="line"/>
      <point x="1143" y="611" type="line" smooth="yes"/>
      <point x="1169" y="582"/>
      <point x="1199" y="559"/>
      <point x="1235" y="559" type="curve" smooth="yes"/>
      <point x="1363" y="559"/>
      <point x="1373" y="738"/>
      <point x="1373" y="831" type="curve" smooth="yes"/>
      <point x="1373" y="1132"/>
      <point x="1187" y="1284"/>
      <point x="848" y="1284" type="curve" smooth="yes"/>
      <point x="529" y="1284"/>
      <point x="284" y="1076"/>
      <point x="284" y="737" type="curve" smooth="yes"/>
      <point x="284" y="397"/>
      <point x="526" y="205"/>
      <point x="839" y="205" type="curve" smooth="yes"/>
      <point x="970" y="205"/>
      <point x="1092" y="233"/>
      <point x="1201" y="287" type="curve"/>
      <point x="1283" y="139" type="line"/>
      <point x="1161" y="69"/>
      <point x="1029" y="28"/>
      <point x="839" y="28" type="curve" smooth="yes"/>
      <point x="494" y="28"/>
      <point x="257" y="199"/>
      <point x="149" y="452" type="curve" smooth="yes"/>
      <point x="112" y="538"/>
      <point x="94" y="633"/>
      <point x="94" y="736" type="curve" smooth="yes"/>
      <point x="94" y="1079"/>
      <point x="291" y="1296"/>
      <point x="532" y="1398" type="curve" smooth="yes"/>
      <point x="623" y="1437"/>
      <point x="728" y="1456"/>
      <point x="846" y="1456" type="curve" smooth="yes"/>
      <point x="1261" y="1456"/>
      <point x="1565" y="1259"/>
      <point x="1565" y="835" type="curve" smooth="yes"/>
      <point x="1565" y="594"/>
      <point x="1476" y="420"/>
      <point x="1259" y="420" type="curve" smooth="yes"/>
      <point x="1134" y="420"/>
      <point x="1052" y="465"/>
      <point x="1001" y="552" type="curve" smooth="yes"/>
      <point x="975" y="595" type="line"/>
      <point x="953" y="550" type="line" smooth="yes"/>
      <point x="917" y="476"/>
      <point x="854" y="422"/>
      <point x="752" y="422" type="curve" smooth="yes"/>
      <point x="584" y="422"/>
      <point x="473" y="567"/>
      <point x="473" y="750" type="curve" smooth="yes"/>
      <point x="473" y="927"/>
      <point x="593" y="1067"/>
      <point x="754" y="1067" type="curve" smooth="yes"/>
      <point x="886" y="1067"/>
      <point x="1013" y="1062"/>
      <point x="1139" y="1051" type="curve"/>
    </contour>
    <contour>
      <point x="817" y="924" type="line" smooth="yes"/>
      <point x="720" y="924"/>
      <point x="663" y="838"/>
      <point x="663" y="745" type="curve" smooth="yes"/>
      <point x="663" y="652"/>
      <point x="729" y="584"/>
      <point x="817" y="584" type="curve" smooth="yes"/>
      <point x="900" y="584"/>
      <point x="968" y="650"/>
      <point x="968" y="739" type="curve" smooth="yes"/>
      <point x="968" y="924" type="line"/>
    </contour>
  </outline>
</glyph>
<glyph name="A" format="1">
  <advance width="1284"/>
  <unicode hex="0041"/>
  <outline>
    <contour>
      <point x="407" y="57" type="line"/>
      <point x="36" y="57" type="line"/>
      <point x="385" y="1351" type="line"/>
      <point x="900" y="1351" type="line"/>
      <point x="1265" y="57" type="line"/>
      <point x="877" y="57" type="line"/>
      <point x="829" y="316" type="line"/>
      <point x="459" y="316" type="line"/>
    </contour>
    <contour>
      <point x="644" y="1256" type="line"/>
      <point x="486" y="500" type="line"/>
      <point x="797" y="500" type="line"/>
    </contour>
  </outline>
</glyph>
<glyph name="B" format="1">
  <advance width="1330"/>
  <unicode hex="0042"/>
  <outline>
    <contour>
      <point x="1032" y="761" type="curve" smooth="yes"/>
      <point x="818" y="726" type="line"/>
      <point x="1034" y="704" type="line" smooth="yes"/>
      <point x="1194" y="689"/>
      <point x="1283" y="589"/>
      <point x="1283" y="408" type="curve" smooth="yes"/>
      <point x="1283" y="143"/>
      <point x="1025" y="-4"/>
      <point x="764" y="-4" type="curve" smooth="yes"/>
      <point x="634" y="-4"/>
      <point x="435" y="5"/>
      <point x="157" y="23" type="curve"/>
      <point x="157" y="1320" type="line"/>
      <point x="771" y="1320" type="line" smooth="yes"/>
      <point x="997" y="1320"/>
      <point x="1221" y="1233"/>
      <point x="1221" y="1021" type="curve" smooth="yes"/>
      <point x="1221" y="866"/>
      <point x="1157" y="780"/>
    </contour>
    <contour>
      <point x="523" y="255" type="line"/>
      <point x="536" y="255" type="line" smooth="yes"/>
      <point x="553" y="254"/>
      <point x="572" y="253"/>
      <point x="590" y="253" type="curve" smooth="yes"/>
      <point x="729" y="253" type="line" smooth="yes"/>
      <point x="831" y="253"/>
      <point x="920" y="322"/>
      <point x="920" y="449" type="curve" smooth="yes"/>
      <point x="920" y="594"/>
      <point x="819" y="656"/>
      <point x="706" y="656" type="curve" smooth="yes"/>
      <point x="523" y="656" type="line"/>
    </contour>
    <contour>
      <point x="525" y="1146" type="line"/>
      <point x="525" y="815" type="line"/>
      <point x="695" y="815" type="line" smooth="yes"/>
      <point x="787" y="815"/>
      <point x="885" y="864"/>
      <point x="885" y="979" type="curve" smooth="yes"/>
      <point x="885" y="1089"/>
      <point x="814" y="1146"/>
      <point x="699" y="1146" type="curve" smooth="yes"/>
    </contour>
  </outline>
</glyph>
<glyph name="C" format="1">
  <advance width="1094"/>
  <unicode hex="0043"/>
  <outline>
    <contour>
      <point x="997" y="1074" type="line"/>
      <point x="912" y="1103"/>
      <point x="838" y="1118"/>
      <point x="770" y="1118" type="curve" smooth="yes"/>
      <point x="559" y="1118"/>
      <point x="450" y="954"/>
      <point x="450" y="707" type="curve" smooth="yes"/>
      <point x="450" y="456"/>
      <point x="567" y="295"/>
      <point x="780" y="295" type="curve" smooth="yes"/>
      <point x="868" y="295"/>
      <point x="936" y="316"/>
      <point x="998" y="340" type="curve"/>
      <point x="1042" y="83" type="line"/>
      <point x="936" y="26"/>
      <point x="824" y="-3"/>
      <point x="713" y="-3" type="curve" smooth="yes"/>
      <point x="372" y="-3"/>
      <point x="86" y="306"/>
      <point x="83" y="705" type="curve"/>
      <point x="83" y="1124"/>
      <point x="346" y="1410"/>
      <point x="702" y="1410" type="curve" smooth="yes"/>
      <point x="818" y="1410"/>
      <point x="936" y="1380"/>
      <point x="1040" y="1325" type="curve"/>
    </contour>
  </outline>
</glyph>
<glyph name="D" format="1">
  <advance width="1417"/>
  <unicode hex="0044"/>
  <outline>
    <contour>
      <point x="694" y="57" type="curve" smooth="yes"/>
      <point x="159" y="57" type="line"/>
      <point x="159" y="1351" type="line"/>
      <point x="694" y="1351" type="line" smooth="yes"/>
      <point x="1075" y="1351"/>
      <point x="1355" y="1117"/>
      <point x="1355" y="714" type="curve" smooth="yes"/>
      <point x="1355" y="298"/>
      <point x="1082" y="57"/>
    </contour>
    <contour>
      <point x="524" y="353" type="line"/>
      <point x="694" y="353" type="line" smooth="yes"/>
      <point x="884" y="353"/>
      <point x="983" y="528"/>
      <point x="983" y="717" type="curve" smooth="yes"/>
      <point x="983" y="906"/>
      <point x="875" y="1055"/>
      <point x="694" y="1055" type="curve" smooth="yes"/>
      <point x="524" y="1055" type="line"/>
    </contour>
  </outline>
</glyph>
<glyph name="E" format="1">
  <advance width="1076"/>
  <unicode hex="0045"/>
  <outline>
    <contour>
      <point x="985" y="57" type="line"/>
      <point x="151" y="57" type="line"/>
      <point x="151" y="1351" type="line"/>
      <point x="985" y="1351" type="line"/>
      <point x="985" y="1111" type="line"/>
      <point x="544" y="1111" type="line"/>
      <point x="544" y="808" type="line"/>
      <point x="944" y="808" type="line"/>
      <point x="944" y="618" type="line"/>
      <point x="544" y="618" type="line"/>
      <point x="544" y="295" type="line"/>
      <point x="985" y="295" type="line"/>
    </contour>
  </outline>
</glyph>
<glyph name="F" format="1">
  <advance width="1028"/>
  <unicode hex="0046"/>
  <outline>
    <contour>
      <point x="496" y="57" type="line"/>
      <point x="151" y="57" type="line"/>
      <point x="151" y="1351" type="line"/>
      <point x="967" y="1351" type="line"/>
      <point x="967" y="1111" type="line"/>
      <point x="496" y="1111" type="line"/>
      <point x="496" y="781" type="line"/>
      <point x="929" y="781" type="line"/>
      <point x="929" y="589" type="line"/>
      <point x="496" y="589" type="line"/>
    </contour>
  </outline>
</glyph>
<glyph name="G" format="1">
  <advance width="1203"/>
  <unicode hex="0047"/>
  <outline>
    <contour>
      <point x="448" y="711" type="curve" smooth="yes"/>
      <point x="448" y="495"/>
      <point x="550" y="293"/>
      <point x="744" y="293" type="curve" smooth="yes"/>
      <point x="770" y="293"/>
      <point x="803" y="297"/>
      <point x="831" y="301" type="curve" smooth="yes"/>
      <point x="843" y="303" type="line"/>
      <point x="843" y="621" type="line"/>
      <point x="1119" y="653" type="line"/>
      <point x="1119" y="89" type="line"/>
      <point x="973" y="27"/>
      <point x="833" y="-3"/>
      <point x="695" y="-3" type="curve" smooth="yes"/>
      <point x="364" y="-3"/>
      <point x="83" y="328"/>
      <point x="83" y="716" type="curve" smooth="yes"/>
      <point x="83" y="1091"/>
      <point x="372" y="1411"/>
      <point x="694" y="1411" type="curve" smooth="yes"/>
      <point x="834" y="1411"/>
      <point x="968" y="1382"/>
      <point x="1092" y="1327" type="curve"/>
      <point x="982" y="1072" type="line"/>
      <point x="876" y="1105"/>
      <point x="803" y="1121"/>
      <point x="744" y="1121" type="curve" smooth="yes"/>
      <point x="549" y="1121"/>
      <point x="448" y="926"/>
    </contour>
  </outline>
</glyph>
<glyph name="H" format="1">
  <advance width="1475"/>
  <unicode hex="0048"/>
  <outline>
    <contour>
      <point x="531" y="57" type="line"/>
      <point x="159" y="57" type="line"/>
      <point x="159" y="1351" type="line"/>
      <point x="531" y="1351" type="line"/>
      <point x="531" y="813" type="line"/>
      <point x="973" y="813" type="line"/>
      <point x="973" y="1351" type="line"/>
      <point x="1347" y="1351" type="line"/>
      <point x="1347" y="57" type="line"/>
      <point x="973" y="57" type="line"/>
      <point x="973" y="587" type="line"/>
      <point x="531" y="587" type="line"/>
    </contour>
  </outline>
</glyph>
<glyph name="I" format="1">
  <advance width="666"/>
  <unicode hex="0049"/>
  <outline>
    <contour>
      <point x="142" y="43" type="line"/>
      <point x="142" y="1365" type="line"/>
      <point x="538" y="1365" type="line"/>
      <point x="538" y="43" type="line"/>
    </contour>
  </outline>
</glyph>
<glyph name="J" format="1">
  <advance width="795"/>
  <unicode hex="004A"/>
  <outline>
    <contour>
      <point x="336" y="1319" type="line"/>
      <point x="670" y="1319" type="line"/>
      <point x="670" y="392" type="line" smooth="yes"/>
      <point x="670" y="111"/>
      <point x="529" y="-63"/>
      <point x="298" y="-63" type="curve" smooth="yes"/>
      <point x="206" y="-63"/>
      <point x="105" y="-34"/>
      <point x="12" y="23" type="curve"/>
      <point x="86" y="220" type="line"/>
      <point x="130" y="207"/>
      <point x="169" y="200"/>
      <point x="203" y="200" type="curve" smooth="yes"/>
      <point x="295" y="200"/>
      <point x="336" y="276"/>
      <point x="336" y="392" type="curve" smooth="yes"/>
    </contour>
  </outline>
</glyph>
<glyph name="K" format="1">
  <advance width="1423"/>
  <unicode hex="004B"/>
  <outline>
    <contour>
      <point x="545" y="57" type="line"/>
      <point x="160" y="57" type="line"/>
      <point x="160" y="1351" type="line"/>
      <point x="545" y="1351" type="line"/>
      <point x="545" y="800" type="line"/>
      <point x="722" y="800" type="line"/>
      <point x="966" y="1351" type="line"/>
      <point x="1358" y="1351" type="line"/>
      <point x="1358" y="1299" type="line"/>
      <point x="1051" y="709" type="line"/>
      <point x="1402" y="109" type="line"/>
      <point x="1402" y="57" type="line"/>
      <point x="984" y="57" type="line"/>
      <point x="714" y="595" type="line"/>
      <point x="545" y="595" type="line"/>
    </contour>
  </outline>
</glyph>
<glyph name="L" format="1">
  <advance width="964"/>
  <unicode hex="004C"/>
  <outline>
    <contour>
      <point x="928" y="57" type="line"/>
      <point x="150" y="57" type="line"/>
      <point x="150" y="1351" type="line"/>
      <point x="495" y="1351" type="line"/>
      <point x="495" y="289" type="line"/>
      <point x="928" y="289" type="line"/>
    </contour>
  </outline>
</glyph>
<glyph name="M" format="1">
  <advance width="1662"/>
  <unicode hex="004D"/>
  <outline>
    <contour>
      <point x="506" y="57" type="line"/>
      <point x="163" y="57" type="line"/>
      <point x="163" y="1351" type="line"/>
      <point x="517" y="1351" type="line"/>
      <point x="852" y="659" type="line"/>
      <point x="1179" y="1351" type="line"/>
      <point x="1533" y="1351" type="line"/>
      <point x="1533" y="57" type="line"/>
      <point x="1190" y="57" type="line"/>
      <point x="1190" y="868" type="line"/>
      <point x="911" y="307" type="line"/>
      <point x="787" y="307" type="line"/>
      <point x="506" y="867" type="line"/>
    </contour>
  </outline>
</glyph>
<glyph name="N" format="1">
  <advance width="1456"/>
  <unicode hex="004E"/>
  <outline>
    <contour>
      <point x="158" y="43" type="line"/>
      <point x="158" y="1365" type="line"/>
      <point x="504" y="1365" type="line"/>
      <point x="1037" y="564" type="line"/>
      <point x="1037" y="1365" type="line"/>
      <point x="1328" y="1365" type="line"/>
      <point x="1328" y="43" type="line"/>
      <point x="985" y="43" type="line"/>
      <point x="447" y="819" type="line"/>
      <point x="447" y="43" type="line"/>
    </contour>
  </outline>
</glyph>
<glyph name="O" format="1">
  <advance width="1483"/>
  <unicode hex="004F"/>
  <outline>
    <contour>
      <point x="1422" y="702" type="curve" smooth="yes"/>
      <point x="1422" y="269"/>
      <point x="1147" y="-3"/>
      <point x="758" y="-3" type="curve" smooth="yes"/>
      <point x="363" y="-3"/>
      <point x="92" y="269"/>
      <point x="92" y="702" type="curve" smooth="yes"/>
      <point x="92" y="1121"/>
      <point x="378" y="1410"/>
      <point x="758" y="1410" type="curve" smooth="yes"/>
      <point x="1153" y="1410"/>
      <point x="1422" y="1137"/>
    </contour>
    <contour>
      <point x="756" y="1079" type="move" smooth="yes"/>
      <point x="555" y="1073"/>
      <point x="464" y="892"/>
      <point x="464" y="690" type="curve" smooth="yes"/>
      <point x="464" y="491"/>
      <point x="560" y="311"/>
      <point x="758" y="311" type="curve" smooth="yes"/>
      <point x="957" y="311"/>
      <point x="1050" y="495"/>
      <point x="1050" y="690" type="curve" smooth="yes"/>
      <point x="1050" y="854"/>
      <point x="989" y="996"/>
      <point x="867" y="1053" type="curve"/>
      <point x="1050" y="1058" type="line"/>
      <point x="1051" y="1058" type="line"/>
      <point x="1058" y="1059" type="line" smooth="yes"/>
    </contour>
  </outline>
</glyph>
<glyph name="P" format="1">
  <advance width="1187"/>
  <unicode hex="0050"/>
  <outline>
    <contour>
      <point x="155" y="57" type="line"/>
      <point x="155" y="1351" type="line"/>
      <point x="592" y="1351" type="line" smooth="yes"/>
      <point x="899" y="1351"/>
      <point x="1161" y="1242"/>
      <point x="1161" y="932" type="curve" smooth="yes"/>
      <point x="1161" y="647"/>
      <point x="887" y="520"/>
      <point x="609" y="520" type="curve" smooth="yes"/>
      <point x="508" y="520" type="line"/>
      <point x="508" y="57" type="line"/>
    </contour>
    <contour>
      <point x="508" y="742" type="line"/>
      <point x="520" y="741" type="line" smooth="yes"/>
      <point x="548" y="737"/>
      <point x="577" y="735"/>
      <point x="611" y="735" type="curve" smooth="yes"/>
      <point x="730" y="735"/>
      <point x="834" y="791"/>
      <point x="834" y="932" type="curve" smooth="yes"/>
      <point x="834" y="1071"/>
      <point x="723" y="1126"/>
      <point x="611" y="1126" type="curve" smooth="yes"/>
      <point x="508" y="1126" type="line"/>
    </contour>
  </outline>
</glyph>
<glyph name="Q" format="1">
  <advance width="1483"/>
  <unicode hex="0051"/>
  <outline>
    <contour>
      <point x="801" y="-3" type="line"/>
      <point x="796" y="-4" type="line" smooth="yes"/>
      <point x="784" y="-7"/>
      <point x="771" y="-8"/>
      <point x="756" y="-8" type="curve" smooth="yes"/>
      <point x="365" y="-8"/>
      <point x="90" y="267"/>
      <point x="90" y="700" type="curve" smooth="yes"/>
      <point x="90" y="1112"/>
      <point x="382" y="1404"/>
      <point x="756" y="1404" type="curve" smooth="yes"/>
      <point x="1151" y="1404"/>
      <point x="1422" y="1132"/>
      <point x="1422" y="701" type="curve" smooth="yes"/>
      <point x="1422" y="429"/>
      <point x="1310" y="257"/>
      <point x="1167" y="129" type="curve" smooth="yes"/>
      <point x="1154" y="117" type="line"/>
      <point x="1422" y="-67" type="line"/>
      <point x="1422" y="-111" type="line"/>
      <point x="1202" y="-284" type="line"/>
    </contour>
    <contour>
      <point x="1048" y="700" type="curve" smooth="yes"/>
      <point x="1048" y="914"/>
      <point x="956" y="1112"/>
      <point x="756" y="1112" type="curve" smooth="yes"/>
      <point x="554" y="1112"/>
      <point x="464" y="911"/>
      <point x="464" y="700" type="curve" smooth="yes"/>
      <point x="464" y="490"/>
      <point x="560" y="289"/>
      <point x="756" y="289" type="curve" smooth="yes"/>
      <point x="956" y="289"/>
      <point x="1048" y="491"/>
    </contour>
  </outline>
</glyph>
<glyph name="R" format="1">
  <advance width="1284"/>
  <unicode hex="0052"/>
  <outline>
    <contour>
      <point x="946" y="600" type="line"/>
      <point x="948" y="589" type="line" smooth="yes"/>
      <point x="975" y="429"/>
      <point x="994" y="286"/>
      <point x="1207" y="286" type="curve" smooth="yes"/>
      <point x="1220" y="286"/>
      <point x="1234" y="287"/>
      <point x="1246" y="289" type="curve"/>
      <point x="1246" y="23" type="line"/>
      <point x="1171" y="3"/>
      <point x="1124" y="-4"/>
      <point x="1094" y="-4" type="curve" smooth="yes"/>
      <point x="879" y="-4"/>
      <point x="750" y="93"/>
      <point x="704" y="298" type="curve" smooth="yes"/>
      <point x="649" y="539" type="line"/>
      <point x="517" y="539" type="line"/>
      <point x="517" y="26" type="line"/>
      <point x="157" y="26" type="line"/>
      <point x="157" y="1320" type="line"/>
      <point x="700" y="1320" type="line" smooth="yes"/>
      <point x="961" y="1320"/>
      <point x="1205" y="1210"/>
      <point x="1205" y="952" type="curve" smooth="yes"/>
      <point x="1205" y="753"/>
      <point x="1096" y="670"/>
      <point x="956" y="605" type="curve" smooth="yes"/>
    </contour>
    <contour>
      <point x="517" y="787" type="line"/>
      <point x="612" y="787" type="line" smooth="yes"/>
      <point x="723" y="787"/>
      <point x="882" y="798"/>
      <point x="882" y="961" type="curve" smooth="yes"/>
      <point x="882" y="1095"/>
      <point x="763" y="1115"/>
      <point x="667" y="1115" type="curve" smooth="yes"/>
      <point x="517" y="1115" type="line"/>
    </contour>
  </outline>
</glyph>
<glyph name="S" format="1">
  <advance width="1071"/>
  <unicode hex="0053"/>
  <outline>
    <contour>
      <point x="958" y="1321" type="curve"/>
      <point x="870" y="1078" type="line"/>
      <point x="757" y="1113"/>
      <point x="642" y="1141"/>
      <point x="563" y="1141" type="curve" smooth="yes"/>
      <point x="518" y="1141"/>
      <point x="423" y="1133"/>
      <point x="423" y="1041" type="curve" smooth="yes"/>
      <point x="423" y="978"/>
      <point x="471" y="938"/>
      <point x="536" y="915" type="curve"/>
      <point x="686" y="863" type="line"/>
      <point x="868" y="803"/>
      <point x="1013" y="674"/>
      <point x="1013" y="465" type="curve" smooth="yes"/>
      <point x="1013" y="136"/>
      <point x="823" y="-3"/>
      <point x="533" y="-3" type="curve" smooth="yes"/>
      <point x="379" y="-3"/>
      <point x="234" y="27"/>
      <point x="103" y="85" type="curve"/>
      <point x="140" y="182"/>
      <point x="160" y="261"/>
      <point x="188" y="338" type="curve"/>
      <point x="294" y="310"/>
      <point x="395" y="270"/>
      <point x="509" y="270" type="curve" smooth="yes"/>
      <point x="572" y="270"/>
      <point x="684" y="271"/>
      <point x="684" y="387" type="curve" smooth="yes"/>
      <point x="684" y="469"/>
      <point x="615" y="499"/>
      <point x="580" y="512" type="curve" smooth="yes"/>
      <point x="381" y="587" type="line"/>
      <point x="224" y="641"/>
      <point x="89" y="761"/>
      <point x="89" y="979" type="curve" smooth="yes"/>
      <point x="89" y="1269"/>
      <point x="246" y="1411"/>
      <point x="557" y="1411" type="curve" smooth="yes"/>
      <point x="693" y="1411"/>
      <point x="828" y="1380"/>
    </contour>
  </outline>
</glyph>
<glyph name="T" format="1">
  <advance width="1040"/>
  <unicode hex="0054"/>
  <outline>
    <contour>
      <point x="708" y="57" type="line"/>
      <point x="354" y="57" type="line"/>
      <point x="354" y="1123" type="line"/>
      <point x="79" y="1123" type="line"/>
      <point x="79" y="1351" type="line"/>
      <point x="983" y="1351" type="line"/>
      <point x="983" y="1123" type="line"/>
      <point x="708" y="1123" type="line"/>
    </contour>
  </outline>
</glyph>
<glyph name="U" format="1">
  <advance width="1483"/>
  <unicode hex="0055"/>
  <outline>
    <contour>
      <point x="1368" y="1320" type="line"/>
      <point x="1368" y="558" type="line" smooth="yes"/>
      <point x="1368" y="190"/>
      <point x="1102" y="-4"/>
      <point x="757" y="-4" type="curve" smooth="yes"/>
      <point x="423" y="-4"/>
      <point x="146" y="211"/>
      <point x="146" y="558" type="curve" smooth="yes"/>
      <point x="146" y="1320" type="line"/>
      <point x="521" y="1320" type="line"/>
      <point x="521" y="558" type="line" smooth="yes"/>
      <point x="521" y="388"/>
      <point x="603" y="293"/>
      <point x="757" y="293" type="curve" smooth="yes"/>
      <point x="911" y="293"/>
      <point x="993" y="394"/>
      <point x="993" y="558" type="curve" smooth="yes"/>
      <point x="993" y="1320" type="line"/>
    </contour>
  </outline>
</glyph>
<glyph name="V" format="1">
  <advance width="1231"/>
  <unicode hex="0056"/>
  <outline>
    <contour>
      <point x="826" y="57" type="line"/>
      <point x="402" y="57" type="line"/>
      <point x="29" y="1351" type="line"/>
      <point x="399" y="1351" type="line"/>
      <point x="615" y="415" type="line"/>
      <point x="830" y="1351" type="line"/>
      <point x="1218" y="1351" type="line"/>
    </contour>
  </outline>
</glyph>
<glyph name="W" format="1">
  <advance width="1869"/>
  <unicode hex="0057"/>
  <outline>
    <contour>
      <point x="763" y="57" type="line"/>
      <point x="371" y="57" type="line"/>
      <point x="79" y="1351" type="line"/>
      <point x="453" y="1351" type="line"/>
      <point x="596" y="353" type="line"/>
      <point x="750" y="1123" type="line"/>
      <point x="1142" y="1123" type="line"/>
      <point x="1298" y="353" type="line"/>
      <point x="1438" y="1351" type="line"/>
      <point x="1814" y="1351" type="line"/>
      <point x="1522" y="57" type="line"/>
      <point x="1128" y="57" type="line"/>
      <point x="946" y="886" type="line"/>
    </contour>
  </outline>
</glyph>
<glyph name="X" format="1">
  <advance width="1151"/>
  <unicode hex="0058"/>
  <outline>
    <contour>
      <point x="389" y="57" type="line"/>
      <point x="24" y="57" type="line"/>
      <point x="371" y="700" type="line"/>
      <point x="34" y="1351" type="line"/>
      <point x="399" y="1351" type="line"/>
      <point x="563" y="969" type="line"/>
      <point x="726" y="1351" type="line"/>
      <point x="1100" y="1351" type="line"/>
      <point x="759" y="700" type="line"/>
      <point x="1110" y="57" type="line"/>
      <point x="736" y="57" type="line"/>
      <point x="563" y="429" type="line"/>
    </contour>
  </outline>
</glyph>
<glyph name="Y" format="1">
  <advance width="1109"/>
  <unicode hex="0059"/>
  <outline>
    <contour>
      <point x="385" y="43" type="line"/>
      <point x="385" y="405" type="line"/>
      <point x="16" y="1365" type="line"/>
      <point x="358" y="1365" type="line"/>
      <point x="547" y="674" type="line"/>
      <point x="734" y="1365" type="line"/>
      <point x="1094" y="1365" type="line"/>
      <point x="709" y="405" type="line"/>
      <point x="709" y="43" type="line"/>
    </contour>
  </outline>
</glyph>
<glyph name="Z" format="1">
  <advance width="967"/>
  <unicode hex="005A"/>
  <outline>
    <contour>
      <point x="897" y="57" type="line"/>
      <point x="90" y="57" type="line"/>
      <point x="90" y="305" type="line"/>
      <point x="539" y="1123" type="line"/>
      <point x="109" y="1123" type="line"/>
      <point x="109" y="1351" type="line"/>
      <point x="877" y="1351" type="line"/>
      <point x="877" y="1101" type="line"/>
      <point x="441" y="284" type="line"/>
      <point x="897" y="284" type="line"/>
    </contour>
  </outline>
</glyph>
<glyph name="bracketleft" format="1">
  <advance width="809"/>
  <unicode hex="005B"/>
  <outline>
    <contour>
      <point x="742" y="57" type="line"/>
      <point x="132" y="57" type="line"/>
      <point x="132" y="1351" type="line"/>
      <point x="742" y="1351" type="line"/>
      <point x="742" y="1117" type="line"/>
      <point x="473" y="1117" type="line"/>
      <point x="473" y="289" type="line"/>
      <point x="742" y="289" type="line"/>
    </contour>
  </outline>
</glyph>
<glyph name="backslash" format="1">
  <advance width="583"/>
  <unicode hex="005C"/>
  <outline>
    <contour>
      <point x="66" y="1351" type="line"/>
      <point x="203" y="1351" type="line"/>
      <point x="512" y="57" type="line"/>
      <point x="379" y="57" type="line"/>
    </contour>
  </outline>
</glyph>
<glyph name="bracketright" format="1">
  <advance width="807"/>
  <unicode hex="005D"/>
  <outline>
    <contour>
      <point x="693" y="57" type="line"/>
      <point x="83" y="57" type="line"/>
      <point x="83" y="289" type="line"/>
      <point x="352" y="289" type="line"/>
      <point x="352" y="1117" type="line"/>
      <point x="83" y="1117" type="line"/>
      <point x="83" y="1351" type="line"/>
      <point x="693" y="1351" type="line"/>
    </contour>
  </outline>
</glyph>
<glyph name="asciicircum" format="1">
  <advance width="1061"/>
  <unicode hex="005E"/>
  <outline>
    <contour>
      <point x="394" y="1355" type="line"/>
      <point x="666" y="1355" type="line"/>
      <point x="973" y="371" type="line"/>
      <point x="744" y="371" type="line"/>
      <point x="532" y="1294" type="line"/>
      <point x="324" y="371" type="line"/>
      <point x="90" y="371" type="line"/>
    </contour>
  </outline>
</glyph>
<glyph name="underscore" format="1">
  <advance width="768"/>
  <unicode hex="005F"/>
  <outline>
    <contour>
      <point x="690" y="0" type="line"/>
      <point x="94" y="0" type="line"/>
      <point x="94" y="110" type="line"/>
      <point x="690" y="110" type="line"/>
    </contour>
  </outline>
</glyph>
<glyph name="grave" format="1">
  <advance width="728"/>
  <unicode hex="0060"/>
  <outline>
    <contour>
      <point x="587" y="1199" type="line"/>
      <point x="43" y="1440" type="line"/>
      <point x="211" y="1735" type="line"/>
      <point x="682" y="1366" type="line"/>
    </contour>
  </outline>
</glyph>
<glyph name="a" format="1">
  <advance width="1277"/>
  <unicode hex="0061"/>
  <outline>
    <contour>
      <point x="628" y="765" type="curve" smooth="yes"/>
      <point x="509" y="765"/>
      <point x="419" y="655"/>
      <point x="419" y="512" type="curve" smooth="yes"/>
      <point x="419" y="368"/>
      <point x="510" y="259"/>
      <point x="628" y="259" type="curve" smooth="yes"/>
      <point x="751" y="259"/>
      <point x="833" y="375"/>
      <point x="833" y="521" type="curve"/>
      <point x="828" y="655"/>
      <point x="744" y="765"/>
    </contour>
    <contour>
      <point x="508" y="-10" type="curve" smooth="yes"/>
      <point x="260" y="-10"/>
      <point x="75" y="229"/>
      <point x="75" y="519" type="curve" smooth="yes"/>
      <point x="75" y="807"/>
      <point x="266" y="1034"/>
      <point x="510" y="1034" type="curve" smooth="yes"/>
      <point x="651" y="1034"/>
      <point x="738" y="930"/>
      <point x="780" y="809" type="curve" smooth="yes"/>
      <point x="833" y="660" type="line"/>
      <point x="833" y="1032" type="line"/>
      <point x="1177" y="1007" type="line"/>
      <point x="1177" y="20" type="line"/>
      <point x="833" y="-8" type="line"/>
      <point x="833" y="303" type="line"/>
      <point x="781" y="186" type="line" smooth="yes"/>
      <point x="732" y="74"/>
      <point x="654" y="-10"/>
    </contour>
  </outline>
</glyph>
<glyph name="b" format="1">
  <advance width="1268"/>
  <unicode hex="0062"/>
  <outline>
    <contour>
      <point x="1018" y="-30"/>
      <point x="1207" y="157"/>
      <point x="1207" y="471" type="curve" smooth="yes"/>
      <point x="1207" y="775"/>
      <point x="1035" y="975"/>
      <point x="796" y="975" type="curve" smooth="yes"/>
      <point x="624" y="975"/>
      <point x="519" y="868"/>
      <point x="478" y="776" type="curve"/>
      <point x="478" y="1351" type="line"/>
      <point x="130" y="1299" type="line"/>
      <point x="130" y="0" type="line"/>
      <point x="478" y="0" type="line"/>
      <point x="478" y="137" type="line"/>
      <point x="530" y="63"/>
      <point x="642" y="-30"/>
      <point x="780" y="-30" type="curve" smooth="yes"/>
    </contour>
    <contour>
      <point x="887" y="313"/>
      <point x="801" y="202"/>
      <point x="683" y="202" type="curve" smooth="yes"/>
      <point x="564" y="202"/>
      <point x="478" y="299"/>
      <point x="478" y="471" type="curve" smooth="yes"/>
      <point x="478" y="644"/>
      <point x="563" y="742"/>
      <point x="683" y="742" type="curve" smooth="yes"/>
      <point x="802" y="742"/>
      <point x="887" y="630"/>
      <point x="887" y="471" type="curve" smooth="yes"/>
    </contour>
  </outline>
</glyph>
<glyph name="c" format="1">
  <advance width="829"/>
  <unicode hex="0063"/>
  <outline>
    <contour>
      <point x="589" y="253" type="curve" smooth="yes"/>
      <point x="640" y="253"/>
      <point x="696" y="262"/>
      <point x="750" y="277" type="curve"/>
      <point x="781" y="56" type="line"/>
      <point x="704" y="18"/>
      <point x="625" y="-10"/>
      <point x="522" y="-10" type="curve" smooth="yes"/>
      <point x="271" y="-10"/>
      <point x="67" y="195"/>
      <point x="67" y="512" type="curve" smooth="yes"/>
      <point x="67" y="827"/>
      <point x="278" y="1034"/>
      <point x="522" y="1034" type="curve" smooth="yes"/>
      <point x="636" y="1034"/>
      <point x="707" y="999"/>
      <point x="784" y="954" type="curve"/>
      <point x="754" y="745" type="line"/>
      <point x="692" y="762"/>
      <point x="637" y="769"/>
      <point x="585" y="769" type="curve" smooth="yes"/>
      <point x="465" y="769"/>
      <point x="395" y="663"/>
      <point x="395" y="512" type="curve" smooth="yes"/>
      <point x="395" y="358"/>
      <point x="467" y="253"/>
    </contour>
  </outline>
</glyph>
<glyph name="d" format="1">
  <advance width="1280"/>
  <unicode hex="0064"/>
  <outline>
    <contour>
      <point x="832" y="326" type="line"/>
      <point x="780" y="201" type="line" smooth="yes"/>
      <point x="732" y="84"/>
      <point x="652" y="-3"/>
      <point x="507" y="-3" type="curve" smooth="yes"/>
      <point x="277" y="-3"/>
      <point x="76" y="245"/>
      <point x="76" y="519" type="curve" smooth="yes"/>
      <point x="76" y="808"/>
      <point x="265" y="1041"/>
      <point x="509" y="1041" type="curve" smooth="yes"/>
      <point x="635" y="1041"/>
      <point x="722" y="979"/>
      <point x="780" y="845" type="curve" smooth="yes"/>
      <point x="832" y="725" type="line"/>
      <point x="832" y="1328" type="line"/>
      <point x="1178" y="1380" type="line"/>
      <point x="1178" y="29" type="line"/>
      <point x="832" y="29" type="line"/>
    </contour>
    <contour>
      <point x="627" y="773" type="curve" smooth="yes"/>
      <point x="508" y="773"/>
      <point x="420" y="662"/>
      <point x="420" y="519" type="curve" smooth="yes"/>
      <point x="420" y="376"/>
      <point x="509" y="266"/>
      <point x="627" y="266" type="curve" smooth="yes"/>
      <point x="745" y="266"/>
      <point x="832" y="379"/>
      <point x="832" y="519" type="curve" smooth="yes"/>
      <point x="832" y="659"/>
      <point x="744" y="773"/>
    </contour>
  </outline>
</glyph>
<glyph name="e" format="1">
  <advance width="1021"/>
  <unicode hex="0065"/>
  <outline>
    <contour>
      <point x="380" y="409" type="line"/>
      <point x="390" y="362" type="line" smooth="yes"/>
      <point x="415" y="246"/>
      <point x="500" y="203"/>
      <point x="614" y="203" type="curve" smooth="yes"/>
      <point x="694" y="203"/>
      <point x="789" y="224"/>
      <point x="885" y="258" type="curve"/>
      <point x="923" y="39" type="line"/>
      <point x="812" y="-8"/>
      <point x="683" y="-30"/>
      <point x="563" y="-30" type="curve" smooth="yes"/>
      <point x="291" y="-30"/>
      <point x="61" y="150"/>
      <point x="61" y="469" type="curve" smooth="yes"/>
      <point x="61" y="795"/>
      <point x="275" y="975"/>
      <point x="539" y="975" type="curve" smooth="yes"/>
      <point x="790" y="975"/>
      <point x="967" y="791"/>
      <point x="967" y="490" type="curve" smooth="yes"/>
      <point x="967" y="481"/>
      <point x="967" y="435"/>
      <point x="966" y="428" type="curve"/>
    </contour>
    <contour>
      <point x="704" y="591" type="line"/>
      <point x="701" y="606" type="line" smooth="yes"/>
      <point x="677" y="706"/>
      <point x="640" y="770"/>
      <point x="544" y="770" type="curve" smooth="yes"/>
      <point x="435" y="770"/>
      <point x="378" y="675"/>
      <point x="378" y="592" type="curve" smooth="yes"/>
      <point x="378" y="573" type="line"/>
    </contour>
  </outline>
</glyph>
<glyph name="f" format="1">
  <advance width="755"/>
  <unicode hex="0066"/>
  <outline>
    <contour>
      <point x="579" y="1304" type="curve" smooth="yes"/>
      <point x="498" y="1304"/>
      <point x="446" y="1255"/>
      <point x="446" y="1164" type="curve" smooth="yes"/>
      <point x="446" y="1121"/>
      <point x="461" y="1071"/>
      <point x="479" y="1026" type="curve" smooth="yes"/>
      <point x="482" y="1018" type="line"/>
      <point x="736" y="1018" type="line"/>
      <point x="736" y="831" type="line"/>
      <point x="494" y="831" type="line"/>
      <point x="494" y="90" type="line"/>
      <point x="189" y="90" type="line"/>
      <point x="189" y="831" type="line"/>
      <point x="66" y="831" type="line"/>
      <point x="66" y="1018" type="line"/>
      <point x="189" y="1018" type="line"/>
      <point x="189" y="1046" type="line" smooth="yes"/>
      <point x="189" y="1349"/>
      <point x="247" y="1542"/>
      <point x="474" y="1542" type="curve" smooth="yes"/>
      <point x="553" y="1542"/>
      <point x="651" y="1520"/>
      <point x="753" y="1477" type="curve"/>
      <point x="742" y="1270" type="line"/>
      <point x="678" y="1293"/>
      <point x="627" y="1304"/>
    </contour>
  </outline>
</glyph>
<glyph name="g" format="1">
  <advance width="1275"/>
  <unicode hex="0067"/>
  <outline>
    <contour>
      <point x="623" y="307" type="curve" smooth="yes"/>
      <point x="744" y="307"/>
      <point x="830" y="411"/>
      <point x="830" y="540" type="curve"/>
      <point x="825" y="658"/>
      <point x="737" y="757"/>
      <point x="623" y="757" type="curve" smooth="yes"/>
      <point x="504" y="757"/>
      <point x="416" y="659"/>
      <point x="416" y="532" type="curve" smooth="yes"/>
      <point x="416" y="403"/>
      <point x="506" y="307"/>
    </contour>
    <contour>
      <point x="874" y="289" type="line"/>
      <point x="807" y="180" type="line" smooth="yes"/>
      <point x="743" y="75"/>
      <point x="645" y="21"/>
      <point x="505" y="21" type="curve" smooth="yes"/>
      <point x="258" y="21"/>
      <point x="73" y="243"/>
      <point x="73" y="523" type="curve" smooth="yes"/>
      <point x="73" y="792"/>
      <point x="273" y="1025"/>
      <point x="502" y="1025" type="curve" smooth="yes"/>
      <point x="647" y="1025"/>
      <point x="745" y="928"/>
      <point x="777" y="803" type="curve" smooth="yes"/>
      <point x="830" y="595" type="line"/>
      <point x="830" y="1023" type="line"/>
      <point x="1176" y="996" type="line"/>
      <point x="1176" y="260" type="line" smooth="yes"/>
      <point x="1176" y="-177"/>
      <point x="1003" y="-439"/>
      <point x="623" y="-439" type="curve" smooth="yes"/>
      <point x="568" y="-439"/>
      <point x="513" y="-433"/>
      <point x="462" y="-425" type="curve"/>
      <point x="485" y="-187" type="line"/>
      <point x="532" y="-193"/>
      <point x="561" y="-196"/>
      <point x="584" y="-196" type="curve" smooth="yes"/>
      <point x="789" y="-196"/>
      <point x="831" y="-22"/>
      <point x="856" y="158" type="curve" smooth="yes"/>
    </contour>
  </outline>
</glyph>
<glyph name="h" format="1">
  <advance width="1267"/>
  <unicode hex="0068"/>
  <outline>
    <contour>
      <point x="832" y="87" type="line"/>
      <point x="832" y="550" type="line" smooth="yes"/>
      <point x="832" y="647"/>
      <point x="787" y="774"/>
      <point x="679" y="774" type="curve" smooth="yes"/>
      <point x="556" y="774"/>
      <point x="474" y="665"/>
      <point x="474" y="536" type="curve" smooth="yes"/>
      <point x="474" y="87" type="line"/>
      <point x="129" y="87" type="line"/>
      <point x="129" y="1329" type="line"/>
      <point x="474" y="1382" type="line"/>
      <point x="474" y="677" type="line"/>
      <point x="526" y="813" type="line" smooth="yes"/>
      <point x="575" y="942"/>
      <point x="655" y="1043"/>
      <point x="796" y="1043" type="curve" smooth="yes"/>
      <point x="1032" y="1043"/>
      <point x="1175" y="823"/>
      <point x="1175" y="557" type="curve" smooth="yes"/>
      <point x="1175" y="87" type="line"/>
    </contour>
  </outline>
</glyph>
<glyph name="i" format="1">
  <advance width="675"/>
  <unicode hex="0069"/>
  <outline>
    <contour>
      <point x="296" y="1527" type="curve" smooth="yes"/>
      <point x="403" y="1527"/>
      <point x="488" y="1455"/>
      <point x="488" y="1358" type="curve" smooth="yes"/>
      <point x="488" y="1257"/>
      <point x="404" y="1187"/>
      <point x="296" y="1187" type="curve" smooth="yes"/>
      <point x="185" y="1187"/>
      <point x="103" y="1255"/>
      <point x="103" y="1358" type="curve" smooth="yes"/>
      <point x="103" y="1458"/>
      <point x="187" y="1527"/>
    </contour>
    <contour>
      <point x="110" y="945.241" type="line"/>
      <point x="469" y="945.241" type="line"/>
      <point x="469" y="371" type="line" smooth="yes"/>
      <point x="469" y="296.629"/>
      <point x="492.36" y="245.443"/>
      <point x="566.503" y="245.443" type="curve" smooth="yes"/>
      <point x="587.185" y="245.443"/>
      <point x="611.819" y="249.426"/>
      <point x="641" y="258" type="curve"/>
      <point x="658" y="42" type="line"/>
      <point x="587" y="5"/>
      <point x="514" y="-13"/>
      <point x="431" y="-13" type="curve" smooth="yes"/>
      <point x="216" y="-13"/>
      <point x="110" y="128"/>
      <point x="110" y="352" type="curve" smooth="yes"/>
    </contour>
  </outline>
</glyph>
<glyph name="j" format="1">
  <advance width="508"/>
  <unicode hex="006A"/>
  <outline>
    <contour>
      <point x="74" y="950" type="line"/>
      <point x="399" y="950" type="line"/>
      <point x="399" y="51" type="line" smooth="yes"/>
      <point x="399" y="-227"/>
      <point x="261" y="-402"/>
      <point x="33" y="-402" type="curve" smooth="yes"/>
      <point x="-58" y="-402"/>
      <point x="-159" y="-372"/>
      <point x="-251" y="-315" type="curve"/>
      <point x="-179" y="-119" type="line"/>
      <point x="-129" y="-134"/>
      <point x="-91" y="-141"/>
      <point x="-60" y="-141" type="curve" smooth="yes"/>
      <point x="32" y="-141"/>
      <point x="74" y="-65"/>
      <point x="74" y="51" type="curve" smooth="yes"/>
    </contour>
    <contour>
      <point x="213" y="1532" type="curve" smooth="yes"/>
      <point x="321" y="1532"/>
      <point x="407" y="1461"/>
      <point x="407" y="1363" type="curve" smooth="yes"/>
      <point x="407" y="1260"/>
      <point x="323" y="1192"/>
      <point x="213" y="1192" type="curve" smooth="yes"/>
      <point x="122" y="1192"/>
      <point x="57" y="1260"/>
      <point x="57" y="1363" type="curve" smooth="yes"/>
      <point x="57" y="1463"/>
      <point x="124" y="1532"/>
    </contour>
  </outline>
</glyph>
<glyph name="k" format="1">
  <advance width="1171"/>
  <unicode hex="006B"/>
  <outline>
    <contour>
      <point x="849" y="602" type="line"/>
      <point x="850" y="593" type="line" smooth="yes"/>
      <point x="870" y="450"/>
      <point x="892" y="271"/>
      <point x="1071" y="271" type="curve" smooth="yes"/>
      <point x="1085" y="271"/>
      <point x="1103" y="273"/>
      <point x="1122" y="276" type="curve"/>
      <point x="1091" y="2" type="line"/>
      <point x="1059" y="-1"/>
      <point x="1034" y="-1"/>
      <point x="1008" y="-1" type="curve" smooth="yes"/>
      <point x="750" y="-1"/>
      <point x="688" y="145"/>
      <point x="632" y="386" type="curve" smooth="yes"/>
      <point x="621" y="431" type="line"/>
      <point x="475" y="296" type="line"/>
      <point x="475" y="29" type="line"/>
      <point x="128" y="29" type="line"/>
      <point x="128" y="1328" type="line"/>
      <point x="475" y="1380" type="line"/>
      <point x="475" y="678" type="line"/>
      <point x="958" y="1111" type="line"/>
      <point x="1150" y="832" type="line"/>
    </contour>
  </outline>
</glyph>
<glyph name="l" format="1">
  <advance width="701"/>
  <unicode hex="006C"/>
  <outline>
    <contour>
      <point x="111" y="1327" type="line"/>
      <point x="468" y="1380" type="line"/>
      <point x="468" y="397" type="line" smooth="yes"/>
      <point x="468" y="300"/>
      <point x="540" y="258"/>
      <point x="622" y="258" type="curve" smooth="yes"/>
      <point x="643" y="258"/>
      <point x="666" y="262"/>
      <point x="686" y="268" type="curve"/>
      <point x="698" y="53" type="line"/>
      <point x="616" y="15"/>
      <point x="529" y="-3"/>
      <point x="432" y="-3" type="curve" smooth="yes"/>
      <point x="216" y="-3"/>
      <point x="111" y="142"/>
      <point x="111" y="378" type="curve" smooth="yes"/>
    </contour>
  </outline>
</glyph>
<glyph name="m" format="1">
  <advance width="1940"/>
  <unicode hex="006D"/>
  <outline>
    <contour>
      <point x="542" y="809" type="line" smooth="yes"/>
      <point x="609" y="964"/>
      <point x="706" y="1036"/>
      <point x="838" y="1036" type="curve" smooth="yes"/>
      <point x="1019" y="1036"/>
      <point x="1099" y="907"/>
      <point x="1152" y="758" type="curve" smooth="yes"/>
      <point x="1166" y="719" type="line"/>
      <point x="1191" y="797" type="line" smooth="yes"/>
      <point x="1237" y="939"/>
      <point x="1335" y="1036"/>
      <point x="1510" y="1036" type="curve" smooth="yes"/>
      <point x="1735" y="1036"/>
      <point x="1848" y="798"/>
      <point x="1848" y="543" type="curve" smooth="yes"/>
      <point x="1848" y="80" type="line"/>
      <point x="1497" y="80" type="line"/>
      <point x="1497" y="543" type="line" smooth="yes"/>
      <point x="1497" y="644"/>
      <point x="1458" y="763"/>
      <point x="1341" y="763" type="curve" smooth="yes"/>
      <point x="1222" y="763"/>
      <point x="1162" y="651"/>
      <point x="1162" y="543" type="curve" smooth="yes"/>
      <point x="1162" y="80" type="line"/>
      <point x="825" y="80" type="line"/>
      <point x="825" y="543" type="line" smooth="yes"/>
      <point x="825" y="646"/>
      <point x="783" y="763"/>
      <point x="665" y="763" type="curve" smooth="yes"/>
      <point x="548" y="763"/>
      <point x="492" y="659"/>
      <point x="489" y="551" type="curve"/>
      <point x="489" y="80" type="line"/>
      <point x="138" y="80" type="line"/>
      <point x="138" y="977" type="line"/>
      <point x="489" y="1031" type="line"/>
      <point x="489" y="685" type="line"/>
    </contour>
  </outline>
</glyph>
<glyph name="n" format="1">
  <advance width="1247"/>
  <unicode hex="006E"/>
  <outline>
    <contour>
      <point x="811" y="0" type="line"/>
      <point x="811" y="509.998" type="line" smooth="yes"/>
      <point x="811" y="606.998"/>
      <point x="761" y="705"/>
      <point x="653" y="704" type="curve" smooth="yes"/>
      <point x="558" y="703"/>
      <point x="455" y="631"/>
      <point x="455" y="489.998" type="curve"/>
      <point x="455" y="0" type="line"/>
      <point x="110" y="0" type="line"/>
      <point x="110" y="924.955" type="line"/>
      <point x="455" y="945" type="line"/>
      <point x="455" y="734" type="line"/>
      <point x="508" y="838"/>
      <point x="606" y="974.998"/>
      <point x="809" y="974.998" type="curve" smooth="yes"/>
      <point x="1037" y="974.998"/>
      <point x="1154" y="770.998"/>
      <point x="1154" y="509.998" type="curve" smooth="yes"/>
      <point x="1154" y="0" type="line"/>
    </contour>
  </outline>
</glyph>
<glyph name="o" format="1">
  <advance width="1140"/>
  <unicode hex="006F"/>
  <outline>
    <contour>
      <point x="387" y="475" type="curve" smooth="yes"/>
      <point x="387" y="632"/>
      <point x="454" y="743"/>
      <point x="572" y="743" type="curve" smooth="yes"/>
      <point x="686" y="743"/>
      <point x="759" y="634"/>
      <point x="759" y="475" type="curve" smooth="yes"/>
      <point x="759" y="311"/>
      <point x="686" y="202"/>
      <point x="572" y="202" type="curve" smooth="yes"/>
      <point x="454" y="202"/>
      <point x="387" y="313"/>
    </contour>
    <contour>
      <point x="1079" y="475" type="curve" smooth="yes"/>
      <point x="1079" y="811"/>
      <point x="855" y="975"/>
      <point x="572" y="975" type="curve" smooth="yes"/>
      <point x="287" y="975"/>
      <point x="63" y="814"/>
      <point x="61" y="475" type="curve"/>
      <point x="63" y="130"/>
      <point x="287" y="-30"/>
      <point x="572" y="-30" type="curve" smooth="yes"/>
      <point x="855" y="-30"/>
      <point x="1079" y="134"/>
    </contour>
  </outline>
</glyph>
<glyph name="p" format="1">
  <advance width="1277"/>
  <unicode hex="0070"/>
  <outline>
    <contour>
      <point x="522" y="832" type="line" smooth="yes"/>
      <point x="581" y="966"/>
      <point x="669" y="1028"/>
      <point x="792" y="1028" type="curve" smooth="yes"/>
      <point x="1024" y="1028"/>
      <point x="1227" y="783"/>
      <point x="1227" y="506" type="curve" smooth="yes"/>
      <point x="1227" y="231"/>
      <point x="1026" y="-16"/>
      <point x="794" y="-16" type="curve" smooth="yes"/>
      <point x="671" y="-16"/>
      <point x="583" y="46"/>
      <point x="522" y="180" type="curve" smooth="yes"/>
      <point x="471" y="294" type="line"/>
      <point x="471" y="-246" type="line"/>
      <point x="125" y="-314" type="line"/>
      <point x="125" y="966" type="line"/>
      <point x="471" y="1023" type="line"/>
      <point x="471" y="714" type="line"/>
    </contour>
    <contour>
      <point x="676" y="252" type="curve" smooth="yes"/>
      <point x="796" y="252"/>
      <point x="885" y="362"/>
      <point x="885" y="506" type="curve" smooth="yes"/>
      <point x="885" y="652"/>
      <point x="795" y="759"/>
      <point x="676" y="759" type="curve" smooth="yes"/>
      <point x="558" y="759"/>
      <point x="471" y="643"/>
      <point x="471" y="506" type="curve" smooth="yes"/>
      <point x="471" y="365"/>
      <point x="558" y="252"/>
    </contour>
  </outline>
</glyph>
<glyph name="q" format="1">
  <advance width="1277"/>
  <unicode hex="0071"/>
  <outline>
    <contour>
      <point x="509" y="-16" type="curve" smooth="yes"/>
      <point x="257" y="-16"/>
      <point x="76" y="237"/>
      <point x="76" y="506" type="curve" smooth="yes"/>
      <point x="76" y="799"/>
      <point x="262" y="1028"/>
      <point x="511" y="1028" type="curve" smooth="yes"/>
      <point x="634" y="1028"/>
      <point x="723" y="965"/>
      <point x="783" y="831" type="curve" smooth="yes"/>
      <point x="834" y="716" type="line"/>
      <point x="834" y="1023" type="line"/>
      <point x="1180" y="966" type="line"/>
      <point x="1180" y="-246" type="line"/>
      <point x="834" y="-314" type="line"/>
      <point x="834" y="293" type="line"/>
      <point x="783" y="180" type="line" smooth="yes"/>
      <point x="722" y="46"/>
      <point x="632" y="-16"/>
    </contour>
    <contour>
      <point x="629" y="759" type="curve" smooth="yes"/>
      <point x="510" y="759"/>
      <point x="420" y="649"/>
      <point x="420" y="506" type="curve" smooth="yes"/>
      <point x="420" y="363"/>
      <point x="511" y="252"/>
      <point x="629" y="252" type="curve" smooth="yes"/>
      <point x="751" y="252"/>
      <point x="834" y="372"/>
      <point x="834" y="515" type="curve" smooth="yes"/>
      <point x="834" y="648"/>
      <point x="743" y="759"/>
    </contour>
  </outline>
</glyph>
<glyph name="r" format="1">
  <advance width="780"/>
  <unicode hex="0072"/>
  <outline>
    <contour>
      <point x="489" y="811" type="line" smooth="yes"/>
      <point x="526" y="930"/>
      <point x="594" y="1024"/>
      <point x="723" y="1035" type="curve"/>
      <point x="773" y="757" type="line"/>
      <point x="609" y="754"/>
      <point x="443" y="732"/>
      <point x="443" y="562" type="curve" smooth="yes"/>
      <point x="443" y="80" type="line"/>
      <point x="116" y="80" type="line"/>
      <point x="116" y="977" type="line"/>
      <point x="443" y="1031" type="line"/>
      <point x="443" y="663" type="line"/>
    </contour>
  </outline>
</glyph>
<glyph name="s" format="1">
  <advance width="810"/>
  <unicode hex="0073"/>
  <outline>
    <contour>
      <point x="471" y="268" type="line"/>
      <point x="471" y="268" type="line" smooth="yes"/>
      <point x="461" y="357"/>
      <point x="385" y="375"/>
      <point x="342" y="386" type="curve" smooth="yes"/>
      <point x="176" y="422"/>
      <point x="71" y="491"/>
      <point x="70" y="703" type="curve"/>
      <point x="80" y="933"/>
      <point x="230" y="1034"/>
      <point x="430" y="1034" type="curve" smooth="yes"/>
      <point x="519" y="1034"/>
      <point x="616" y="1014"/>
      <point x="702" y="977" type="curve"/>
      <point x="670" y="796" type="line"/>
      <point x="584" y="820"/>
      <point x="517" y="833"/>
      <point x="470" y="833" type="curve" smooth="yes"/>
      <point x="414" y="833"/>
      <point x="352" y="823"/>
      <point x="352" y="759" type="curve" smooth="yes"/>
      <point x="352" y="682"/>
      <point x="418" y="658"/>
      <point x="451" y="653" type="curve"/>
      <point x="620" y="622"/>
      <point x="762" y="542"/>
      <point x="762" y="328" type="curve" smooth="yes"/>
      <point x="762" y="117"/>
      <point x="626" y="-10"/>
      <point x="448" y="-10" type="curve" smooth="yes"/>
      <point x="326" y="-10"/>
      <point x="201" y="12"/>
      <point x="97" y="55" type="curve"/>
      <point x="131" y="228" type="line"/>
      <point x="208" y="207"/>
      <point x="287" y="186"/>
      <point x="368" y="186" type="curve" smooth="yes"/>
      <point x="419" y="186"/>
      <point x="471" y="202"/>
      <point x="471" y="265" type="curve" smooth="yes"/>
    </contour>
  </outline>
</glyph>
<glyph name="t" format="1">
  <advance width="754"/>
  <unicode hex="0074"/>
  <outline>
    <contour>
      <point x="762" y="751" type="line"/>
      <point x="535" y="751" type="line"/>
      <point x="535" y="341" type="line" smooth="yes"/>
      <point x="535" y="242"/>
      <point x="607" y="198"/>
      <point x="689" y="198" type="curve" smooth="yes"/>
      <point x="710" y="198"/>
      <point x="732" y="202"/>
      <point x="752" y="208" type="curve"/>
      <point x="764" y="-7" type="line"/>
      <point x="682" y="-45"/>
      <point x="596" y="-63"/>
      <point x="507" y="-63" type="curve" smooth="yes"/>
      <point x="341" y="-63"/>
      <point x="235" y="83"/>
      <point x="235" y="321" type="curve" smooth="yes"/>
      <point x="238" y="748" type="line"/>
      <point x="113" y="748" type="line"/>
      <point x="113" y="945" type="line"/>
      <point x="258" y="945" type="line"/>
      <point x="418" y="1325" type="line"/>
      <point x="535" y="1325" type="line"/>
      <point x="535" y="943" type="line"/>
      <point x="762" y="943" type="line"/>
    </contour>
  </outline>
</glyph>
<glyph name="u" format="1">
  <advance width="1142"/>
  <unicode hex="0075"/>
  <outline>
    <contour>
      <point x="722.999" y="945.24" type="line"/>
      <point x="1050" y="945.24" type="line"/>
      <point x="1050" y="393.909" type="line" smooth="yes"/>
      <point x="1050" y="122.909"/>
      <point x="841" y="-30.0908"/>
      <point x="587" y="-30.0908" type="curve" smooth="yes"/>
      <point x="332" y="-30.0908"/>
      <point x="114" y="121.909"/>
      <point x="114" y="393.909" type="curve" smooth="yes"/>
      <point x="113.999" y="945.24" type="line"/>
      <point x="447.999" y="945.24" type="line"/>
      <point x="448" y="380.909" type="line" smooth="yes"/>
      <point x="448" y="290.909"/>
      <point x="513" y="234.909"/>
      <point x="589" y="234.909" type="curve" smooth="yes"/>
      <point x="664" y="234.909"/>
      <point x="723" y="296.909"/>
      <point x="723" y="380.909" type="curve" smooth="yes"/>
    </contour>
  </outline>
</glyph>
<glyph name="v" format="1">
  <advance width="1026"/>
  <unicode hex="0076"/>
  <outline>
    <contour>
      <point x="713" y="64" type="line"/>
      <point x="321" y="64" type="line"/>
      <point x="22" y="992" type="line"/>
      <point x="400" y="992" type="line"/>
      <point x="562" y="292" type="line"/>
      <point x="710" y="992" type="line"/>
      <point x="1001" y="992" type="line"/>
    </contour>
  </outline>
</glyph>
<glyph name="w" format="1">
  <advance width="1554"/>
  <unicode hex="0077"/>
  <outline>
    <contour>
      <point x="660" y="64" type="line"/>
      <point x="275" y="64" type="line"/>
      <point x="71" y="992" type="line"/>
      <point x="405" y="992" type="line"/>
      <point x="531" y="228" type="line"/>
      <point x="685" y="992" type="line"/>
      <point x="959" y="992" type="line"/>
      <point x="1110" y="210" type="line"/>
      <point x="1240" y="992" type="line"/>
      <point x="1501" y="992" type="line"/>
      <point x="1309" y="64" type="line"/>
      <point x="903" y="64" type="line"/>
      <point x="780" y="704" type="line"/>
    </contour>
  </outline>
</glyph>
<glyph name="x" format="1">
  <advance width="994"/>
  <unicode hex="0078"/>
  <outline>
    <contour>
      <point x="356" y="64" type="line"/>
      <point x="23" y="64" type="line"/>
      <point x="301" y="546" type="line"/>
      <point x="43" y="992" type="line"/>
      <point x="373" y="992" type="line"/>
      <point x="489" y="721" type="line"/>
      <point x="607" y="992" type="line"/>
      <point x="927" y="992" type="line"/>
      <point x="674" y="546" type="line"/>
      <point x="947" y="64" type="line"/>
      <point x="623" y="64" type="line"/>
      <point x="489" y="351" type="line"/>
    </contour>
  </outline>
</glyph>
<glyph name="y" format="1">
  <advance width="1223"/>
  <unicode hex="0079"/>
  <outline>
    <contour>
      <point x="629" y="-451" type="curve" smooth="yes"/>
      <point x="600" y="-451"/>
      <point x="557" y="-446"/>
      <point x="504" y="-437" type="curve"/>
      <point x="535" y="-173" type="line"/>
      <point x="557" y="-177"/>
      <point x="577" y="-178"/>
      <point x="600" y="-178" type="curve" smooth="yes"/>
      <point x="764" y="-178"/>
      <point x="785" y="10"/>
      <point x="796" y="142" type="curve" smooth="yes"/>
      <point x="807" y="279" type="line"/>
      <point x="746" y="158" type="line" smooth="yes"/>
      <point x="691" y="50"/>
      <point x="607" y="9"/>
      <point x="515" y="9" type="curve" smooth="yes"/>
      <point x="226" y="10"/>
      <point x="119" y="173"/>
      <point x="119" y="398" type="curve" smooth="yes"/>
      <point x="119" y="937" type="line"/>
      <point x="461" y="937" type="line"/>
      <point x="461" y="417" type="line" smooth="yes"/>
      <point x="461" y="328"/>
      <point x="526" y="248"/>
      <point x="610" y="248" type="curve" smooth="yes"/>
      <point x="714" y="248"/>
      <point x="779" y="334"/>
      <point x="779" y="444" type="curve" smooth="yes"/>
      <point x="779" y="937" type="line"/>
      <point x="1123" y="937" type="line"/>
      <point x="1123" y="231" type="line" smooth="yes"/>
      <point x="1123" y="-171"/>
      <point x="980" y="-451"/>
    </contour>
  </outline>
</glyph>
<glyph name="z" format="1">
  <advance width="865"/>
  <unicode hex="007A"/>
  <outline>
    <contour>
      <point x="804" y="64" type="line"/>
      <point x="78" y="64" type="line"/>
      <point x="78" y="238" type="line"/>
      <point x="425" y="798" type="line"/>
      <point x="92" y="798" type="line"/>
      <point x="92" y="992" type="line"/>
      <point x="794" y="992" type="line"/>
      <point x="794" y="815" type="line"/>
      <point x="485" y="258" type="line"/>
      <point x="804" y="258" type="line"/>
    </contour>
  </outline>
</glyph>
<glyph name="braceleft" format="1">
  <advance width="653"/>
  <unicode hex="007B"/>
  <outline>
    <contour>
      <point x="467" y="496" type="curve" smooth="yes"/>
      <point x="467" y="344"/>
      <point x="480" y="170"/>
      <point x="588" y="109" type="curve"/>
      <point x="588" y="-12" type="line"/>
      <point x="313" y="20"/>
      <point x="145" y="196"/>
      <point x="145" y="496" type="curve" smooth="yes"/>
      <point x="145" y="579"/>
      <point x="90" y="625"/>
      <point x="24" y="640" type="curve"/>
      <point x="24" y="744" type="line"/>
      <point x="92" y="759"/>
      <point x="145" y="804"/>
      <point x="145" y="886" type="curve" smooth="yes"/>
      <point x="145" y="1191"/>
      <point x="316" y="1361"/>
      <point x="588" y="1395" type="curve"/>
      <point x="588" y="1275" type="line"/>
      <point x="475" y="1214"/>
      <point x="467" y="1036"/>
      <point x="467" y="886" type="curve" smooth="yes"/>
      <point x="467" y="799"/>
      <point x="408" y="757"/>
      <point x="333" y="718" type="curve" smooth="yes"/>
      <point x="284" y="692" type="line"/>
      <point x="333" y="666" type="line" smooth="yes"/>
      <point x="410" y="626"/>
      <point x="467" y="586"/>
    </contour>
  </outline>
</glyph>
<glyph name="bar" format="1">
  <advance width="366"/>
  <unicode hex="007C"/>
  <outline>
    <contour>
      <point x="252" y="57" type="line"/>
      <point x="122" y="57" type="line"/>
      <point x="122" y="1351" type="line"/>
      <point x="252" y="1351" type="line"/>
    </contour>
  </outline>
</glyph>
<glyph name="braceright" format="1">
  <advance width="655"/>
  <unicode hex="007D"/>
  <outline>
    <contour>
      <point x="80" y="1275" type="curve"/>
      <point x="80" y="1395" type="line"/>
      <point x="356" y="1361"/>
      <point x="523" y="1189"/>
      <point x="523" y="886" type="curve" smooth="yes"/>
      <point x="523" y="803"/>
      <point x="578" y="758"/>
      <point x="644" y="744" type="curve"/>
      <point x="644" y="640" type="line"/>
      <point x="576" y="625"/>
      <point x="523" y="578"/>
      <point x="523" y="496" type="curve" smooth="yes"/>
      <point x="523" y="190"/>
      <point x="353" y="23"/>
      <point x="80" y="-11" type="curve"/>
      <point x="80" y="109" type="line"/>
      <point x="192" y="170"/>
      <point x="201" y="347"/>
      <point x="201" y="496" type="curve" smooth="yes"/>
      <point x="201" y="586"/>
      <point x="258" y="626"/>
      <point x="335" y="666" type="curve" smooth="yes"/>
      <point x="384" y="692" type="line"/>
      <point x="335" y="718" type="line" smooth="yes"/>
      <point x="260" y="757"/>
      <point x="201" y="799"/>
      <point x="201" y="886" type="curve" smooth="yes"/>
      <point x="201" y="1040"/>
      <point x="188" y="1214"/>
    </contour>
  </outline>
</glyph>
<glyph name="asciitilde" format="1">
  <advance width="1046"/>
  <unicode hex="007E"/>
  <outline>
    <contour>
      <point x="715" y="911" type="curve" smooth="yes"/>
      <point x="773" y="911"/>
      <point x="805" y="951"/>
      <point x="824" y="990" type="curve"/>
      <point x="1001" y="917" type="line"/>
      <point x="946" y="762"/>
      <point x="869" y="636"/>
      <point x="722" y="636" type="curve" smooth="yes"/>
      <point x="644" y="636"/>
      <point x="588" y="657"/>
      <point x="530" y="683" type="curve"/>
      <point x="445" y="724" type="line"/>
      <point x="416" y="737"/>
      <point x="385" y="743"/>
      <point x="352" y="743" type="curve" smooth="yes"/>
      <point x="288" y="743"/>
      <point x="258" y="687"/>
      <point x="242" y="650" type="curve"/>
      <point x="62" y="723" type="line"/>
      <point x="108" y="846"/>
      <point x="174" y="950"/>
      <point x="275" y="998" type="curve"/>
      <point x="303" y="1012"/>
      <point x="327" y="1018"/>
      <point x="353" y="1018" type="curve" smooth="yes"/>
      <point x="494" y="1018"/>
      <point x="562" y="911"/>
    </contour>
  </outline>
</glyph>
<glyph name="cent" format="1">
  <advance width="869"/>
  <unicode hex="00A2"/>
  <outline>
    <contour>
      <point x="645" y="285" type="line" smooth="yes"/>
      <point x="681" y="289"/>
      <point x="715" y="295"/>
      <point x="748" y="305" type="curve"/>
      <point x="780" y="59" type="line"/>
      <point x="735" y="39"/>
      <point x="690" y="22"/>
      <point x="639" y="5" type="curve" smooth="yes"/>
      <point x="630" y="2" type="line"/>
      <point x="630" y="-158" type="line"/>
      <point x="560" y="-158" type="line"/>
      <point x="560" y="-11" type="line"/>
      <point x="520" y="-11" type="line" smooth="yes"/>
      <point x="270" y="-11"/>
      <point x="67" y="196"/>
      <point x="67" y="512" type="curve" smooth="yes"/>
      <point x="67" y="826"/>
      <point x="274" y="1034"/>
      <point x="520" y="1034" type="curve" smooth="yes"/>
      <point x="560" y="1034" type="line"/>
      <point x="560" y="1162" type="line"/>
      <point x="630" y="1162" type="line"/>
      <point x="630" y="1019" type="line"/>
      <point x="639" y="1016" type="line" smooth="yes"/>
      <point x="692" y="998"/>
      <point x="743" y="974"/>
      <point x="784" y="950" type="curve"/>
      <point x="752" y="715" type="line"/>
      <point x="716" y="724"/>
      <point x="683" y="731"/>
      <point x="646" y="737" type="curve" smooth="yes"/>
      <point x="630" y="739" type="line"/>
      <point x="630" y="284" type="line"/>
    </contour>
    <contour>
      <point x="543" y="738" type="line" smooth="yes"/>
      <point x="456" y="712"/>
      <point x="395" y="637"/>
      <point x="395" y="512" type="curve" smooth="yes"/>
      <point x="395" y="386"/>
      <point x="454" y="310"/>
      <point x="543" y="286" type="curve" smooth="yes"/>
      <point x="560" y="281" type="line"/>
      <point x="560" y="743" type="line"/>
    </contour>
  </outline>
</glyph>
<glyph name="sterling" format="1">
  <advance width="934"/>
  <unicode hex="00A3"/>
  <outline>
    <contour>
      <point x="90" y="758" type="line"/>
      <point x="215" y="758" type="line"/>
      <point x="215" y="887" type="line" smooth="yes"/>
      <point x="215" y="1210"/>
      <point x="305" y="1382"/>
      <point x="568" y="1382" type="curve" smooth="yes"/>
      <point x="653" y="1382"/>
      <point x="757" y="1361"/>
      <point x="864" y="1318" type="curve"/>
      <point x="839" y="1110" type="line"/>
      <point x="775" y="1133"/>
      <point x="722" y="1144"/>
      <point x="673" y="1144" type="curve" smooth="yes"/>
      <point x="593" y="1144"/>
      <point x="539" y="1095"/>
      <point x="539" y="1004" type="curve" smooth="yes"/>
      <point x="539" y="758" type="line"/>
      <point x="768" y="758" type="line"/>
      <point x="768" y="649" type="line"/>
      <point x="539" y="649" type="line"/>
      <point x="539" y="288" type="line"/>
      <point x="852" y="288" type="line"/>
      <point x="852" y="58" type="line"/>
      <point x="90" y="58" type="line"/>
      <point x="90" y="127" type="line"/>
      <point x="177" y="146"/>
      <point x="215" y="227"/>
      <point x="215" y="317" type="curve" smooth="yes"/>
      <point x="215" y="649" type="line"/>
      <point x="90" y="649" type="line"/>
    </contour>
  </outline>
</glyph>
<glyph name="currency" format="1">
  <advance width="1004"/>
  <unicode hex="00A4"/>
  <outline>
    <contour>
      <point x="229" y="387" type="line"/>
      <point x="220" y="397" type="line" smooth="yes"/>
      <point x="159" y="467"/>
      <point x="124" y="545"/>
      <point x="124" y="644" type="curve" smooth="yes"/>
      <point x="124" y="752"/>
      <point x="163" y="825"/>
      <point x="216" y="887" type="curve" smooth="yes"/>
      <point x="225" y="897" type="line"/>
      <point x="91" y="1031" type="line"/>
      <point x="139" y="1077" type="line"/>
      <point x="277" y="939" type="line"/>
      <point x="287" y="945" type="line" smooth="yes"/>
      <point x="353" y="986"/>
      <point x="418" y="1011"/>
      <point x="496" y="1011" type="curve" smooth="yes"/>
      <point x="573" y="1011"/>
      <point x="641" y="984"/>
      <point x="710" y="941" type="curve" smooth="yes"/>
      <point x="719" y="935" type="line"/>
      <point x="862" y="1077" type="line"/>
      <point x="909" y="1031" type="line"/>
      <point x="771" y="893" type="line"/>
      <point x="780" y="883" type="line" smooth="yes"/>
      <point x="838" y="817"/>
      <point x="872" y="742"/>
      <point x="872" y="644" type="curve" smooth="yes"/>
      <point x="872" y="547"/>
      <point x="837" y="469"/>
      <point x="776" y="401" type="curve" smooth="yes"/>
      <point x="767" y="391" type="line"/>
      <point x="909" y="249" type="line"/>
      <point x="862" y="202" type="line"/>
      <point x="713" y="350" type="line"/>
      <point x="703" y="345" type="line" smooth="yes"/>
      <point x="638" y="306"/>
      <point x="574" y="282"/>
      <point x="495" y="282" type="curve"/>
      <point x="490" y="282" type="line" smooth="yes"/>
      <point x="415" y="282"/>
      <point x="353" y="306"/>
      <point x="293" y="342" type="curve" smooth="yes"/>
      <point x="284" y="348" type="line"/>
      <point x="138" y="202" type="line"/>
      <point x="91" y="249" type="line"/>
    </contour>
    <contour>
      <point x="663" y="644" type="curve" smooth="yes"/>
      <point x="663" y="756"/>
      <point x="598" y="839"/>
      <point x="498" y="839" type="curve" smooth="yes"/>
      <point x="397" y="839"/>
      <point x="331" y="758"/>
      <point x="331" y="644" type="curve" smooth="yes"/>
      <point x="331" y="531"/>
      <point x="397" y="449"/>
      <point x="497" y="449" type="curve" smooth="yes"/>
      <point x="597" y="449"/>
      <point x="663" y="531"/>
    </contour>
  </outline>
</glyph>
<glyph name="yen" format="1">
  <advance width="1030"/>
  <unicode hex="00A5"/>
  <outline>
    <contour>
      <point x="435" y="225" type="line"/>
      <point x="157" y="225" type="line"/>
      <point x="157" y="285" type="line"/>
      <point x="435" y="285" type="line"/>
      <point x="435" y="429" type="line"/>
      <point x="157" y="429" type="line"/>
      <point x="157" y="494" type="line"/>
      <point x="404" y="494" type="line"/>
      <point x="66" y="1320" type="line"/>
      <point x="260" y="1320" type="line"/>
      <point x="511" y="547" type="line"/>
      <point x="758" y="1320" type="line"/>
      <point x="951" y="1320" type="line"/>
      <point x="615" y="494" type="line"/>
      <point x="877" y="494" type="line"/>
      <point x="877" y="429" type="line"/>
      <point x="583" y="429" type="line"/>
      <point x="583" y="285" type="line"/>
      <point x="877" y="285" type="line"/>
      <point x="877" y="225" type="line"/>
      <point x="583" y="225" type="line"/>
      <point x="583" y="56" type="line"/>
      <point x="435" y="56" type="line"/>
    </contour>
  </outline>
</glyph>
<glyph name="brokenbar" format="1">
  <advance width="370"/>
  <unicode hex="00A6"/>
  <outline>
    <contour>
      <point x="254" y="57" type="line"/>
      <point x="124" y="57" type="line"/>
      <point x="124" y="529" type="line"/>
      <point x="254" y="529" type="line"/>
    </contour>
    <contour>
      <point x="254" y="879" type="line"/>
      <point x="124" y="879" type="line"/>
      <point x="124" y="1351" type="line"/>
      <point x="254" y="1351" type="line"/>
    </contour>
  </outline>
</glyph>
<glyph name="section" format="1">
  <advance width="951"/>
  <unicode hex="00A7"/>
  <outline>
    <contour>
      <point x="416" y="1126" type="curve" smooth="yes"/>
      <point x="416" y="1039"/>
      <point x="586" y="1007"/>
      <point x="606" y="998" type="curve" smooth="yes"/>
      <point x="725" y="953"/>
      <point x="875" y="897"/>
      <point x="875" y="762" type="curve" smooth="yes"/>
      <point x="875" y="657"/>
      <point x="830" y="588"/>
      <point x="766" y="548" type="curve" smooth="yes"/>
      <point x="727" y="524" type="line"/>
      <point x="765" y="499" type="line" smooth="yes"/>
      <point x="837" y="452"/>
      <point x="871" y="388"/>
      <point x="871" y="299" type="curve" smooth="yes"/>
      <point x="871" y="96"/>
      <point x="676" y="26"/>
      <point x="479" y="26" type="curve" smooth="yes"/>
      <point x="370" y="26"/>
      <point x="250" y="48"/>
      <point x="130" y="89" type="curve"/>
      <point x="162" y="271" type="line"/>
      <point x="253" y="244"/>
      <point x="350" y="222"/>
      <point x="445" y="222" type="curve" smooth="yes"/>
      <point x="495" y="222"/>
      <point x="547" y="237"/>
      <point x="547" y="295" type="curve" smooth="yes"/>
      <point x="547" y="376"/>
      <point x="425" y="394"/>
      <point x="404" y="403" type="curve"/>
      <point x="338" y="431" type="line"/>
      <point x="224" y="473"/>
      <point x="101" y="536"/>
      <point x="101" y="671" type="curve" smooth="yes"/>
      <point x="101" y="763"/>
      <point x="136" y="831"/>
      <point x="208" y="884" type="curve" smooth="yes"/>
      <point x="243" y="909" type="line"/>
      <point x="207" y="932" type="line" smooth="yes"/>
      <point x="136" y="977"/>
      <point x="101" y="1042"/>
      <point x="101" y="1133" type="curve"/>
      <point x="111" y="1321"/>
      <point x="292" y="1382"/>
      <point x="487" y="1382" type="curve" smooth="yes"/>
      <point x="604" y="1382"/>
      <point x="718" y="1361"/>
      <point x="812" y="1321" type="curve"/>
      <point x="780" y="1156" type="line"/>
      <point x="697" y="1180"/>
      <point x="606" y="1194"/>
      <point x="520" y="1194" type="curve" smooth="yes"/>
      <point x="472" y="1194"/>
      <point x="416" y="1183"/>
    </contour>
    <contour>
      <point x="442" y="829" type="line" smooth="yes"/>
      <point x="387" y="824"/>
      <point x="345" y="783"/>
      <point x="345" y="712" type="curve" smooth="yes"/>
      <point x="345" y="625"/>
      <point x="471" y="593"/>
      <point x="505" y="582" type="curve" smooth="yes"/>
      <point x="506" y="581" type="line"/>
      <point x="510" y="581" type="line" smooth="yes"/>
      <point x="567" y="581"/>
      <point x="618" y="620"/>
      <point x="618" y="694" type="curve" smooth="yes"/>
      <point x="618" y="786"/>
      <point x="494" y="812"/>
      <point x="447" y="828" type="curve" smooth="yes"/>
      <point x="444" y="829" type="line"/>
    </contour>
  </outline>
</glyph>
<glyph name="dieresis" format="1">
  <advance width="1103"/>
  <unicode hex="00A8"/>
  <outline>
    <contour>
      <point x="833" y="1499" type="curve" smooth="yes"/>
      <point x="940" y="1499"/>
      <point x="1023" y="1426"/>
      <point x="1023" y="1328" type="curve" smooth="yes"/>
      <point x="1023" y="1228"/>
      <point x="940" y="1159"/>
      <point x="833" y="1159" type="curve" smooth="yes"/>
      <point x="731" y="1159"/>
      <point x="657" y="1226"/>
      <point x="657" y="1328" type="curve" smooth="yes"/>
      <point x="657" y="1428"/>
      <point x="735" y="1499"/>
    </contour>
    <contour>
      <point x="295" y="1499" type="curve" smooth="yes"/>
      <point x="392" y="1499"/>
      <point x="469" y="1427"/>
      <point x="469" y="1328" type="curve" smooth="yes"/>
      <point x="469" y="1227"/>
      <point x="394" y="1159"/>
      <point x="295" y="1159" type="curve" smooth="yes"/>
      <point x="186" y="1159"/>
      <point x="103" y="1227"/>
      <point x="103" y="1328" type="curve" smooth="yes"/>
      <point x="103" y="1427"/>
      <point x="189" y="1499"/>
    </contour>
  </outline>
</glyph>
<glyph name="copyright" format="1">
  <advance width="1279"/>
  <unicode hex="00A9"/>
  <outline>
    <contour>
      <point x="169" y="612" type="curve" smooth="yes"/>
      <point x="169" y="369"/>
      <point x="307" y="200"/>
      <point x="466" y="124" type="curve" smooth="yes"/>
      <point x="524" y="96"/>
      <point x="586" y="82"/>
      <point x="651" y="82" type="curve" smooth="yes"/>
      <point x="871" y="82"/>
      <point x="1022" y="237"/>
      <point x="1093" y="407" type="curve" smooth="yes"/>
      <point x="1120" y="471"/>
      <point x="1133" y="540"/>
      <point x="1133" y="612" type="curve" smooth="yes"/>
      <point x="1133" y="859"/>
      <point x="988" y="1029"/>
      <point x="826" y="1103" type="curve" smooth="yes"/>
      <point x="770" y="1129"/>
      <point x="711" y="1142"/>
      <point x="651" y="1142" type="curve" smooth="yes"/>
      <point x="374" y="1142"/>
      <point x="169" y="909"/>
    </contour>
    <contour>
      <point x="94" y="619" type="curve" smooth="yes"/>
      <point x="94" y="959"/>
      <point x="346" y="1198"/>
      <point x="657" y="1198" type="curve" smooth="yes"/>
      <point x="945" y="1198"/>
      <point x="1212" y="930"/>
      <point x="1212" y="612" type="curve" smooth="yes"/>
      <point x="1212" y="291"/>
      <point x="947" y="22"/>
      <point x="651" y="22" type="curve" smooth="yes"/>
      <point x="355" y="22"/>
      <point x="94" y="294"/>
    </contour>
    <contour>
      <point x="842" y="900" type="curve"/>
      <point x="835" y="848" type="line"/>
      <point x="784" y="870"/>
      <point x="737" y="881"/>
      <point x="687" y="881" type="curve" smooth="yes"/>
      <point x="534" y="881"/>
      <point x="442" y="773"/>
      <point x="442" y="610" type="curve" smooth="yes"/>
      <point x="442" y="447"/>
      <point x="532" y="341"/>
      <point x="685" y="341" type="curve" smooth="yes"/>
      <point x="729" y="341"/>
      <point x="778" y="352"/>
      <point x="831" y="371" type="curve"/>
      <point x="840" y="312" type="line"/>
      <point x="787" y="286"/>
      <point x="733" y="274"/>
      <point x="673" y="274" type="curve"/>
      <point x="477" y="276"/>
      <point x="355" y="398"/>
      <point x="353" y="610" type="curve"/>
      <point x="353" y="812"/>
      <point x="483" y="946"/>
      <point x="667" y="946" type="curve" smooth="yes"/>
      <point x="733" y="946"/>
      <point x="791" y="930"/>
    </contour>
  </outline>
</glyph>
<glyph name="guillemotleft" format="1">
  <advance width="968"/>
  <unicode hex="00AB"/>
  <outline>
    <contour>
      <point x="542" y="788" type="line"/>
      <point x="878" y="1062" type="line"/>
      <point x="878" y="756" type="line"/>
      <point x="662" y="626" type="line"/>
      <point x="878" y="491" type="line"/>
      <point x="878" y="183" type="line"/>
      <point x="542" y="464" type="line"/>
    </contour>
    <contour>
      <point x="70" y="788" type="line"/>
      <point x="406" y="1062" type="line"/>
      <point x="406" y="755" type="line"/>
      <point x="212" y="626" type="line"/>
      <point x="406" y="491" type="line"/>
      <point x="406" y="183" type="line"/>
      <point x="70" y="464" type="line"/>
    </contour>
  </outline>
</glyph>
<glyph name="logicalnot" format="1">
  <advance width="953"/>
  <unicode hex="00AC"/>
  <outline>
    <contour>
      <point x="96" y="558" type="line"/>
      <point x="96" y="810" type="line"/>
      <point x="846" y="810" type="line"/>
      <point x="846" y="216" type="line"/>
      <point x="693" y="216" type="line"/>
      <point x="693" y="558" type="line"/>
    </contour>
  </outline>
</glyph>
<glyph name="registered" format="1">
  <advance width="1279"/>
  <unicode hex="00AE"/>
  <outline>
    <contour>
      <point x="94" y="619" type="curve" smooth="yes"/>
      <point x="94" y="959"/>
      <point x="346" y="1198"/>
      <point x="657" y="1198" type="curve" smooth="yes"/>
      <point x="945" y="1198"/>
      <point x="1212" y="930"/>
      <point x="1212" y="612" type="curve" smooth="yes"/>
      <point x="1212" y="291"/>
      <point x="947" y="22"/>
      <point x="651" y="22" type="curve" smooth="yes"/>
      <point x="355" y="22"/>
      <point x="94" y="294"/>
    </contour>
    <contour>
      <point x="169" y="612" type="curve" smooth="yes"/>
      <point x="169" y="369"/>
      <point x="307" y="200"/>
      <point x="466" y="124" type="curve" smooth="yes"/>
      <point x="524" y="96"/>
      <point x="586" y="82"/>
      <point x="651" y="82" type="curve" smooth="yes"/>
      <point x="871" y="82"/>
      <point x="1022" y="237"/>
      <point x="1093" y="407" type="curve" smooth="yes"/>
      <point x="1120" y="471"/>
      <point x="1133" y="540"/>
      <point x="1133" y="612" type="curve" smooth="yes"/>
      <point x="1133" y="859"/>
      <point x="988" y="1029"/>
      <point x="826" y="1103" type="curve" smooth="yes"/>
      <point x="770" y="1129"/>
      <point x="711" y="1142"/>
      <point x="651" y="1142" type="curve" smooth="yes"/>
      <point x="374" y="1142"/>
      <point x="169" y="909"/>
    </contour>
    <contour>
      <point x="679" y="658" type="line"/>
      <point x="679" y="658" type="line" smooth="yes"/>
      <point x="755" y="663"/>
      <point x="825" y="679"/>
      <point x="825" y="789" type="curve" smooth="yes"/>
      <point x="825" y="904"/>
      <point x="733" y="915"/>
      <point x="653" y="915" type="curve" smooth="yes"/>
      <point x="511" y="915" type="line"/>
      <point x="511" y="658" type="line"/>
    </contour>
    <contour>
      <point x="662" y="950" type="line" smooth="yes"/>
      <point x="821" y="950"/>
      <point x="882" y="895"/>
      <point x="882" y="789" type="curve" smooth="yes"/>
      <point x="882" y="684"/>
      <point x="837" y="643"/>
      <point x="734" y="629" type="curve" smooth="yes"/>
      <point x="720" y="627" type="line"/>
      <point x="732" y="561" type="line"/>
      <point x="752" y="462"/>
      <point x="774" y="343"/>
      <point x="903" y="335" type="curve"/>
      <point x="895" y="300" type="line"/>
      <point x="780" y="308"/>
      <point x="740" y="358"/>
      <point x="714" y="466" type="curve" smooth="yes"/>
      <point x="676" y="625" type="line"/>
      <point x="511" y="625" type="line"/>
      <point x="511" y="314" type="line"/>
      <point x="463" y="314" type="line"/>
      <point x="463" y="950" type="line"/>
    </contour>
  </outline>
</glyph>
<glyph name="degree" format="1">
  <advance width="1134"/>
  <unicode hex="00B0"/>
  <outline>
    <contour>
      <point x="581" y="1183" type="curve" smooth="yes"/>
      <point x="419" y="1183"/>
      <point x="321" y="1052"/>
      <point x="321" y="878" type="curve" smooth="yes"/>
      <point x="321" y="704"/>
      <point x="420" y="572"/>
      <point x="581" y="572" type="curve" smooth="yes"/>
      <point x="743" y="572"/>
      <point x="839" y="704"/>
      <point x="839" y="878" type="curve" smooth="yes"/>
      <point x="839" y="1052"/>
      <point x="741" y="1183"/>
    </contour>
    <contour>
      <point x="1068" y="884" type="curve" smooth="yes"/>
      <point x="1068" y="575"/>
      <point x="862" y="382"/>
      <point x="579" y="382" type="curve" smooth="yes"/>
      <point x="300" y="382"/>
      <point x="89" y="571"/>
      <point x="89" y="876" type="curve" smooth="yes"/>
      <point x="89" y="1184"/>
      <point x="298" y="1370"/>
      <point x="581" y="1370" type="curve" smooth="yes"/>
      <point x="599" y="1370" type="line" smooth="yes"/>
      <point x="873" y="1370"/>
      <point x="1068" y="1182"/>
    </contour>
  </outline>
</glyph>
<glyph name="plusminus" format="1">
  <advance width="999"/>
  <unicode hex="00B1"/>
  <outline>
    <contour>
      <point x="536" y="232" type="line"/>
      <point x="487" y="232" type="line"/>
      <point x="487" y="671" type="line"/>
      <point x="90" y="671" type="line"/>
      <point x="90" y="725" type="line"/>
      <point x="487" y="725" type="line"/>
      <point x="487" y="1159" type="line"/>
      <point x="536" y="1159" type="line"/>
      <point x="536" y="725" type="line"/>
      <point x="930" y="725" type="line"/>
      <point x="930" y="671" type="line"/>
      <point x="536" y="671" type="line"/>
    </contour>
    <contour>
      <point x="930" y="53" type="line"/>
      <point x="90" y="53" type="line"/>
      <point x="90" y="105" type="line"/>
      <point x="930" y="105" type="line"/>
    </contour>
  </outline>
</glyph>
<glyph name="twosuperior" format="1">
  <advance width="593"/>
  <unicode hex="00B2"/>
  <outline>
    <contour>
      <point x="79" y="1347" type="line"/>
      <point x="161" y="1380"/>
      <point x="238" y="1396"/>
      <point x="310" y="1396" type="curve" smooth="yes"/>
      <point x="440" y="1396"/>
      <point x="513" y="1318"/>
      <point x="513" y="1187" type="curve" smooth="yes"/>
      <point x="513" y="1050"/>
      <point x="395" y="957"/>
      <point x="276" y="889" type="curve" smooth="yes"/>
      <point x="183" y="835" type="line"/>
      <point x="492" y="835" type="line"/>
      <point x="492" y="730" type="line"/>
      <point x="85" y="730" type="line"/>
      <point x="85" y="844" type="line"/>
      <point x="169" y="923"/>
      <point x="228" y="986"/>
      <point x="271" y="1042" type="curve" smooth="yes"/>
      <point x="314" y="1098"/>
      <point x="341" y="1144"/>
      <point x="341" y="1185" type="curve" smooth="yes"/>
      <point x="341" y="1243"/>
      <point x="291" y="1267"/>
      <point x="233" y="1267" type="curve" smooth="yes"/>
      <point x="201" y="1267"/>
      <point x="162" y="1256"/>
      <point x="117" y="1236" type="curve"/>
    </contour>
  </outline>
</glyph>
<glyph name="threesuperior" format="1">
  <advance width="572"/>
  <unicode hex="00B3"/>
  <outline>
    <contour>
      <point x="101" y="1251" type="curve"/>
      <point x="77" y="1350" type="line"/>
      <point x="152" y="1381"/>
      <point x="219" y="1396"/>
      <point x="285" y="1396" type="curve" smooth="yes"/>
      <point x="392" y="1396"/>
      <point x="477" y="1340"/>
      <point x="477" y="1250" type="curve" smooth="yes"/>
      <point x="477" y="1189"/>
      <point x="450" y="1140"/>
      <point x="388" y="1099" type="curve" smooth="yes"/>
      <point x="344" y="1070" type="line"/>
      <point x="393" y="1049" type="line" smooth="yes"/>
      <point x="474" y="1013"/>
      <point x="510" y="959"/>
      <point x="510" y="879" type="curve" smooth="yes"/>
      <point x="510" y="757"/>
      <point x="413" y="700"/>
      <point x="274" y="700" type="curve" smooth="yes"/>
      <point x="223" y="700"/>
      <point x="155" y="713"/>
      <point x="77" y="737" type="curve"/>
      <point x="101" y="838" type="line"/>
      <point x="158" y="821"/>
      <point x="205" y="812"/>
      <point x="245" y="812" type="curve" smooth="yes"/>
      <point x="284" y="812"/>
      <point x="354" y="824"/>
      <point x="354" y="891" type="curve" smooth="yes"/>
      <point x="354" y="980"/>
      <point x="270" y="1016"/>
      <point x="160" y="1021" type="curve"/>
      <point x="160" y="1096" type="line"/>
      <point x="229" y="1097"/>
      <point x="349" y="1104"/>
      <point x="349" y="1204" type="curve" smooth="yes"/>
      <point x="349" y="1258"/>
      <point x="299" y="1276"/>
      <point x="262" y="1276" type="curve" smooth="yes"/>
      <point x="217" y="1276"/>
      <point x="162" y="1267"/>
    </contour>
  </outline>
</glyph>
<glyph name="acute" format="1">
  <advance width="683"/>
  <unicode hex="00B4"/>
  <outline>
    <contour>
      <point x="656" y="1440" type="line"/>
      <point x="113" y="1199" type="line"/>
      <point x="17" y="1366" type="line"/>
      <point x="489" y="1735" type="line"/>
    </contour>
  </outline>
</glyph>
<glyph name="paragraph" format="1">
  <advance width="995"/>
  <unicode hex="00B6"/>
  <outline>
    <contour>
      <point x="492" y="756" type="line"/>
      <point x="397" y="756" type="line" smooth="yes"/>
      <point x="214" y="756"/>
      <point x="63" y="864"/>
      <point x="63" y="1053" type="curve" smooth="yes"/>
      <point x="63" y="1258"/>
      <point x="264" y="1351"/>
      <point x="467" y="1351" type="curve" smooth="yes"/>
      <point x="851" y="1351" type="line"/>
      <point x="851" y="57" type="line"/>
      <point x="751" y="57" type="line"/>
      <point x="751" y="1261" type="line"/>
      <point x="577" y="1261" type="line"/>
      <point x="577" y="57" type="line"/>
      <point x="492" y="57" type="line"/>
    </contour>
  </outline>
</glyph>
<glyph name="periodcentered" format="1">
  <advance width="558"/>
  <unicode hex="00B7"/>
  <outline>
    <contour>
      <point x="286" y="991" type="curve" smooth="yes"/>
      <point x="392" y="991"/>
      <point x="478" y="918"/>
      <point x="478" y="820" type="curve" smooth="yes"/>
      <point x="478" y="720"/>
      <point x="394" y="651"/>
      <point x="286" y="651" type="curve" smooth="yes"/>
      <point x="177" y="651"/>
      <point x="94" y="719"/>
      <point x="94" y="820" type="curve" smooth="yes"/>
      <point x="94" y="919"/>
      <point x="180" y="991"/>
    </contour>
  </outline>
</glyph>
<glyph name="cedilla" format="1">
  <advance width="489"/>
  <unicode hex="00B8"/>
  <outline>
    <contour>
      <point x="224" y="-146" type="line"/>
      <point x="242" y="-148" type="line" smooth="yes"/>
      <point x="353" y="-160"/>
      <point x="438" y="-190"/>
      <point x="438" y="-275" type="curve" smooth="yes"/>
      <point x="438" y="-395"/>
      <point x="317" y="-469"/>
      <point x="183" y="-469" type="curve" smooth="yes"/>
      <point x="138" y="-469"/>
      <point x="91" y="-459"/>
      <point x="46" y="-440" type="curve"/>
      <point x="55" y="-417" type="line"/>
      <point x="80" y="-422"/>
      <point x="103" y="-425"/>
      <point x="125" y="-425" type="curve" smooth="yes"/>
      <point x="223" y="-425"/>
      <point x="281" y="-369"/>
      <point x="281" y="-273" type="curve" smooth="yes"/>
      <point x="281" y="-202"/>
      <point x="230" y="-166"/>
      <point x="174" y="-157" type="curve"/>
      <point x="213" y="-39" type="line"/>
      <point x="261" y="-39" type="line"/>
    </contour>
  </outline>
</glyph>
<glyph name="onesuperior" format="1">
  <advance width="490"/>
  <unicode hex="00B9"/>
  <outline>
    <contour>
      <point x="179" y="1229" type="line"/>
      <point x="93" y="1221" type="line"/>
      <point x="93" y="1299" type="line"/>
      <point x="159" y="1304"/>
      <point x="220" y="1327"/>
      <point x="273" y="1365" type="curve"/>
      <point x="345" y="1365" type="line"/>
      <point x="345" y="821" type="line"/>
      <point x="431" y="821" type="line"/>
      <point x="431" y="725" type="line"/>
      <point x="93" y="725" type="line"/>
      <point x="93" y="821" type="line"/>
      <point x="179" y="821" type="line"/>
    </contour>
  </outline>
</glyph>
<glyph name="guillemotright" format="1">
  <advance width="968"/>
  <unicode hex="00BB"/>
  <outline>
    <contour>
      <point x="581" y="491" type="line"/>
      <point x="775" y="626" type="line"/>
      <point x="581" y="755" type="line"/>
      <point x="581" y="1062" type="line"/>
      <point x="917" y="788" type="line"/>
      <point x="917" y="464" type="line"/>
      <point x="581" y="183" type="line"/>
    </contour>
    <contour>
      <point x="111" y="491" type="line"/>
      <point x="325" y="626" type="line"/>
      <point x="111" y="755" type="line"/>
      <point x="111" y="1062" type="line"/>
      <point x="447" y="788" type="line"/>
      <point x="447" y="464" type="line"/>
      <point x="111" y="183" type="line"/>
    </contour>
  </outline>
</glyph>
<glyph name="questiondown" format="1">
  <advance width="897"/>
  <unicode hex="00BF"/>
  <outline>
    <contour>
      <point x="798" y="341" type="curve"/>
      <point x="819" y="103" type="line"/>
      <point x="687" y="51"/>
      <point x="572" y="26"/>
      <point x="477" y="26" type="curve" smooth="yes"/>
      <point x="266" y="26"/>
      <point x="65" y="137"/>
      <point x="65" y="364" type="curve" smooth="yes"/>
      <point x="65" y="563"/>
      <point x="227" y="623"/>
      <point x="366" y="692" type="curve"/>
      <point x="423" y="722"/>
      <point x="472" y="749"/>
      <point x="473" y="852" type="curve"/>
      <point x="673" y="852" type="line"/>
      <point x="689" y="797" type="line"/>
      <point x="700" y="765"/>
      <point x="704" y="740"/>
      <point x="704" y="717" type="curve" smooth="yes"/>
      <point x="704" y="579"/>
      <point x="547" y="549"/>
      <point x="444" y="452" type="curve" smooth="yes"/>
      <point x="429" y="438"/>
      <point x="416" y="419"/>
      <point x="416" y="395" type="curve" smooth="yes"/>
      <point x="416" y="321"/>
      <point x="488" y="303"/>
      <point x="571" y="303" type="curve" smooth="yes"/>
      <point x="655" y="303"/>
      <point x="734" y="316"/>
    </contour>
    <contour>
      <point x="565" y="1042" type="curve" smooth="yes"/>
      <point x="478" y="1042"/>
      <point x="405" y="1113"/>
      <point x="405" y="1211" type="curve" smooth="yes"/>
      <point x="405" y="1313"/>
      <point x="476" y="1382"/>
      <point x="565" y="1382" type="curve" smooth="yes"/>
      <point x="668" y="1382"/>
      <point x="754" y="1311"/>
      <point x="754" y="1211" type="curve" smooth="yes"/>
      <point x="754" y="1112"/>
      <point x="667" y="1042"/>
    </contour>
  </outline>
</glyph>
<glyph name="AE" format="1">
  <advance width="1757"/>
  <unicode hex="00C6"/>
  <outline>
    <contour>
      <point x="391" y="57" type="line"/>
      <point x="29" y="57" type="line"/>
      <point x="463" y="1351" type="line"/>
      <point x="1499" y="1351" type="line"/>
      <point x="1542" y="1111" type="line"/>
      <point x="1021" y="1111" type="line"/>
      <point x="1077" y="808" type="line"/>
      <point x="1547" y="808" type="line"/>
      <point x="1584" y="618" type="line"/>
      <point x="1122" y="618" type="line"/>
      <point x="1189" y="295" type="line"/>
      <point x="1682" y="295" type="line"/>
      <point x="1725" y="57" type="line"/>
      <point x="872" y="57" type="line"/>
      <point x="830" y="316" type="line"/>
      <point x="468" y="316" type="line"/>
    </contour>
    <contour>
      <point x="692" y="1161" type="line"/>
      <point x="523" y="500" type="line"/>
      <point x="795" y="500" type="line"/>
    </contour>
  </outline>
</glyph>
<glyph name="Eth" format="1">
  <advance width="1466"/>
  <unicode hex="00D0"/>
  <outline>
    <contour>
      <point x="737" y="1320" type="line" smooth="yes"/>
      <point x="1042" y="1320"/>
      <point x="1256" y="1169"/>
      <point x="1354" y="947" type="curve" smooth="yes"/>
      <point x="1387" y="871"/>
      <point x="1404" y="788"/>
      <point x="1404" y="698" type="curve" smooth="yes"/>
      <point x="1404" y="310"/>
      <point x="1111" y="56"/>
      <point x="737" y="56" type="curve" smooth="yes"/>
      <point x="208" y="56" type="line"/>
      <point x="208" y="650" type="line"/>
      <point x="32" y="650" type="line"/>
      <point x="32" y="759" type="line"/>
      <point x="208" y="759" type="line"/>
      <point x="208" y="1320" type="line"/>
    </contour>
    <contour>
      <point x="565" y="352" type="line"/>
      <point x="737" y="352" type="line" smooth="yes"/>
      <point x="925" y="352"/>
      <point x="1030" y="510"/>
      <point x="1030" y="701" type="curve" smooth="yes"/>
      <point x="1030" y="886"/>
      <point x="914" y="1024"/>
      <point x="737" y="1024" type="curve" smooth="yes"/>
      <point x="565" y="1024" type="line"/>
      <point x="565" y="759" type="line"/>
      <point x="711" y="759" type="line"/>
      <point x="711" y="650" type="line"/>
      <point x="565" y="650" type="line"/>
    </contour>
  </outline>
</glyph>
<glyph name="multiply" format="1">
  <advance width="804"/>
  <unicode hex="00D7"/>
  <outline>
    <contour>
      <point x="369" y="514" type="line"/>
      <point x="79" y="843" type="line"/>
      <point x="119" y="883" type="line"/>
      <point x="400" y="555" type="line"/>
      <point x="679" y="883" type="line"/>
      <point x="719" y="843" type="line"/>
      <point x="430" y="514" type="line"/>
      <point x="711" y="195" type="line"/>
      <point x="673" y="158" type="line"/>
      <point x="400" y="479" type="line"/>
      <point x="125" y="158" type="line"/>
      <point x="87" y="195" type="line"/>
    </contour>
  </outline>
</glyph>
<glyph name="Oslash" format="1">
  <advance width="1485"/>
  <unicode hex="00D8"/>
  <outline>
    <contour>
      <point x="576" y="29" type="line"/>
      <point x="563" y="33" type="line" smooth="yes"/>
      <point x="298" y="117"/>
      <point x="93" y="335"/>
      <point x="93" y="706" type="curve" smooth="yes"/>
      <point x="93" y="1122"/>
      <point x="379" y="1408"/>
      <point x="759" y="1408" type="curve" smooth="yes"/>
      <point x="802" y="1408"/>
      <point x="842" y="1404"/>
      <point x="880" y="1399" type="curve" smooth="yes"/>
      <point x="892" y="1397" type="line"/>
      <point x="950" y="1637" type="line"/>
      <point x="1019" y="1637" type="line"/>
      <point x="957" y="1373" type="line"/>
      <point x="970" y="1369" type="line" smooth="yes"/>
      <point x="1227" y="1280"/>
      <point x="1423" y="1064"/>
      <point x="1423" y="696" type="curve" smooth="yes"/>
      <point x="1423" y="265"/>
      <point x="1148" y="-4"/>
      <point x="759" y="-4" type="curve" smooth="yes"/>
      <point x="721" y="-4"/>
      <point x="685" y="-1"/>
      <point x="651" y="3" type="curve" smooth="yes"/>
      <point x="639" y="5" type="line"/>
      <point x="566" y="-300" type="line"/>
      <point x="500" y="-300" type="line"/>
    </contour>
    <contour>
      <point x="825" y="1103" type="line"/>
      <point x="790" y="1103" type="line" smooth="yes"/>
      <point x="786" y="1103"/>
      <point x="775" y="1105"/>
      <point x="761" y="1107" type="curve" smooth="yes"/>
      <point x="760" y="1107" type="line"/>
      <point x="759" y="1107" type="line" smooth="yes"/>
      <point x="558" y="1104"/>
      <point x="465" y="918"/>
      <point x="465" y="717" type="curve" smooth="yes"/>
      <point x="465" y="550"/>
      <point x="529" y="437"/>
      <point x="630" y="370" type="curve" smooth="yes"/>
      <point x="647" y="359" type="line"/>
    </contour>
    <contour>
      <point x="887" y="1031" type="line"/>
      <point x="709" y="296" type="line"/>
      <point x="759" y="296" type="line" smooth="yes"/>
      <point x="958" y="296"/>
      <point x="1051" y="479"/>
      <point x="1051" y="674" type="curve" smooth="yes"/>
      <point x="1051" y="820"/>
      <point x="1003" y="937"/>
      <point x="920" y="1004" type="curve" smooth="yes"/>
    </contour>
  </outline>
</glyph>
<glyph name="Thorn" format="1">
  <advance width="1191"/>
  <unicode hex="00DE"/>
  <outline>
    <contour>
      <point x="506" y="1351" type="line"/>
      <point x="506" y="1215" type="line"/>
      <point x="592" y="1215" type="line" smooth="yes"/>
      <point x="899" y="1215"/>
      <point x="1161" y="1106"/>
      <point x="1161" y="796" type="curve" smooth="yes"/>
      <point x="1161" y="510"/>
      <point x="888" y="383"/>
      <point x="608" y="383" type="curve" smooth="yes"/>
      <point x="506" y="383" type="line"/>
      <point x="506" y="57" type="line"/>
      <point x="155" y="57" type="line"/>
      <point x="155" y="1351" type="line"/>
    </contour>
    <contour>
      <point x="506" y="606" type="line"/>
      <point x="518" y="604" type="line" smooth="yes"/>
      <point x="547" y="600"/>
      <point x="575" y="598"/>
      <point x="609" y="598" type="curve" smooth="yes"/>
      <point x="727" y="598"/>
      <point x="834" y="655"/>
      <point x="834" y="796" type="curve" smooth="yes"/>
      <point x="834" y="933"/>
      <point x="719" y="990"/>
      <point x="609" y="990" type="curve" smooth="yes"/>
      <point x="506" y="990" type="line"/>
    </contour>
  </outline>
</glyph>
<glyph name="germandbls" format="1">
  <advance width="1302"/>
  <unicode hex="00DF"/>
  <outline>
    <contour>
      <point x="677" y="746" type="curve"/>
      <point x="677" y="893" type="line"/>
      <point x="745" y="912"/>
      <point x="828" y="960"/>
      <point x="828" y="1064" type="curve" smooth="yes"/>
      <point x="828" y="1176"/>
      <point x="721" y="1206"/>
      <point x="641" y="1206" type="curve" smooth="yes"/>
      <point x="552" y="1206"/>
      <point x="483" y="1144"/>
      <point x="483" y="1045" type="curve" smooth="yes"/>
      <point x="483" y="26" type="line"/>
      <point x="130" y="-2" type="line"/>
      <point x="130" y="1116" type="line" smooth="yes"/>
      <point x="130" y="1325"/>
      <point x="413" y="1409"/>
      <point x="645" y="1409" type="curve" smooth="yes"/>
      <point x="828" y="1409"/>
      <point x="974" y="1343"/>
      <point x="1042" y="1231" type="curve"/>
      <point x="1066" y="1194"/>
      <point x="1078" y="1154"/>
      <point x="1078" y="1106" type="curve" smooth="yes"/>
      <point x="1078" y="980"/>
      <point x="1021" y="897"/>
      <point x="951" y="849" type="curve" smooth="yes"/>
      <point x="900" y="814" type="line"/>
      <point x="958" y="795" type="line" smooth="yes"/>
      <point x="1114" y="746"/>
      <point x="1266" y="613"/>
      <point x="1266" y="405" type="curve" smooth="yes"/>
      <point x="1266" y="84"/>
      <point x="1028" y="-61"/>
      <point x="735" y="-61" type="curve" smooth="yes"/>
      <point x="719" y="-61"/>
      <point x="695" y="-60"/>
      <point x="675" y="-60" type="curve" smooth="yes"/>
      <point x="642" y="-60" type="line"/>
      <point x="642" y="198" type="line"/>
      <point x="664" y="197"/>
      <point x="681" y="196"/>
      <point x="703" y="196" type="curve" smooth="yes"/>
      <point x="840" y="196"/>
      <point x="913" y="316"/>
      <point x="913" y="465" type="curve" smooth="yes"/>
      <point x="913" y="626"/>
      <point x="793" y="711"/>
    </contour>
  </outline>
</glyph>
<glyph name="ae" format="1">
  <advance width="2001"/>
  <unicode hex="00E6"/>
  <outline>
    <contour>
      <point x="1720" y="664" type="line"/>
      <point x="1715" y="680" type="line" smooth="yes"/>
      <point x="1686" y="771"/>
      <point x="1625" y="838"/>
      <point x="1512" y="838" type="curve" smooth="yes"/>
      <point x="1374" y="838"/>
      <point x="1310" y="736"/>
      <point x="1306" y="603" type="curve" smooth="yes"/>
      <point x="1306" y="585" type="line"/>
    </contour>
    <contour>
      <point x="820" y="186" type="line" smooth="yes"/>
      <point x="769" y="74"/>
      <point x="686" y="-10"/>
      <point x="533" y="-10" type="curve" smooth="yes"/>
      <point x="274" y="-10"/>
      <point x="91" y="235"/>
      <point x="91" y="520" type="curve" smooth="yes"/>
      <point x="91" y="758"/>
      <point x="218" y="921"/>
      <point x="372" y="996" type="curve" smooth="yes"/>
      <point x="424" y="1021"/>
      <point x="478" y="1034"/>
      <point x="535" y="1034" type="curve" smooth="yes"/>
      <point x="683" y="1034"/>
      <point x="775" y="930"/>
      <point x="819" y="809" type="curve" smooth="yes"/>
      <point x="873" y="661" type="line"/>
      <point x="873" y="1032" type="line"/>
      <point x="1186" y="1008" type="line"/>
      <point x="1186" y="882" type="line"/>
      <point x="1233" y="927" type="line" smooth="yes"/>
      <point x="1308" y="999"/>
      <point x="1399" y="1034"/>
      <point x="1512" y="1034" type="curve" smooth="yes"/>
      <point x="1787" y="1034"/>
      <point x="1958" y="839"/>
      <point x="1958" y="530" type="curve" smooth="yes"/>
      <point x="1958" y="521"/>
      <point x="1958" y="511"/>
      <point x="1957" y="503" type="curve"/>
      <point x="1313" y="419" type="line"/>
      <point x="1319" y="401" type="line" smooth="yes"/>
      <point x="1360" y="279"/>
      <point x="1443" y="214"/>
      <point x="1586" y="214" type="curve" smooth="yes"/>
      <point x="1677" y="214"/>
      <point x="1777" y="236"/>
      <point x="1876" y="273" type="curve"/>
      <point x="1914" y="60" type="line"/>
      <point x="1784" y="12"/>
      <point x="1647" y="-10"/>
      <point x="1497" y="-10" type="curve" smooth="yes"/>
      <point x="1384" y="-10"/>
      <point x="1297" y="41"/>
      <point x="1233" y="100" type="curve" smooth="yes"/>
      <point x="1186" y="142" type="line"/>
      <point x="1186" y="18" type="line"/>
      <point x="873" y="-8" type="line"/>
      <point x="873" y="302" type="line"/>
    </contour>
    <contour>
      <point x="873" y="501" type="curve" smooth="yes"/>
      <point x="873" y="502" type="line"/>
      <point x="873" y="521" type="line"/>
      <point x="873" y="522" type="line" smooth="yes"/>
      <point x="867" y="655"/>
      <point x="780" y="765"/>
      <point x="659" y="765" type="curve" smooth="yes"/>
      <point x="535" y="765"/>
      <point x="441" y="656"/>
      <point x="441" y="512" type="curve" smooth="yes"/>
      <point x="441" y="368"/>
      <point x="536" y="259"/>
      <point x="659" y="259" type="curve" smooth="yes"/>
      <point x="781" y="259"/>
      <point x="867" y="368"/>
    </contour>
  </outline>
</glyph>
<glyph name="eth" format="1">
  <advance width="1179"/>
  <unicode hex="00F0"/>
  <outline>
    <contour>
      <point x="1020" y="1132" type="line"/>
      <point x="1028" y="1117" type="line" smooth="yes"/>
      <point x="1088" y="998"/>
      <point x="1120" y="859"/>
      <point x="1120" y="698" type="curve" smooth="yes"/>
      <point x="1120" y="369"/>
      <point x="990" y="145"/>
      <point x="791" y="47" type="curve" smooth="yes"/>
      <point x="727" y="14"/>
      <point x="655" y="-3"/>
      <point x="575" y="-3" type="curve" smooth="yes"/>
      <point x="295" y="-3"/>
      <point x="56" y="145"/>
      <point x="56" y="441" type="curve" smooth="yes"/>
      <point x="56" y="715"/>
      <point x="237" y="844"/>
      <point x="494" y="844" type="curve" smooth="yes"/>
      <point x="590" y="844"/>
      <point x="653" y="815"/>
      <point x="713" y="762" type="curve" smooth="yes"/>
      <point x="766" y="715" type="line"/>
      <point x="757" y="789" type="line" smooth="yes"/>
      <point x="747" y="877"/>
      <point x="731" y="937"/>
      <point x="709" y="993" type="curve" smooth="yes"/>
      <point x="704" y="1007" type="line"/>
      <point x="576" y="954" type="line"/>
      <point x="555" y="1017" type="line"/>
      <point x="678" y="1068" type="line"/>
      <point x="625" y="1098" type="line" smooth="yes"/>
      <point x="596" y="1114"/>
      <point x="564" y="1123"/>
      <point x="530" y="1123" type="curve" smooth="yes"/>
      <point x="456" y="1123"/>
      <point x="360" y="1106"/>
      <point x="244" y="1076" type="curve"/>
      <point x="158" y="1318" type="line"/>
      <point x="309" y="1381"/>
      <point x="443" y="1411"/>
      <point x="575" y="1411" type="curve" smooth="yes"/>
      <point x="745" y="1411"/>
      <point x="870" y="1336"/>
      <point x="979" y="1193" type="curve" smooth="yes"/>
      <point x="985" y="1184" type="line"/>
      <point x="1118" y="1232" type="line"/>
      <point x="1141" y="1175" type="line"/>
    </contour>
    <contour>
      <point x="757" y="585" type="line"/>
      <point x="748" y="589" type="line" smooth="yes"/>
      <point x="695" y="612"/>
      <point x="634" y="627"/>
      <point x="566" y="627" type="curve" smooth="yes"/>
      <point x="471" y="627"/>
      <point x="397" y="556"/>
      <point x="397" y="440" type="curve" smooth="yes"/>
      <point x="397" y="319"/>
      <point x="481" y="260"/>
      <point x="575" y="260" type="curve" smooth="yes"/>
      <point x="723" y="260"/>
      <point x="744" y="452"/>
      <point x="756" y="574" type="curve" smooth="yes"/>
    </contour>
  </outline>
</glyph>
<glyph name="divide" format="1">
  <advance width="789"/>
  <unicode hex="00F7"/>
  <outline>
    <contour>
      <point x="742" y="497" type="line"/>
      <point x="64" y="497" type="line"/>
      <point x="64" y="549" type="line"/>
      <point x="742" y="549" type="line"/>
    </contour>
    <contour>
      <point x="402" y="359" type="curve" smooth="yes"/>
      <point x="473" y="359"/>
      <point x="536" y="298"/>
      <point x="536" y="213" type="curve" smooth="yes"/>
      <point x="536" y="126"/>
      <point x="474" y="69"/>
      <point x="402" y="69" type="curve" smooth="yes"/>
      <point x="329" y="69"/>
      <point x="265" y="127"/>
      <point x="265" y="213" type="curve" smooth="yes"/>
      <point x="265" y="300"/>
      <point x="329" y="359"/>
    </contour>
    <contour>
      <point x="402" y="979" type="curve" smooth="yes"/>
      <point x="472" y="979"/>
      <point x="536" y="917"/>
      <point x="536" y="833" type="curve" smooth="yes"/>
      <point x="536" y="746"/>
      <point x="474" y="689"/>
      <point x="402" y="689" type="curve" smooth="yes"/>
      <point x="327" y="689"/>
      <point x="265" y="745"/>
      <point x="265" y="833" type="curve" smooth="yes"/>
      <point x="265" y="918"/>
      <point x="331" y="979"/>
    </contour>
  </outline>
</glyph>
<glyph name="oslash" format="1">
  <advance width="1101"/>
  <unicode hex="00F8"/>
  <outline>
    <contour>
      <point x="686" y="1017" type="line"/>
      <point x="698" y="1013" type="line" smooth="yes"/>
      <point x="892" y="945"/>
      <point x="1050" y="793"/>
      <point x="1050" y="513" type="curve" smooth="yes"/>
      <point x="1050" y="171"/>
      <point x="815" y="-10"/>
      <point x="521" y="-10" type="curve" smooth="yes"/>
      <point x="508" y="-10" type="line" smooth="yes"/>
      <point x="501" y="-10"/>
      <point x="493" y="-8"/>
      <point x="484" y="-6" type="curve" smooth="yes"/>
      <point x="471" y="-3" type="line"/>
      <point x="441" y="-146" type="line"/>
      <point x="395" y="-146" type="line"/>
      <point x="429" y="17" type="line"/>
      <point x="418" y="21" type="line" smooth="yes"/>
      <point x="227" y="91"/>
      <point x="74" y="239"/>
      <point x="74" y="518" type="curve" smooth="yes"/>
      <point x="74" y="857"/>
      <point x="297" y="1032"/>
      <point x="587" y="1034" type="curve"/>
      <point x="603" y="1032"/>
      <point x="603" y="1035"/>
      <point x="616" y="1033" type="curve" smooth="yes"/>
      <point x="617" y="1032" type="line" smooth="yes"/>
      <point x="642" y="1032" type="line"/>
      <point x="673" y="1174" type="line"/>
      <point x="720" y="1174" type="line"/>
      <point x="687" y="1023" type="line"/>
    </contour>
    <contour>
      <point x="630" y="742" type="line"/>
      <point x="525" y="262" type="line"/>
      <point x="564" y="269" type="line" smooth="yes"/>
      <point x="669" y="286"/>
      <point x="751" y="384"/>
      <point x="751" y="514" type="curve" smooth="yes"/>
      <point x="751" y="604"/>
      <point x="713" y="676"/>
      <point x="663" y="716" type="curve" smooth="yes"/>
    </contour>
    <contour>
      <point x="589" y="760" type="line"/>
      <point x="571" y="759" type="line" smooth="yes"/>
      <point x="443" y="752"/>
      <point x="370" y="653"/>
      <point x="370" y="514" type="curve" smooth="yes"/>
      <point x="370" y="426"/>
      <point x="405" y="354"/>
      <point x="452" y="313" type="curve" smooth="yes"/>
      <point x="485" y="284" type="line"/>
    </contour>
  </outline>
</glyph>
<glyph name="thorn" format="1">
  <advance width="1281"/>
  <unicode hex="00FE"/>
  <outline>
    <contour>
      <point x="528" y="836" type="line" smooth="yes"/>
      <point x="585" y="970"/>
      <point x="672" y="1032"/>
      <point x="797" y="1032" type="curve" smooth="yes"/>
      <point x="1049" y="1032"/>
      <point x="1232" y="795"/>
      <point x="1232" y="510" type="curve" smooth="yes"/>
      <point x="1232" y="246"/>
      <point x="1084" y="69"/>
      <point x="904" y="6" type="curve" smooth="yes"/>
      <point x="870" y="-7"/>
      <point x="835" y="-13"/>
      <point x="799" y="-13" type="curve" smooth="yes"/>
      <point x="659" y="-13"/>
      <point x="576" y="72"/>
      <point x="528" y="184" type="curve" smooth="yes"/>
      <point x="476" y="303" type="line"/>
      <point x="476" y="-472" type="line"/>
      <point x="130" y="-472" type="line"/>
      <point x="130" y="1318" type="line"/>
      <point x="476" y="1371" type="line"/>
      <point x="476" y="714" type="line"/>
    </contour>
    <contour>
      <point x="681" y="256" type="curve" smooth="yes"/>
      <point x="799" y="256"/>
      <point x="890" y="368"/>
      <point x="890" y="510" type="curve" smooth="yes"/>
      <point x="890" y="656"/>
      <point x="799" y="763"/>
      <point x="681" y="763" type="curve" smooth="yes"/>
      <point x="564" y="763"/>
      <point x="479" y="656"/>
      <point x="476" y="519" type="curve"/>
      <point x="476" y="510" type="line" smooth="yes"/>
      <point x="476" y="369"/>
      <point x="564" y="256"/>
    </contour>
  </outline>
</glyph>
<glyph name="Dcroat" format="1">
  <advance width="1416"/>
  <unicode hex="0110"/>
  <outline>
    <contour>
      <point x="691" y="1320" type="line" smooth="yes"/>
      <point x="993" y="1320"/>
      <point x="1206" y="1170"/>
      <point x="1304" y="948" type="curve" smooth="yes"/>
      <point x="1337" y="872"/>
      <point x="1354" y="789"/>
      <point x="1354" y="698" type="curve" smooth="yes"/>
      <point x="1354" y="312"/>
      <point x="1060" y="56"/>
      <point x="691" y="56" type="curve" smooth="yes"/>
      <point x="158" y="56" type="line"/>
      <point x="158" y="625" type="line"/>
      <point x="104" y="625" type="line"/>
      <point x="104" y="734" type="line"/>
      <point x="158" y="734" type="line"/>
      <point x="158" y="1320" type="line"/>
    </contour>
    <contour>
      <point x="520" y="352" type="line"/>
      <point x="691" y="352" type="line" smooth="yes"/>
      <point x="877" y="352"/>
      <point x="981" y="510"/>
      <point x="981" y="701" type="curve" smooth="yes"/>
      <point x="981" y="885"/>
      <point x="865" y="1024"/>
      <point x="691" y="1024" type="curve" smooth="yes"/>
      <point x="520" y="1024" type="line"/>
      <point x="520" y="734" type="line"/>
      <point x="638" y="734" type="line"/>
      <point x="638" y="625" type="line"/>
      <point x="520" y="625" type="line"/>
    </contour>
  </outline>
</glyph>
<glyph name="dcroat" format="1">
  <advance width="1282"/>
  <unicode hex="0111"/>
  <outline>
    <contour>
      <point x="830" y="330" type="line"/>
      <point x="778" y="204" type="line" smooth="yes"/>
      <point x="730" y="86"/>
      <point x="651" y="-3"/>
      <point x="507" y="-3" type="curve" smooth="yes"/>
      <point x="279" y="-3"/>
      <point x="77" y="246"/>
      <point x="77" y="520" type="curve" smooth="yes"/>
      <point x="77" y="758"/>
      <point x="203" y="925"/>
      <point x="354" y="1002" type="curve"/>
      <point x="404" y="1028"/>
      <point x="457" y="1041"/>
      <point x="512" y="1041" type="curve" smooth="yes"/>
      <point x="639" y="1041"/>
      <point x="727" y="979"/>
      <point x="785" y="845" type="curve" smooth="yes"/>
      <point x="837" y="725" type="line"/>
      <point x="837" y="1147" type="line"/>
      <point x="711" y="1147" type="line"/>
      <point x="711" y="1256" type="line"/>
      <point x="837" y="1256" type="line"/>
      <point x="837" y="1328" type="line"/>
      <point x="1179" y="1380" type="line"/>
      <point x="1179" y="1256" type="line"/>
      <point x="1243" y="1256" type="line"/>
      <point x="1243" y="1147" type="line"/>
      <point x="1179" y="1147" type="line"/>
      <point x="1179" y="29" type="line"/>
      <point x="830" y="29" type="line"/>
    </contour>
    <contour>
      <point x="631" y="773" type="curve" smooth="yes"/>
      <point x="511" y="773"/>
      <point x="422" y="662"/>
      <point x="420" y="519" type="curve"/>
      <point x="420" y="376"/>
      <point x="508" y="266"/>
      <point x="626" y="266" type="curve" smooth="yes"/>
      <point x="742" y="266"/>
      <point x="827" y="377"/>
      <point x="830" y="513" type="curve"/>
      <point x="837" y="523" type="line"/>
      <point x="837" y="529" type="line" smooth="yes"/>
      <point x="832" y="661"/>
      <point x="748" y="773"/>
    </contour>
  </outline>
</glyph>
<glyph name="Hbar" format="1">
  <advance width="1496"/>
  <unicode hex="0126"/>
  <outline>
    <contour>
      <point x="169" y="995" type="line"/>
      <point x="113" y="995" type="line"/>
      <point x="113" y="1105" type="line"/>
      <point x="169" y="1105" type="line"/>
      <point x="169" y="1320" type="line"/>
      <point x="539" y="1320" type="line"/>
      <point x="539" y="1105" type="line"/>
      <point x="986" y="1105" type="line"/>
      <point x="986" y="1320" type="line"/>
      <point x="1357" y="1320" type="line"/>
      <point x="1357" y="1105" type="line"/>
      <point x="1415" y="1105" type="line"/>
      <point x="1415" y="995" type="line"/>
      <point x="1357" y="995" type="line"/>
      <point x="1357" y="56" type="line"/>
      <point x="986" y="56" type="line"/>
      <point x="986" y="586" type="line"/>
      <point x="539" y="586" type="line"/>
      <point x="539" y="56" type="line"/>
      <point x="169" y="56" type="line"/>
    </contour>
    <contour>
      <point x="539" y="995" type="line"/>
      <point x="539" y="813" type="line"/>
      <point x="986" y="813" type="line"/>
      <point x="986" y="995" type="line"/>
    </contour>
  </outline>
</glyph>
<glyph name="hbar" format="1">
  <advance width="1264"/>
  <unicode hex="0127"/>
  <outline>
    <contour>
      <point x="828" y="87" type="line"/>
      <point x="828" y="550" type="line" smooth="yes"/>
      <point x="828" y="647"/>
      <point x="782" y="774"/>
      <point x="673" y="774" type="curve" smooth="yes"/>
      <point x="548" y="774"/>
      <point x="464" y="665"/>
      <point x="464" y="536" type="curve" smooth="yes"/>
      <point x="464" y="87" type="line"/>
      <point x="126" y="87" type="line"/>
      <point x="126" y="1149" type="line"/>
      <point x="9" y="1149" type="line"/>
      <point x="9" y="1258" type="line"/>
      <point x="126" y="1258" type="line"/>
      <point x="126" y="1329" type="line"/>
      <point x="464" y="1382" type="line"/>
      <point x="464" y="1258" type="line"/>
      <point x="654" y="1258" type="line"/>
      <point x="654" y="1149" type="line"/>
      <point x="464" y="1149" type="line"/>
      <point x="464" y="677" type="line"/>
      <point x="517" y="813" type="line" smooth="yes"/>
      <point x="567" y="942"/>
      <point x="649" y="1043"/>
      <point x="792" y="1043" type="curve" smooth="yes"/>
      <point x="1030" y="1043"/>
      <point x="1173" y="823"/>
      <point x="1173" y="557" type="curve" smooth="yes"/>
      <point x="1173" y="87" type="line"/>
    </contour>
  </outline>
</glyph>
<glyph name="dotlessi" format="1">
  <advance width="675"/>
  <unicode hex="0131"/>
  <outline>
    <contour>
      <point x="110" y="946" type="line"/>
      <point x="469" y="946" type="line"/>
      <point x="469" y="372" type="line" smooth="yes"/>
      <point x="469" y="301"/>
      <point x="515" y="249"/>
      <point x="587" y="249" type="curve" smooth="yes"/>
      <point x="605" y="249"/>
      <point x="626" y="253"/>
      <point x="642" y="258" type="curve"/>
      <point x="658" y="43" type="line"/>
      <point x="587" y="6"/>
      <point x="514" y="-12"/>
      <point x="431" y="-12" type="curve" smooth="yes"/>
      <point x="216" y="-12"/>
      <point x="110" y="129"/>
      <point x="110" y="353" type="curve" smooth="yes"/>
    </contour>
  </outline>
</glyph>
<glyph name="kgreenlandic" format="1">
  <advance width="1166"/>
  <unicode hex="0138"/>
  <outline>
    <contour>
      <point x="1114" y="268" type="curve"/>
      <point x="1088" y="-7" type="line"/>
      <point x="1058" y="-9"/>
      <point x="1033" y="-10"/>
      <point x="1007" y="-10" type="curve" smooth="yes"/>
      <point x="752" y="-10"/>
      <point x="686" y="119"/>
      <point x="629" y="341" type="curve" smooth="yes"/>
      <point x="618" y="384" type="line"/>
      <point x="473" y="255" type="line"/>
      <point x="473" y="19" type="line"/>
      <point x="128" y="19" type="line"/>
      <point x="128" y="944" type="line"/>
      <point x="473" y="944" type="line"/>
      <point x="473" y="590" type="line"/>
      <point x="845" y="944" type="line"/>
      <point x="1025" y="944" type="line"/>
      <point x="1139" y="808" type="line"/>
      <point x="828" y="550" type="line"/>
      <point x="842" y="476" type="line"/>
      <point x="855" y="424" type="line"/>
      <point x="880" y="333"/>
      <point x="938" y="263"/>
      <point x="1061" y="263" type="curve" smooth="yes"/>
      <point x="1074" y="263"/>
      <point x="1093" y="265"/>
    </contour>
  </outline>
</glyph>
<glyph name="Lslash" format="1">
  <advance width="1014"/>
  <unicode hex="0141"/>
  <outline>
    <contour>
      <point x="203" y="700" type="line"/>
      <point x="26" y="655" type="line"/>
      <point x="26" y="762" type="line"/>
      <point x="203" y="807" type="line"/>
      <point x="203" y="1351" type="line"/>
      <point x="534" y="1351" type="line"/>
      <point x="534" y="900" type="line"/>
      <point x="803" y="976" type="line"/>
      <point x="803" y="868" type="line"/>
      <point x="534" y="792" type="line"/>
      <point x="534" y="289" type="line"/>
      <point x="980" y="289" type="line"/>
      <point x="980" y="57" type="line"/>
      <point x="203" y="57" type="line"/>
    </contour>
  </outline>
</glyph>
<glyph name="lslash" format="1">
  <advance width="727"/>
  <unicode hex="0142"/>
  <outline>
    <contour>
      <point x="676" y="268" type="curve"/>
      <point x="693" y="52" type="line"/>
      <point x="617" y="15"/>
      <point x="539" y="-3"/>
      <point x="458" y="-3" type="curve" smooth="yes"/>
      <point x="293" y="-3"/>
      <point x="195" y="143"/>
      <point x="195" y="378" type="curve" smooth="yes"/>
      <point x="195" y="707" type="line"/>
      <point x="30" y="655" type="line"/>
      <point x="30" y="767" type="line"/>
      <point x="195" y="820" type="line"/>
      <point x="195" y="1328" type="line"/>
      <point x="494" y="1380" type="line"/>
      <point x="494" y="927" type="line"/>
      <point x="663" y="982" type="line"/>
      <point x="663" y="869" type="line"/>
      <point x="494" y="814" type="line"/>
      <point x="494" y="397" type="line" smooth="yes"/>
      <point x="494" y="312"/>
      <point x="538" y="258"/>
      <point x="617" y="258" type="curve" smooth="yes"/>
      <point x="637" y="258"/>
      <point x="657" y="262"/>
    </contour>
  </outline>
</glyph>
<glyph name="Eng" format="1">
  <advance width="1456"/>
  <unicode hex="014A"/>
  <outline>
    <contour>
      <point x="1039" y="1280" type="line"/>
      <point x="1328" y="1280" type="line"/>
      <point x="1328" y="-43" type="line" smooth="yes"/>
      <point x="1328" y="-290"/>
      <point x="1218" y="-472"/>
      <point x="996" y="-472" type="curve" smooth="yes"/>
      <point x="918" y="-472"/>
      <point x="825" y="-449"/>
      <point x="720" y="-405" type="curve"/>
      <point x="785" y="-213" type="line"/>
      <point x="832" y="-228"/>
      <point x="866" y="-235"/>
      <point x="895" y="-235" type="curve" smooth="yes"/>
      <point x="993" y="-235"/>
      <point x="1041" y="-160"/>
      <point x="1041" y="-43" type="curve" smooth="yes"/>
      <point x="1041" y="-33" type="line"/>
      <point x="445" y="776" type="line"/>
      <point x="445" y="16" type="line"/>
      <point x="158" y="16" type="line"/>
      <point x="158" y="1280" type="line"/>
      <point x="500" y="1280" type="line"/>
      <point x="1039" y="526" type="line"/>
    </contour>
  </outline>
</glyph>
<glyph name="eng" format="1">
  <advance width="1260"/>
  <unicode hex="014B"/>
  <outline>
    <contour>
      <point x="807" y="1025" type="curve" smooth="yes"/>
      <point x="1036" y="1025"/>
      <point x="1168" y="779"/>
      <point x="1168" y="502" type="curve" smooth="yes"/>
      <point x="1168" y="-18" type="line" smooth="yes"/>
      <point x="1168" y="-298"/>
      <point x="1033" y="-473"/>
      <point x="779" y="-473" type="curve" smooth="yes"/>
      <point x="681" y="-473"/>
      <point x="589" y="-443"/>
      <point x="505" y="-386" type="curve"/>
      <point x="571" y="-190" type="line"/>
      <point x="612" y="-203"/>
      <point x="645" y="-210"/>
      <point x="677" y="-210" type="curve" smooth="yes"/>
      <point x="775" y="-210"/>
      <point x="825" y="-135"/>
      <point x="825" y="-18" type="curve" smooth="yes"/>
      <point x="825" y="514" type="line" smooth="yes"/>
      <point x="825" y="618"/>
      <point x="780" y="756"/>
      <point x="672" y="756" type="curve" smooth="yes"/>
      <point x="558" y="756"/>
      <point x="472" y="660"/>
      <point x="469" y="539" type="curve"/>
      <point x="469" y="69" type="line"/>
      <point x="124" y="69" type="line"/>
      <point x="124" y="966" type="line"/>
      <point x="469" y="1020" type="line"/>
      <point x="469" y="674" type="line"/>
      <point x="520" y="798" type="line" smooth="yes"/>
      <point x="572" y="923"/>
      <point x="661" y="1025"/>
    </contour>
  </outline>
</glyph>
<glyph name="OE" format="1">
  <advance width="1937"/>
  <unicode hex="0152"/>
  <outline>
    <contour>
      <point x="517" y="1329" type="curve" smooth="yes"/>
      <point x="567" y="1347"/>
      <point x="620" y="1356"/>
      <point x="678" y="1356" type="curve" smooth="yes"/>
      <point x="806" y="1356"/>
      <point x="882" y="1306"/>
      <point x="967" y="1251" type="curve" smooth="yes"/>
      <point x="989" y="1237" type="line"/>
      <point x="989" y="1319" type="line"/>
      <point x="1844" y="1319" type="line"/>
      <point x="1844" y="1079" type="line"/>
      <point x="1381" y="1079" type="line"/>
      <point x="1381" y="807" type="line"/>
      <point x="1803" y="807" type="line"/>
      <point x="1803" y="616" type="line"/>
      <point x="1381" y="616" type="line"/>
      <point x="1381" y="279" type="line"/>
      <point x="1844" y="279" type="line"/>
      <point x="1844" y="29" type="line"/>
      <point x="983" y="29" type="line"/>
      <point x="983" y="109" type="line"/>
      <point x="942" y="85" type="line" smooth="yes"/>
      <point x="837" y="25"/>
      <point x="744" y="-4"/>
      <point x="663" y="-4" type="curve" smooth="yes"/>
      <point x="339" y="-4"/>
      <point x="100" y="317"/>
      <point x="100" y="687" type="curve" smooth="yes"/>
      <point x="100" y="1010"/>
      <point x="288" y="1246"/>
    </contour>
    <contour>
      <point x="983" y="999" type="line"/>
      <point x="972" y="1001" type="line" smooth="yes"/>
      <point x="882" y="1022"/>
      <point x="792" y="1035"/>
      <point x="711" y="1035" type="curve" smooth="yes"/>
      <point x="531" y="1035"/>
      <point x="476" y="829"/>
      <point x="476" y="664" type="curve" smooth="yes"/>
      <point x="476" y="497"/>
      <point x="526" y="294"/>
      <point x="711" y="294" type="curve" smooth="yes"/>
      <point x="810" y="294"/>
      <point x="896" y="305"/>
      <point x="973" y="326" type="curve" smooth="yes"/>
      <point x="983" y="329" type="line"/>
    </contour>
  </outline>
</glyph>
<glyph name="oe" format="1">
  <advance width="1738"/>
  <unicode hex="0153"/>
  <outline>
    <contour>
      <point x="943" y="883" type="line"/>
      <point x="953" y="893" type="line" smooth="yes"/>
      <point x="1047" y="984"/>
      <point x="1152" y="1034"/>
      <point x="1278" y="1034" type="curve" smooth="yes"/>
      <point x="1541" y="1034"/>
      <point x="1694" y="833"/>
      <point x="1694" y="530" type="curve" smooth="yes"/>
      <point x="1694" y="503" type="line"/>
      <point x="1107" y="419" type="line"/>
      <point x="1112" y="402" type="line" smooth="yes"/>
      <point x="1149" y="285"/>
      <point x="1213" y="214"/>
      <point x="1351" y="214" type="curve" smooth="yes"/>
      <point x="1452" y="214"/>
      <point x="1538" y="244"/>
      <point x="1613" y="273" type="curve"/>
      <point x="1651" y="59" type="line"/>
      <point x="1540" y="13"/>
      <point x="1420" y="-10"/>
      <point x="1289" y="-10" type="curve" smooth="yes"/>
      <point x="1154" y="-10"/>
      <point x="1047" y="47"/>
      <point x="953" y="151" type="curve" smooth="yes"/>
      <point x="943" y="163" type="line"/>
      <point x="932" y="151" type="line" smooth="yes"/>
      <point x="842" y="47"/>
      <point x="739" y="-10"/>
      <point x="608" y="-10" type="curve" smooth="yes"/>
      <point x="306" y="-10"/>
      <point x="86" y="187"/>
      <point x="86" y="515" type="curve" smooth="yes"/>
      <point x="86" y="778"/>
      <point x="228" y="924"/>
      <point x="410" y="998" type="curve" smooth="yes"/>
      <point x="470" y="1022"/>
      <point x="537" y="1034"/>
      <point x="610" y="1034" type="curve" smooth="yes"/>
      <point x="735" y="1034"/>
      <point x="839" y="984"/>
      <point x="933" y="893" type="curve" smooth="yes"/>
    </contour>
    <contour>
      <point x="806" y="514" type="curve" smooth="yes"/>
      <point x="806" y="646"/>
      <point x="729" y="767"/>
      <point x="610" y="767" type="curve" smooth="yes"/>
      <point x="488" y="767"/>
      <point x="414" y="648"/>
      <point x="414" y="514" type="curve" smooth="yes"/>
      <point x="414" y="381"/>
      <point x="490" y="260"/>
      <point x="610" y="260" type="curve" smooth="yes"/>
      <point x="730" y="260"/>
      <point x="806" y="386"/>
    </contour>
    <contour>
      <point x="1455" y="665" type="line"/>
      <point x="1451" y="680" type="line" smooth="yes"/>
      <point x="1426" y="776"/>
      <point x="1374" y="838"/>
      <point x="1278" y="838" type="curve" smooth="yes"/>
      <point x="1145" y="838"/>
      <point x="1106" y="717"/>
      <point x="1101" y="602" type="curve" smooth="yes"/>
      <point x="1100" y="583" type="line"/>
    </contour>
  </outline>
</glyph>
<glyph name="Tbar" format="1">
  <advance width="1060"/>
  <unicode hex="0166"/>
  <outline>
    <contour>
      <point x="718" y="56" type="line"/>
      <point x="364" y="56" type="line"/>
      <point x="364" y="554" type="line"/>
      <point x="229" y="554" type="line"/>
      <point x="229" y="663" type="line"/>
      <point x="364" y="663" type="line"/>
      <point x="364" y="1091" type="line"/>
      <point x="89" y="1091" type="line"/>
      <point x="89" y="1320" type="line"/>
      <point x="993" y="1320" type="line"/>
      <point x="993" y="1091" type="line"/>
      <point x="718" y="1091" type="line"/>
      <point x="718" y="663" type="line"/>
      <point x="853" y="663" type="line"/>
      <point x="853" y="554" type="line"/>
      <point x="718" y="554" type="line"/>
    </contour>
  </outline>
</glyph>
<glyph name="tbar" format="1">
  <advance width="784"/>
  <unicode hex="0167"/>
  <outline>
    <contour>
      <point x="707" y="553" type="line"/>
      <point x="492" y="553" type="line"/>
      <point x="492" y="405" type="line" smooth="yes"/>
      <point x="492" y="304"/>
      <point x="564" y="258"/>
      <point x="646" y="258" type="curve" smooth="yes"/>
      <point x="667" y="258"/>
      <point x="689" y="262"/>
      <point x="709" y="268" type="curve"/>
      <point x="721" y="53" type="line"/>
      <point x="639" y="15"/>
      <point x="553" y="-3"/>
      <point x="464" y="-3" type="curve" smooth="yes"/>
      <point x="298" y="-3"/>
      <point x="192" y="144"/>
      <point x="192" y="382" type="curve" smooth="yes"/>
      <point x="192" y="553" type="line"/>
      <point x="83" y="553" type="line"/>
      <point x="83" y="663" type="line"/>
      <point x="194" y="663" type="line"/>
      <point x="194" y="814" type="line"/>
      <point x="70" y="814" type="line"/>
      <point x="70" y="1006" type="line"/>
      <point x="194" y="1006" type="line"/>
      <point x="194" y="1259" type="line"/>
      <point x="492" y="1373" type="line"/>
      <point x="492" y="1005" type="line"/>
      <point x="719" y="1005" type="line"/>
      <point x="719" y="814" type="line"/>
      <point x="492" y="814" type="line"/>
      <point x="492" y="663" type="line"/>
      <point x="707" y="663" type="line"/>
    </contour>
  </outline>
</glyph>
<glyph name="florin" format="1">
  <advance width="756"/>
  <unicode hex="0192"/>
  <outline>
    <contour>
      <point x="67" y="1018" type="line"/>
      <point x="188" y="1018" type="line"/>
      <point x="188" y="1152" type="line" smooth="yes"/>
      <point x="188" y="1399"/>
      <point x="286" y="1542"/>
      <point x="475" y="1542" type="curve" smooth="yes"/>
      <point x="548" y="1542"/>
      <point x="646" y="1520"/>
      <point x="754" y="1477" type="curve"/>
      <point x="743" y="1267" type="line"/>
      <point x="699" y="1280"/>
      <point x="663" y="1286"/>
      <point x="630" y="1286" type="curve" smooth="yes"/>
      <point x="540" y="1286"/>
      <point x="495" y="1230"/>
      <point x="495" y="1139" type="curve" smooth="yes"/>
      <point x="495" y="1018" type="line"/>
      <point x="737" y="1018" type="line"/>
      <point x="737" y="831" type="line"/>
      <point x="495" y="831" type="line"/>
      <point x="495" y="90" type="line"/>
      <point x="188" y="90" type="line"/>
      <point x="188" y="831" type="line"/>
      <point x="67" y="831" type="line"/>
    </contour>
  </outline>
</glyph>
<glyph name="dotlessj" format="1">
  <advance width="507"/>
  <unicode hex="0237"/>
  <outline>
    <contour>
      <point x="73" y="938" type="line"/>
      <point x="399" y="938" type="line"/>
      <point x="399" y="39" type="line" smooth="yes"/>
      <point x="399" y="-239"/>
      <point x="261" y="-414"/>
      <point x="33" y="-414" type="curve" smooth="yes"/>
      <point x="-58" y="-414"/>
      <point x="-159" y="-384"/>
      <point x="-251" y="-327" type="curve"/>
      <point x="-179" y="-131" type="line"/>
      <point x="-129" y="-146"/>
      <point x="-91" y="-153"/>
      <point x="-60" y="-153" type="curve" smooth="yes"/>
      <point x="32" y="-153"/>
      <point x="73" y="-77"/>
      <point x="73" y="39" type="curve" smooth="yes"/>
    </contour>
  </outline>
</glyph>
<glyph name="circumflex" format="1">
  <advance width="847"/>
  <unicode hex="02C6"/>
  <outline>
    <contour>
      <point x="315" y="1169" type="line"/>
      <point x="63" y="1169" type="line"/>
      <point x="276" y="1601" type="line"/>
      <point x="545" y="1601" type="line"/>
      <point x="759" y="1169" type="line"/>
      <point x="507" y="1169" type="line"/>
      <point x="452" y="1358" type="line"/>
      <point x="409" y="1531" type="line"/>
      <point x="370" y="1358" type="line"/>
    </contour>
  </outline>
</glyph>
<glyph name="caron" format="1">
  <advance width="847"/>
  <unicode hex="02C7"/>
  <outline>
    <contour>
      <point x="369" y="1412" type="line"/>
      <point x="409" y="1234" type="line"/>
      <point x="433" y="1336" type="line" smooth="yes"/>
      <point x="453" y="1420"/>
      <point x="484" y="1516"/>
      <point x="507" y="1601" type="curve"/>
      <point x="759" y="1601" type="line"/>
      <point x="545" y="1169" type="line"/>
      <point x="276" y="1169" type="line"/>
      <point x="63" y="1601" type="line"/>
      <point x="315" y="1601" type="line"/>
    </contour>
  </outline>
</glyph>
<glyph name="breve" format="1">
  <advance width="736"/>
  <unicode hex="02D8"/>
  <outline>
    <contour>
      <point x="82" y="1464" type="curve"/>
      <point x="243" y="1464" type="line"/>
      <point x="256" y="1393"/>
      <point x="312" y="1345"/>
      <point x="376" y="1345" type="curve" smooth="yes"/>
      <point x="443" y="1345"/>
      <point x="491" y="1396"/>
      <point x="501" y="1464" type="curve"/>
      <point x="668" y="1464" type="line"/>
      <point x="656" y="1290"/>
      <point x="541" y="1186"/>
      <point x="376" y="1186" type="curve" smooth="yes"/>
      <point x="209" y="1186"/>
      <point x="94" y="1292"/>
    </contour>
  </outline>
</glyph>
<glyph name="dotaccent" format="1">
  <advance width="558"/>
  <unicode hex="02D9"/>
  <outline>
    <contour>
      <point x="286" y="1541" type="curve" smooth="yes"/>
      <point x="391" y="1541"/>
      <point x="478" y="1469"/>
      <point x="478" y="1372" type="curve" smooth="yes"/>
      <point x="478" y="1271"/>
      <point x="394" y="1201"/>
      <point x="286" y="1201" type="curve" smooth="yes"/>
      <point x="176" y="1201"/>
      <point x="94" y="1270"/>
      <point x="94" y="1372" type="curve" smooth="yes"/>
      <point x="94" y="1471"/>
      <point x="180" y="1541"/>
    </contour>
  </outline>
</glyph>
<glyph name="ring" format="1">
  <advance width="736"/>
  <unicode hex="02DA"/>
  <outline>
    <contour>
      <point x="242" y="1500" type="curve" smooth="yes"/>
      <point x="242" y="1413"/>
      <point x="303" y="1352"/>
      <point x="377" y="1352" type="curve" smooth="yes"/>
      <point x="454" y="1352"/>
      <point x="505" y="1416"/>
      <point x="505" y="1500" type="curve" smooth="yes"/>
      <point x="505" y="1584"/>
      <point x="450" y="1652"/>
      <point x="374" y="1652" type="curve" smooth="yes"/>
      <point x="298" y="1652"/>
      <point x="242" y="1585"/>
    </contour>
    <contour>
      <point x="377" y="1811" type="curve" smooth="yes"/>
      <point x="552" y="1811"/>
      <point x="670" y="1690"/>
      <point x="670" y="1500" type="curve" smooth="yes"/>
      <point x="670" y="1310"/>
      <point x="551" y="1193"/>
      <point x="377" y="1193" type="curve" smooth="yes"/>
      <point x="202" y="1193"/>
      <point x="82" y="1311"/>
      <point x="82" y="1500" type="curve" smooth="yes"/>
      <point x="82" y="1691"/>
      <point x="202" y="1811"/>
    </contour>
  </outline>
</glyph>
<glyph name="ogonek" format="1">
  <advance width="569"/>
  <unicode hex="02DB"/>
  <outline>
    <contour>
      <point x="440" y="-418" type="curve"/>
      <point x="440" y="-436" type="line"/>
      <point x="381" y="-459"/>
      <point x="329" y="-469"/>
      <point x="279" y="-469" type="curve" smooth="yes"/>
      <point x="167" y="-469"/>
      <point x="93" y="-425"/>
      <point x="93" y="-329" type="curve" smooth="yes"/>
      <point x="93" y="-239"/>
      <point x="177" y="-175"/>
      <point x="240" y="-121" type="curve" smooth="yes"/>
      <point x="295" y="-75" type="line" smooth="yes"/>
      <point x="309" y="-63"/>
      <point x="327" y="-52"/>
      <point x="341" y="-39" type="curve"/>
      <point x="391" y="-39" type="line"/>
      <point x="359" y="-102"/>
      <point x="327" y="-157"/>
      <point x="290" y="-210" type="curve"/>
      <point x="271" y="-240" type="line"/>
      <point x="257" y="-262"/>
      <point x="250" y="-298"/>
      <point x="249" y="-324" type="curve" smooth="yes"/>
      <point x="249" y="-324" type="line"/>
      <point x="249" y="-325" type="line" smooth="yes"/>
      <point x="249" y="-393"/>
      <point x="303" y="-425"/>
      <point x="375" y="-425" type="curve" smooth="yes"/>
      <point x="392" y="-425"/>
      <point x="416" y="-422"/>
    </contour>
  </outline>
</glyph>
<glyph name="tilde" format="1">
  <advance width="974"/>
  <unicode hex="02DC"/>
  <outline>
    <contour>
      <point x="562" y="1523" type="line" smooth="yes"/>
      <point x="562" y="1523" type="line" smooth="yes"/>
      <point x="560" y="1524"/>
      <point x="557" y="1526"/>
      <point x="554" y="1528" type="curve" smooth="yes"/>
      <point x="553" y="1529" type="line" smooth="yes"/>
      <point x="550" y="1531"/>
      <point x="546" y="1534"/>
      <point x="543" y="1537" type="curve" smooth="yes"/>
      <point x="507" y="1563" type="line"/>
      <point x="486" y="1575"/>
      <point x="456" y="1588"/>
      <point x="426" y="1588" type="curve" smooth="yes"/>
      <point x="400" y="1588"/>
      <point x="376" y="1582"/>
      <point x="351" y="1567" type="curve" smooth="yes"/>
      <point x="252" y="1514"/>
      <point x="185" y="1399"/>
      <point x="137" y="1264" type="curve"/>
      <point x="316" y="1191" type="line"/>
      <point x="333" y="1236"/>
      <point x="363" y="1299"/>
      <point x="425" y="1299" type="curve" smooth="yes"/>
      <point x="451" y="1299"/>
      <point x="474" y="1288"/>
      <point x="496" y="1266" type="curve" smooth="yes"/>
      <point x="559" y="1224"/>
      <point x="601" y="1176"/>
      <point x="683" y="1176" type="curve" smooth="yes"/>
      <point x="768" y="1176"/>
      <point x="831" y="1230"/>
      <point x="878" y="1306" type="curve" smooth="yes"/>
      <point x="883" y="1313"/>
      <point x="887" y="1321"/>
      <point x="892" y="1328" type="curve" smooth="yes"/>
      <point x="919" y="1372"/>
      <point x="940" y="1422"/>
      <point x="958" y="1471" type="curve"/>
      <point x="780" y="1558" type="line"/>
      <point x="759" y="1506"/>
      <point x="726" y="1468"/>
      <point x="682" y="1465" type="curve" smooth="yes"/>
      <point x="677" y="1465" type="line" smooth="yes"/>
      <point x="645" y="1465"/>
      <point x="620" y="1480"/>
      <point x="599" y="1499" type="curve" smooth="yes"/>
      <point x="598" y="1499" type="line"/>
      <point x="598" y="1499" type="line"/>
    </contour>
    <contour>
      <point x="569" y="1552" type="curve" smooth="yes"/>
      <point x="612" y="1524" type="line" smooth="yes"/>
      <point x="615" y="1523"/>
      <point x="617" y="1521"/>
      <point x="619" y="1520" type="curve" smooth="yes"/>
      <point x="636" y="1512"/>
      <point x="653" y="1508"/>
      <point x="677" y="1508" type="curve" smooth="yes"/>
      <point x="712" y="1508"/>
      <point x="740" y="1531"/>
      <point x="759" y="1574" type="curve" smooth="yes"/>
      <point x="765" y="1595" type="line"/>
      <point x="982" y="1506" type="line" smooth="yes"/>
      <point x="986" y="1504"/>
      <point x="991" y="1503"/>
      <point x="995" y="1501" type="curve"/>
      <point x="990" y="1475" type="line" smooth="yes"/>
      <point x="971" y="1423"/>
      <point x="948" y="1364"/>
      <point x="916" y="1312" type="curve" smooth="yes"/>
      <point x="912" y="1305"/>
      <point x="907" y="1298"/>
      <point x="902" y="1291" type="curve" smooth="yes"/>
      <point x="852" y="1210"/>
      <point x="781" y="1147"/>
      <point x="683" y="1147" type="curve" smooth="yes"/>
      <point x="591" y="1147"/>
      <point x="540" y="1202"/>
      <point x="482" y="1241" type="curve" smooth="yes"/>
      <point x="465" y="1251"/>
      <point x="446" y="1256"/>
      <point x="425" y="1256" type="curve" smooth="yes"/>
      <point x="377" y="1256"/>
      <point x="353" y="1214"/>
      <point x="337" y="1175" type="curve" smooth="yes"/>
      <point x="332" y="1154" type="line"/>
      <point x="112" y="1243" type="line" smooth="yes"/>
      <point x="109" y="1244"/>
      <point x="104" y="1246"/>
      <point x="100" y="1248" type="curve"/>
      <point x="105" y="1270" type="line" smooth="yes"/>
      <point x="154" y="1408"/>
      <point x="225" y="1534"/>
      <point x="339" y="1593" type="curve" smooth="yes"/>
      <point x="367" y="1609"/>
      <point x="396" y="1617"/>
      <point x="426" y="1617" type="curve" smooth="yes"/>
      <point x="463" y="1617"/>
      <point x="496" y="1602"/>
      <point x="520" y="1588" type="curve" smooth="yes"/>
      <point x="520" y="1588" type="line" smooth="yes"/>
      <point x="521" y="1587" type="line" smooth="yes"/>
      <point x="560" y="1560" type="line"/>
      <point x="561" y="1558" type="line" smooth="yes"/>
      <point x="564" y="1555"/>
      <point x="567" y="1553"/>
    </contour>
  </outline>
</glyph>
<glyph name="hungarumlaut" format="1">
  <advance width="1158"/>
  <unicode hex="02DD"/>
  <outline>
    <contour>
      <point x="261" y="1981" type="line"/>
      <point x="559" y="1886" type="line"/>
      <point x="318" y="1241" type="line"/>
      <point x="134" y="1294" type="line"/>
    </contour>
    <contour>
      <point x="783" y="1980" type="line"/>
      <point x="1076" y="1828" type="line"/>
      <point x="723" y="1243" type="line"/>
      <point x="571" y="1328" type="line"/>
    </contour>
  </outline>
</glyph>
<glyph name="uni030F" format="1">
  <advance width="1157"/>
  <unicode hex="030F"/>
  <outline>
    <contour>
      <point x="603" y="1886" type="line"/>
      <point x="903" y="1981" type="line"/>
      <point x="1030" y="1294" type="line"/>
      <point x="846" y="1241" type="line"/>
    </contour>
    <contour>
      <point x="88" y="1828" type="line"/>
      <point x="381" y="1980" type="line"/>
      <point x="592" y="1328" type="line"/>
      <point x="439" y="1243" type="line"/>
    </contour>
  </outline>
</glyph>
<glyph name="uni0311" format="1">
  <advance width="736"/>
  <unicode hex="0311"/>
  <outline>
    <contour>
      <point x="376" y="1339" type="curve" smooth="yes"/>
      <point x="307" y="1339"/>
      <point x="255" y="1287"/>
      <point x="243" y="1218" type="curve"/>
      <point x="63" y="1218" type="line"/>
      <point x="74" y="1408"/>
      <point x="196" y="1526"/>
      <point x="376" y="1526" type="curve" smooth="yes"/>
      <point x="557" y="1526"/>
      <point x="677" y="1405"/>
      <point x="689" y="1218" type="curve"/>
      <point x="509" y="1218" type="line"/>
      <point x="497" y="1290"/>
      <point x="444" y="1339"/>
    </contour>
  </outline>
</glyph>
<glyph name="Delta" format="1">
  <advance width="1067"/>
  <unicode hex="0394"/>
  <outline>
    <contour>
      <point x="1003" y="56" type="line"/>
      <point x="70" y="56" type="line"/>
      <point x="399" y="1320" type="line"/>
      <point x="670" y="1320" type="line"/>
    </contour>
    <contour>
      <point x="536" y="1177" type="line"/>
      <point x="342" y="220" type="line"/>
      <point x="735" y="220" type="line"/>
    </contour>
  </outline>
</glyph>
<glyph name="mu" format="1">
  <advance width="1129"/>
  <unicode hex="03BC"/>
  <outline>
    <contour>
      <point x="469" y="299" type="line"/>
      <point x="475" y="295" type="line" smooth="yes"/>
      <point x="514" y="266"/>
      <point x="558" y="248"/>
      <point x="605" y="248" type="curve" smooth="yes"/>
      <point x="680" y="248"/>
      <point x="737" y="310"/>
      <point x="737" y="394" type="curve" smooth="yes"/>
      <point x="737" y="941" type="line"/>
      <point x="1063" y="941" type="line"/>
      <point x="1063" y="407" type="line" smooth="yes"/>
      <point x="1063" y="160"/>
      <point x="903" y="-17"/>
      <point x="681" y="-17" type="curve" smooth="yes"/>
      <point x="622" y="-17"/>
      <point x="561" y="-1"/>
      <point x="497" y="33" type="curve" smooth="yes"/>
      <point x="459" y="54" type="line"/>
      <point x="459" y="-248" type="line"/>
      <point x="135" y="-272" type="line"/>
      <point x="135" y="941" type="line"/>
      <point x="469" y="941" type="line"/>
    </contour>
  </outline>
</glyph>
<glyph name="pi" format="1">
  <advance width="1284"/>
  <unicode hex="03C0"/>
  <outline>
    <contour>
      <point x="65" y="43" type="curve"/>
      <point x="82" y="258" type="line"/>
      <point x="101" y="252"/>
      <point x="118" y="249"/>
      <point x="137" y="249" type="curve" smooth="yes"/>
      <point x="209" y="249"/>
      <point x="254" y="301"/>
      <point x="254" y="372" type="curve" smooth="yes"/>
      <point x="254" y="946" type="line"/>
      <point x="1174" y="946" type="line"/>
      <point x="1174" y="22" type="line"/>
      <point x="827" y="22" type="line"/>
      <point x="827" y="837" type="line"/>
      <point x="586" y="837" type="line"/>
      <point x="586" y="353" type="line" smooth="yes"/>
      <point x="586" y="128"/>
      <point x="489" y="-12"/>
      <point x="292" y="-12" type="curve" smooth="yes"/>
      <point x="209" y="-12"/>
      <point x="133" y="7"/>
    </contour>
  </outline>
</glyph>
<glyph name="endash" format="1">
  <advance width="834"/>
  <unicode hex="2013"/>
  <outline>
    <contour>
      <point x="743" y="334" type="line"/>
      <point x="110" y="334" type="line"/>
      <point x="110" y="444" type="line"/>
      <point x="743" y="444" type="line"/>
    </contour>
  </outline>
</glyph>
<glyph name="emdash" format="1">
  <advance width="1101"/>
  <unicode hex="2014"/>
  <outline>
    <contour>
      <point x="1008" y="334" type="line"/>
      <point x="116" y="334" type="line"/>
      <point x="116" y="444" type="line"/>
      <point x="1008" y="444" type="line"/>
    </contour>
  </outline>
</glyph>
<glyph name="quoteleft" format="1">
  <advance width="528"/>
  <unicode hex="2018"/>
  <outline>
    <contour>
      <point x="316" y="1390" type="curve" smooth="yes"/>
      <point x="349" y="1394"/>
      <point x="392" y="1395"/>
      <point x="436" y="1396" type="curve"/>
      <point x="436" y="1224" type="line"/>
      <point x="368" y="1224" type="line" smooth="yes"/>
      <point x="277" y="1224"/>
      <point x="254" y="1175"/>
      <point x="254" y="1093" type="curve" smooth="yes"/>
      <point x="254" y="1064" type="line"/>
      <point x="436" y="1064" type="line"/>
      <point x="436" y="753" type="line"/>
      <point x="91" y="753" type="line"/>
      <point x="91" y="773" type="line" smooth="yes"/>
      <point x="91" y="793"/>
      <point x="91" y="817"/>
      <point x="92" y="846" type="curve" smooth="yes"/>
      <point x="95" y="972" type="line"/>
      <point x="103" y="1226"/>
      <point x="110" y="1366"/>
    </contour>
  </outline>
</glyph>
<glyph name="quoteright" format="1">
  <advance width="519"/>
  <unicode hex="2019"/>
  <outline>
    <contour>
      <point x="340" y="760" type="curve" smooth="yes"/>
      <point x="286" y="731"/>
      <point x="204" y="723"/>
      <point x="107" y="722" type="curve"/>
      <point x="107" y="894" type="line"/>
      <point x="127" y="893"/>
      <point x="144" y="892"/>
      <point x="163" y="892" type="curve" smooth="yes"/>
      <point x="257" y="892"/>
      <point x="292" y="932"/>
      <point x="292" y="1025" type="curve" smooth="yes"/>
      <point x="292" y="1054" type="line"/>
      <point x="107" y="1054" type="line"/>
      <point x="107" y="1365" type="line"/>
      <point x="452" y="1365" type="line"/>
      <point x="450" y="1272" type="line"/>
      <point x="446" y="1046"/>
      <point x="460" y="825"/>
    </contour>
  </outline>
</glyph>
<glyph name="quotesinglbase" format="1">
  <advance width="389"/>
  <unicode hex="201A"/>
  <outline>
    <contour>
      <point x="258" y="-216" type="line"/>
      <point x="122" y="-216" type="line"/>
      <point x="87" y="214" type="line"/>
      <point x="307" y="214" type="line"/>
    </contour>
  </outline>
</glyph>
<glyph name="quotedblleft" format="1">
  <advance width="1020"/>
  <unicode hex="201C"/>
  <outline>
    <contour>
      <point x="326" y="1390" type="curve"/>
      <point x="355" y="1394"/>
      <point x="391" y="1395"/>
      <point x="429" y="1396" type="curve"/>
      <point x="429" y="1224" type="line"/>
      <point x="372" y="1224" type="line" smooth="yes"/>
      <point x="287" y="1224"/>
      <point x="264" y="1174"/>
      <point x="264" y="1093" type="curve" smooth="yes"/>
      <point x="264" y="1064" type="line"/>
      <point x="429" y="1064" type="line"/>
      <point x="429" y="753" type="line"/>
      <point x="101" y="753" type="line"/>
      <point x="101" y="773" type="line" smooth="yes"/>
      <point x="101" y="793"/>
      <point x="101" y="817"/>
      <point x="102" y="846" type="curve" smooth="yes"/>
      <point x="105" y="972" type="line"/>
      <point x="113" y="1226"/>
      <point x="120" y="1366"/>
    </contour>
    <contour>
      <point x="813" y="1391" type="curve" smooth="yes"/>
      <point x="845" y="1394"/>
      <point x="886" y="1395"/>
      <point x="928" y="1396" type="curve"/>
      <point x="928" y="1224" type="line"/>
      <point x="861" y="1224" type="line" smooth="yes"/>
      <point x="771" y="1224"/>
      <point x="744" y="1176"/>
      <point x="744" y="1093" type="curve" smooth="yes"/>
      <point x="744" y="1064" type="line"/>
      <point x="928" y="1064" type="line"/>
      <point x="928" y="753" type="line"/>
      <point x="600" y="753" type="line"/>
      <point x="600" y="773" type="line" smooth="yes"/>
      <point x="600" y="793"/>
      <point x="600" y="817"/>
      <point x="601" y="846" type="curve" smooth="yes"/>
      <point x="603" y="972" type="line" smooth="yes"/>
      <point x="609" y="1227"/>
      <point x="617" y="1371"/>
    </contour>
  </outline>
</glyph>
<glyph name="quotedblright" format="1">
  <advance width="1011"/>
  <unicode hex="201D"/>
  <outline>
    <contour>
      <point x="348" y="760" type="curve"/>
      <point x="295" y="731"/>
      <point x="214" y="723"/>
      <point x="117" y="722" type="curve"/>
      <point x="117" y="894" type="line"/>
      <point x="137" y="893"/>
      <point x="154" y="892"/>
      <point x="173" y="892" type="curve" smooth="yes"/>
      <point x="267" y="892"/>
      <point x="302" y="932"/>
      <point x="302" y="1025" type="curve" smooth="yes"/>
      <point x="302" y="1054" type="line"/>
      <point x="117" y="1054" type="line"/>
      <point x="117" y="1365" type="line"/>
      <point x="446" y="1365" type="line"/>
      <point x="444" y="1272" type="line"/>
      <point x="441" y="1046"/>
      <point x="452" y="824"/>
    </contour>
    <contour>
      <point x="731" y="730" type="curve" smooth="yes"/>
      <point x="698" y="725"/>
      <point x="658" y="723"/>
      <point x="616" y="722" type="curve"/>
      <point x="616" y="894" type="line"/>
      <point x="633" y="893"/>
      <point x="647" y="892"/>
      <point x="664" y="892" type="curve" smooth="yes"/>
      <point x="751" y="892"/>
      <point x="782" y="934"/>
      <point x="782" y="1025" type="curve" smooth="yes"/>
      <point x="782" y="1054" type="line"/>
      <point x="616" y="1054" type="line"/>
      <point x="616" y="1365" type="line"/>
      <point x="944" y="1365" type="line"/>
      <point x="942" y="1272" type="line"/>
      <point x="937" y="980"/>
      <point x="963" y="760"/>
    </contour>
  </outline>
</glyph>
<glyph name="quotedblbase" format="1">
  <advance width="762"/>
  <unicode hex="201E"/>
  <outline>
    <contour>
      <point x="635" y="-169" type="line"/>
      <point x="499" y="-169" type="line"/>
      <point x="463" y="261" type="line"/>
      <point x="684" y="261" type="line"/>
    </contour>
    <contour>
      <point x="262" y="-169" type="line"/>
      <point x="126" y="-169" type="line"/>
      <point x="92" y="261" type="line"/>
      <point x="311" y="261" type="line"/>
    </contour>
  </outline>
</glyph>
<glyph name="dagger" format="1">
  <advance width="646"/>
  <unicode hex="2020"/>
  <outline>
    <contour>
      <point x="295" y="921" type="line"/>
      <point x="59" y="921" type="line"/>
      <point x="59" y="985" type="line"/>
      <point x="295" y="985" type="line"/>
      <point x="295" y="1320" type="line"/>
      <point x="365" y="1320" type="line"/>
      <point x="365" y="985" type="line"/>
      <point x="601" y="985" type="line"/>
      <point x="601" y="921" type="line"/>
      <point x="365" y="921" type="line"/>
      <point x="365" y="56" type="line"/>
      <point x="295" y="56" type="line"/>
    </contour>
  </outline>
</glyph>
<glyph name="daggerdbl" format="1">
  <advance width="678"/>
  <unicode hex="2021"/>
  <outline>
    <contour>
      <point x="311" y="446" type="line"/>
      <point x="75" y="446" type="line"/>
      <point x="75" y="508" type="line"/>
      <point x="311" y="508" type="line"/>
      <point x="311" y="921" type="line"/>
      <point x="75" y="921" type="line"/>
      <point x="75" y="985" type="line"/>
      <point x="311" y="985" type="line"/>
      <point x="311" y="1320" type="line"/>
      <point x="381" y="1320" type="line"/>
      <point x="381" y="985" type="line"/>
      <point x="617" y="985" type="line"/>
      <point x="617" y="921" type="line"/>
      <point x="381" y="921" type="line"/>
      <point x="381" y="508" type="line"/>
      <point x="617" y="508" type="line"/>
      <point x="617" y="446" type="line"/>
      <point x="381" y="446" type="line"/>
      <point x="381" y="56" type="line"/>
      <point x="311" y="56" type="line"/>
    </contour>
  </outline>
</glyph>
<glyph name="bullet" format="1">
  <advance width="897"/>
  <unicode hex="2022"/>
  <outline>
    <contour>
      <point x="459" y="901" type="curve" smooth="yes"/>
      <point x="667" y="901"/>
      <point x="833" y="761"/>
      <point x="833" y="530" type="curve" smooth="yes"/>
      <point x="833" y="297"/>
      <point x="665" y="159"/>
      <point x="457" y="159" type="curve" smooth="yes"/>
      <point x="250" y="159"/>
      <point x="83" y="300"/>
      <point x="83" y="530" type="curve" smooth="yes"/>
      <point x="83" y="759"/>
      <point x="252" y="901"/>
    </contour>
  </outline>
</glyph>
<glyph name="ellipsis" format="1">
  <advance width="1683"/>
  <unicode hex="2026"/>
  <outline>
    <contour>
      <point x="282" y="345" type="curve" smooth="yes"/>
      <point x="384" y="345"/>
      <point x="466" y="274"/>
      <point x="466" y="176" type="curve" smooth="yes"/>
      <point x="466" y="74"/>
      <point x="386" y="5"/>
      <point x="282" y="5" type="curve" smooth="yes"/>
      <point x="172" y="5"/>
      <point x="90" y="74"/>
      <point x="90" y="176" type="curve" smooth="yes"/>
      <point x="90" y="275"/>
      <point x="176" y="345"/>
    </contour>
    <contour>
      <point x="860" y="345" type="curve" smooth="yes"/>
      <point x="960" y="345"/>
      <point x="1042" y="274"/>
      <point x="1042" y="176" type="curve" smooth="yes"/>
      <point x="1042" y="74"/>
      <point x="962" y="5"/>
      <point x="860" y="5" type="curve" smooth="yes"/>
      <point x="755" y="5"/>
      <point x="676" y="73"/>
      <point x="676" y="176" type="curve" smooth="yes"/>
      <point x="676" y="276"/>
      <point x="758" y="345"/>
    </contour>
    <contour>
      <point x="1436" y="345" type="curve" smooth="yes"/>
      <point x="1542" y="345"/>
      <point x="1628" y="274"/>
      <point x="1628" y="176" type="curve" smooth="yes"/>
      <point x="1628" y="74"/>
      <point x="1545" y="5"/>
      <point x="1436" y="5" type="curve" smooth="yes"/>
      <point x="1330" y="5"/>
      <point x="1252" y="73"/>
      <point x="1252" y="176" type="curve" smooth="yes"/>
      <point x="1252" y="277"/>
      <point x="1332" y="345"/>
    </contour>
  </outline>
</glyph>
<glyph name="perthousand" format="1">
  <advance width="2489"/>
  <unicode hex="2030"/>
  <outline>
    <contour>
      <point x="754" y="56" type="line"/>
      <point x="684" y="56" type="line"/>
      <point x="983" y="1320" type="line"/>
      <point x="1057" y="1320" type="line"/>
    </contour>
    <contour>
      <point x="1015" y="381" type="curve" smooth="yes"/>
      <point x="1015" y="590"/>
      <point x="1135" y="738"/>
      <point x="1331" y="738" type="curve" smooth="yes"/>
      <point x="1529" y="738"/>
      <point x="1650" y="589"/>
      <point x="1650" y="381" type="curve" smooth="yes"/>
      <point x="1650" y="169"/>
      <point x="1531" y="26"/>
      <point x="1331" y="26" type="curve" smooth="yes"/>
      <point x="1132" y="26"/>
      <point x="1015" y="172"/>
    </contour>
    <contour>
      <point x="1470" y="381" type="curve" smooth="yes"/>
      <point x="1470" y="466"/>
      <point x="1442" y="596"/>
      <point x="1331" y="596" type="curve" smooth="yes"/>
      <point x="1218" y="596"/>
      <point x="1195" y="466"/>
      <point x="1195" y="381" type="curve" smooth="yes"/>
      <point x="1195" y="297"/>
      <point x="1221" y="164"/>
      <point x="1331" y="164" type="curve" smooth="yes"/>
      <point x="1444" y="164"/>
      <point x="1470" y="295"/>
    </contour>
    <contour>
      <point x="99" y="1001" type="curve" smooth="yes"/>
      <point x="99" y="1213"/>
      <point x="225" y="1356"/>
      <point x="427" y="1356" type="curve" smooth="yes"/>
      <point x="625" y="1356"/>
      <point x="743" y="1208"/>
      <point x="743" y="1001" type="curve" smooth="yes"/>
      <point x="743" y="788"/>
      <point x="623" y="646"/>
      <point x="422" y="646" type="curve" smooth="yes"/>
      <point x="218" y="646"/>
      <point x="99" y="791"/>
    </contour>
    <contour>
      <point x="562" y="1001" type="curve" smooth="yes"/>
      <point x="562" y="1088"/>
      <point x="534" y="1216"/>
      <point x="422" y="1216" type="curve" smooth="yes"/>
      <point x="309" y="1216"/>
      <point x="285" y="1087"/>
      <point x="285" y="1001" type="curve" smooth="yes"/>
      <point x="285" y="917"/>
      <point x="311" y="782"/>
      <point x="422" y="782" type="curve" smooth="yes"/>
      <point x="536" y="782"/>
      <point x="562" y="914"/>
    </contour>
    <contour>
      <point x="1797" y="381" type="curve" smooth="yes"/>
      <point x="1797" y="591"/>
      <point x="1919" y="738"/>
      <point x="2116" y="738" type="curve" smooth="yes"/>
      <point x="2316" y="738"/>
      <point x="2441" y="588"/>
      <point x="2441" y="381" type="curve" smooth="yes"/>
      <point x="2441" y="169"/>
      <point x="2319" y="26"/>
      <point x="2116" y="26" type="curve" smooth="yes"/>
      <point x="1917" y="26"/>
      <point x="1797" y="173"/>
    </contour>
    <contour>
      <point x="2255" y="381" type="curve" smooth="yes"/>
      <point x="2255" y="466"/>
      <point x="2227" y="596"/>
      <point x="2116" y="596" type="curve" smooth="yes"/>
      <point x="2004" y="596"/>
      <point x="1978" y="467"/>
      <point x="1978" y="381" type="curve" smooth="yes"/>
      <point x="1978" y="295"/>
      <point x="2004" y="164"/>
      <point x="2116" y="164" type="curve" smooth="yes"/>
      <point x="2229" y="164"/>
      <point x="2255" y="295"/>
    </contour>
  </outline>
</glyph>
<glyph name="guilsinglleft" format="1">
  <advance width="505"/>
  <unicode hex="2039"/>
  <outline>
    <contour>
      <point x="60" y="788" type="line"/>
      <point x="416" y="1063" type="line"/>
      <point x="416" y="756" type="line"/>
      <point x="199" y="626" type="line"/>
      <point x="416" y="491" type="line"/>
      <point x="416" y="182" type="line"/>
      <point x="60" y="464" type="line"/>
    </contour>
  </outline>
</glyph>
<glyph name="guilsinglright" format="1">
  <advance width="507"/>
  <unicode hex="203A"/>
  <outline>
    <contour>
      <point x="101" y="491" type="line"/>
      <point x="316" y="626" type="line"/>
      <point x="101" y="755" type="line"/>
      <point x="101" y="1063" type="line"/>
      <point x="457" y="788" type="line"/>
      <point x="457" y="464" type="line"/>
      <point x="101" y="182" type="line"/>
    </contour>
  </outline>
</glyph>
<glyph name="fraction" format="1">
  <advance width="491"/>
  <unicode hex="2044"/>
  <outline>
    <contour>
      <point x="155" y="57" type="line"/>
      <point x="22" y="57" type="line"/>
      <point x="331" y="1351" type="line"/>
      <point x="468" y="1351" type="line"/>
    </contour>
  </outline>
</glyph>
